<?xml version="1.0" encoding="UTF-8"?>
<!-- Generated by GearForge — Timing pulley — GT2 (2 mm) | kerf 0.15 mm compensated -->
<svg xmlns="http://www.w3.org/2000/svg" width="16.26mm" height="16.26mm" viewBox="0 0 16.26 16.26">
  <g id="CUT" fill="none" stroke="#ff0000" stroke-width="0.1">
    <path d="M 7.2895 14.26 L 7.4451 14.2085 L 7.5225 14.0805 L 7.5465 13.9646 L 7.5791 13.8685 L 7.6234 13.7758 L 7.6762 13.6919 L 7.7682 13.6074 L 7.8783 13.5452 L 8.0008 13.5071 L 8.13 13.4942 L 8.2593 13.5071 L 8.3817 13.5452 L 8.4918 13.6074 L 8.5839 13.6919 L 8.6364 13.7757 L 8.6809 13.8685 L 8.7135 13.9646 L 8.7376 14.0805 L 8.8147 14.2085 L 8.9706 14.26 L 9.0979 14.241 L 9.2249 14.2198 L 9.357 14.1227 L 9.391 13.977 L 9.378 13.8593 L 9.3793 13.7579 L 9.3929 13.656 L 9.4171 13.56 L 9.4785 13.4511 L 9.564 13.358 L 9.6687 13.2838 L 9.7876 13.2316 L 9.9146 13.204 L 10.0428 13.2024 L 10.1667 13.2275 L 10.2804 13.2794 L 10.3563 13.3429 L 10.4272 13.4175 L 10.488 13.4987 L 10.5466 13.6015 L 10.6596 13.6994 L 10.8237 13.7003 L 10.939 13.6429 L 11.0531 13.5834 L 11.1488 13.4502 L 11.1361 13.3012 L 11.0874 13.1933 L 11.0573 13.0964 L 11.0387 12.9953 L 11.032 12.8965 L 11.0568 12.774 L 11.1093 12.659 L 11.186 12.5561 L 11.283 12.4697 L 11.3952 12.4042 L 11.5166 12.363 L 11.6422 12.3486 L 11.7664 12.3629 L 11.8582 12.3998 L 11.9487 12.4488 L 12.0316 12.5073 L 12.1191 12.5869 L 12.2568 12.6452 L 12.4132 12.5952 L 12.505 12.505 L 12.5953 12.4132 L 12.6451 12.257 L 12.5869 12.1192 L 12.5072 12.0316 L 12.4487 11.9488 L 12.3998 11.8583 L 12.3629 11.7664 L 12.3486 11.6422 L 12.363 11.5166 L 12.4042 11.3952 L 12.4697 11.283 L 12.5561 11.186 L 12.659 11.1093 L 12.774 11.0568 L 12.8964 11.0321 L 12.9951 11.0388 L 13.0964 11.0574 L 13.1933 11.0874 L 13.3012 11.1361 L 13.4501 11.1489 L 13.5834 11.0531 L 13.6429 10.939 L 13.7003 10.8237 L 13.6994 10.6597 L 13.6015 10.5467 L 13.4987 10.488 L 13.4174 10.4273 L 13.3429 10.3564 L 13.2795 10.2804 L 13.2275 10.1667 L 13.2024 10.0428 L 13.204 9.9146 L 13.2316 9.7876 L 13.2838 9.6687 L 13.358 9.564 L 13.4511 9.4785 L 13.5599 9.4171 L 13.6559 9.393 L 13.7579 9.3794 L 13.8594 9.3781 L 13.977 9.391 L 14.1226 9.3572 L 14.2198 9.2249 L 14.241 9.0979 L 14.26 8.9706 L 14.2085 8.8149 L 14.0805 8.7376 L 13.9646 8.7136 L 13.8685 8.681 L 13.7758 8.6366 L 13.6919 8.5839 L 13.6074 8.4918 L 13.5452 8.3817 L 13.5071 8.2593 L 13.4942 8.13 L 13.5071 8.0008 L 13.5452 7.8783 L 13.6074 7.7682 L 13.6919 7.6762 L 13.7757 7.6236 L 13.8685 7.5792 L 13.9646 7.5465 L 14.0805 7.5225 L 14.2085 7.4453 L 14.26 7.2895 L 14.241 7.1621 L 14.2198 7.0351 L 14.1227 6.903 L 13.977 6.8691 L 13.8593 6.882 L 13.7579 6.8807 L 13.656 6.8672 L 13.56 6.843 L 13.4511 6.7815 L 13.358 6.696 L 13.2838 6.5914 L 13.2316 6.4724 L 13.204 6.3455 L 13.2024 6.2172 L 13.2275 6.0933 L 13.2794 5.9797 L 13.3429 5.9038 L 13.4175 5.8328 L 13.4987 5.7721 L 13.6015 5.7134 L 13.6994 5.6005 L 13.7003 5.4363 L 13.6429 5.3211 L 13.5834 5.2069 L 13.4502 5.1112 L 13.3012 5.1239 L 13.1933 5.1727 L 13.0964 5.2028 L 12.9953 5.2214 L 12.8965 5.228 L 12.774 5.2032 L 12.659 5.1507 L 12.5561 5.074 L 12.4697 4.9771 L 12.4042 4.8649 L 12.363 4.7434 L 12.3486 4.6178 L 12.3629 4.4937 L 12.3998 4.4019 L 12.4488 4.3114 L 12.5073 4.2285 L 12.5869 4.1409 L 12.6452 4.0032 L 12.5952 3.8469 L 12.505 3.755 L 12.4132 3.6648 L 12.257 3.615 L 12.1192 3.6731 L 12.0316 3.7528 L 11.9488 3.8113 L 11.8583 3.8603 L 11.7664 3.8971 L 11.6422 3.9114 L 11.5166 3.897 L 11.3952 3.8559 L 11.283 3.7903 L 11.186 3.7039 L 11.1093 3.6011 L 11.0568 3.4861 L 11.0321 3.3636 L 11.0388 3.2649 L 11.0574 3.1637 L 11.0874 3.0668 L 11.1361 2.9589 L 11.1489 2.81 L 11.0531 2.6767 L 10.939 2.6172 L 10.8237 2.5598 L 10.6597 2.5607 L 10.5467 2.6585 L 10.488 2.7614 L 10.4273 2.8427 L 10.3564 2.9172 L 10.2804 2.9806 L 10.1667 3.0325 L 10.0428 3.0577 L 9.9146 3.0561 L 9.7876 3.0284 L 9.6687 2.9762 L 9.564 2.9021 L 9.4785 2.8089 L 9.4171 2.7001 L 9.393 2.6042 L 9.3794 2.5021 L 9.3781 2.4007 L 9.391 2.2831 L 9.3572 2.1374 L 9.2249 2.0403 L 9.0979 2.019 L 8.9706 2 L 8.8149 2.0515 L 8.7376 2.1795 L 8.7136 2.2955 L 8.681 2.3915 L 8.6366 2.4843 L 8.5839 2.5681 L 8.4918 2.6527 L 8.3817 2.7148 L 8.2593 2.753 L 8.13 2.7659 L 8.0008 2.753 L 7.8783 2.7148 L 7.7682 2.6527 L 7.6762 2.5681 L 7.6236 2.4843 L 7.5792 2.3915 L 7.5465 2.2954 L 7.5225 2.1796 L 7.4453 2.0515 L 7.2895 2 L 7.1621 2.019 L 7.0351 2.0403 L 6.903 2.1374 L 6.8691 2.283 L 6.882 2.4007 L 6.8807 2.5021 L 6.8672 2.6041 L 6.843 2.7001 L 6.7815 2.8089 L 6.696 2.9021 L 6.5914 2.9762 L 6.4724 3.0284 L 6.3455 3.0561 L 6.2172 3.0577 L 6.0933 3.0325 L 5.9797 2.9806 L 5.9038 2.9171 L 5.8328 2.8426 L 5.7721 2.7613 L 5.7134 2.6586 L 5.6005 2.5606 L 5.4363 2.5598 L 5.3211 2.6172 L 5.2069 2.6767 L 5.1112 2.8098 L 5.1239 2.9589 L 5.1727 3.0668 L 5.2028 3.1636 L 5.2214 3.2648 L 5.228 3.3636 L 5.2032 3.4861 L 5.1507 3.6011 L 5.074 3.7039 L 4.9771 3.7903 L 4.8649 3.8559 L 4.7434 3.897 L 4.6178 3.9114 L 4.4937 3.8971 L 4.4019 3.8602 L 4.3114 3.8112 L 4.2285 3.7527 L 4.1409 3.6731 L 4.0032 3.6149 L 3.8469 3.6648 L 3.755 3.755 L 3.6648 3.8469 L 3.615 4.0031 L 3.6731 4.1409 L 3.7528 4.2285 L 3.8113 4.3113 L 3.8603 4.4017 L 3.8971 4.4936 L 3.9114 4.6178 L 3.897 4.7434 L 3.8559 4.8649 L 3.7903 4.9771 L 3.7039 5.074 L 3.6011 5.1507 L 3.4861 5.2032 L 3.3636 5.228 L 3.2649 5.2212 L 3.1637 5.2026 L 3.0668 5.1726 L 2.9589 5.124 L 2.81 5.1111 L 2.6767 5.2069 L 2.6172 5.3211 L 2.5598 5.4363 L 2.5607 5.6003 L 2.6585 5.7134 L 2.7614 5.7721 L 2.8427 5.8327 L 2.9172 5.9036 L 2.9806 5.9796 L 3.0325 6.0933 L 3.0577 6.2172 L 3.0561 6.3455 L 3.0284 6.4724 L 2.9762 6.5914 L 2.9021 6.696 L 2.8089 6.7815 L 2.7001 6.8429 L 2.6042 6.867 L 2.5021 6.8806 L 2.4007 6.882 L 2.2831 6.8691 L 2.1374 6.9028 L 2.0403 7.0352 L 2.019 7.1621 L 2 7.2895 L 2.0515 7.4451 L 2.1795 7.5225 L 2.2955 7.5465 L 2.3915 7.5791 L 2.4843 7.6234 L 2.5681 7.6762 L 2.6527 7.7682 L 2.7148 7.8783 L 2.753 8.0008 L 2.7659 8.13 L 2.753 8.2593 L 2.7148 8.3817 L 2.6527 8.4918 L 2.5681 8.5839 L 2.4843 8.6364 L 2.3915 8.6809 L 2.2954 8.7135 L 2.1796 8.7376 L 2.0515 8.8147 L 2 8.9706 L 2.019 9.0979 L 2.0403 9.2249 L 2.1374 9.357 L 2.283 9.391 L 2.4007 9.378 L 2.5021 9.3793 L 2.6041 9.3929 L 2.7001 9.4171 L 2.8089 9.4785 L 2.9021 9.564 L 2.9762 9.6687 L 3.0284 9.7876 L 3.0561 9.9146 L 3.0577 10.0428 L 3.0325 10.1667 L 2.9806 10.2804 L 2.9171 10.3563 L 2.8426 10.4272 L 2.7613 10.488 L 2.6586 10.5466 L 2.5606 10.6596 L 2.5598 10.8237 L 2.6172 10.939 L 2.6767 11.0531 L 2.8098 11.1488 L 2.9589 11.1361 L 3.0668 11.0874 L 3.1636 11.0573 L 3.2648 11.0387 L 3.3636 11.032 L 3.4861 11.0568 L 3.6011 11.1093 L 3.7039 11.186 L 3.7903 11.283 L 3.8559 11.3952 L 3.897 11.5166 L 3.9114 11.6422 L 3.8971 11.7664 L 3.8602 11.8582 L 3.8112 11.9487 L 3.7527 12.0316 L 3.6731 12.1191 L 3.6149 12.2568 L 3.6648 12.4132 L 3.755 12.505 L 3.8469 12.5953 L 4.0031 12.6451 L 4.1409 12.5869 L 4.2285 12.5072 L 4.3113 12.4487 L 4.4017 12.3998 L 4.4936 12.3629 L 4.6178 12.3486 L 4.7434 12.363 L 4.8649 12.4042 L 4.9771 12.4697 L 5.074 12.5561 L 5.1507 12.659 L 5.2032 12.774 L 5.228 12.8964 L 5.2212 12.9951 L 5.2026 13.0964 L 5.1726 13.1933 L 5.124 13.3012 L 5.1111 13.4501 L 5.2069 13.5834 L 5.3211 13.6429 L 5.4363 13.7003 L 5.6003 13.6994 L 5.7134 13.6015 L 5.7721 13.4987 L 5.8327 13.4174 L 5.9036 13.3429 L 5.9796 13.2795 L 6.0933 13.2275 L 6.2172 13.2024 L 6.3455 13.204 L 6.4724 13.2316 L 6.5914 13.2838 L 6.696 13.358 L 6.7815 13.4511 L 6.8429 13.5599 L 6.867 13.6559 L 6.8806 13.7579 L 6.882 13.8594 L 6.8691 13.977 L 6.9028 14.1226 L 7.0352 14.2198 L 7.1621 14.241 Z"/>
    <circle cx="8.13" cy="8.13" r="2.425"/>
  </g>
  <g id="ENGRAVE" fill="none" stroke="#0000ff" stroke-width="0.1">
    <circle cx="8.13" cy="8.13" r="6.3662"/>
    <path d="M 7.3661 8.13 L 8.894 8.13"/>
    <path d="M 8.13 8.894 L 8.13 7.3661"/>
    <text x="8.13" y="9.9126" font-size="2" text-anchor="middle" font-family="monospace" fill="none">GT2 (2 mm) z20</text>
  </g>
</svg>
