<?xml version="1.0" encoding="UTF-8"?>
<!-- Generated by GearForge — pair check -->
<svg xmlns="http://www.w3.org/2000/svg" width="127.9217mm" height="87.8435mm" viewBox="0 0 127.9217 87.8435">
  <g id="CUT" fill="none" stroke="#ff0000" stroke-width="0.1">
    <path d="M 41.24 40.9162 L 41.2455 40.9152 L 41.2467 40.8571 L 41.2606 40.7446 L 41.2686 40.7256 L 41.2735 40.6907 L 41.2816 40.6726 L 41.2868 40.6394 L 41.3032 40.6052 L 41.3087 40.5744 L 41.3339 40.5272 L 41.3399 40.4994 L 41.4009 40.4032 L 41.4078 40.3803 L 41.4624 40.3105 L 41.5278 40.2385 L 41.5358 40.2218 L 41.5742 40.1859 L 41.6326 40.1362 L 41.6919 40.091 L 41.7008 40.0792 L 41.7814 40.0262 L 41.894 39.9619 L 41.9036 39.9536 L 42.0182 39.8989 L 42.145 39.847 L 42.2518 39.8094 L 42.4571 39.7458 L 42.5832 39.6975 L 42.7402 39.6283 L 42.8277 39.5862 L 43.016 39.4874 L 43.2166 39.3714 L 43.3194 39.3077 L 43.527 39.1709 L 43.7331 39.0244 L 43.9334 38.872 L 44.1246 38.7173 L 44.3037 38.5641 L 44.4684 38.416 L 44.6848 38.211 L 44.9092 37.9854 L 45.1198 37.7611 L 45.0239 37.4415 L 44.9232 37.1234 L 44.8177 36.8068 L 44.7074 36.4919 L 44.4051 36.4342 L 44.091 36.3836 L 43.7955 36.3449 L 43.5752 36.322 L 43.3402 36.3033 L 43.0947 36.2905 L 42.843 36.285 L 42.5902 36.2876 L 42.3418 36.2989 L 42.2212 36.3079 L 41.9907 36.3318 L 41.7803 36.3627 L 41.6847 36.38 L 41.5171 36.4164 L 41.3866 36.4513 L 41.1832 36.5206 L 41.0747 36.553 L 40.9417 36.5855 L 40.8168 36.6086 L 40.8041 36.6075 L 40.6752 36.6217 L 40.5789 36.6262 L 40.5647 36.6219 L 40.4902 36.6201 L 40.4137 36.6143 L 40.3615 36.6077 L 40.3453 36.599 L 40.25 36.5792 L 40.1648 36.5548 L 40.1458 36.5403 L 40.0399 36.4984 L 40.0187 36.4794 L 39.9705 36.456 L 39.9479 36.4343 L 39.9146 36.4163 L 39.8909 36.3925 L 39.8738 36.3826 L 39.8492 36.3572 L 39.8317 36.3466 L 39.7542 36.2637 L 39.7191 36.2174 L 39.7141 36.2199 L 39.5926 35.9769 L 39.4674 35.7358 L 39.4724 35.7332 L 39.4556 35.6776 L 39.434 35.5662 L 39.4358 35.5458 L 39.4297 35.511 L 39.4317 35.4913 L 39.4264 35.4581 L 39.4314 35.4206 L 39.4271 35.3896 L 39.4365 35.3369 L 39.4336 35.3086 L 39.462 35.1982 L 39.4614 35.1743 L 39.4918 35.091 L 39.5317 35.0023 L 39.5342 34.9841 L 39.5596 34.938 L 39.5998 34.8727 L 39.6422 34.8114 L 39.6471 34.7974 L 39.7073 34.7221 L 39.7945 34.6262 L 39.8011 34.6153 L 39.8932 34.5278 L 39.9977 34.4393 L 40.0877 34.3705 L 40.2633 34.2467 L 40.3683 34.1617 L 40.4962 34.0474 L 40.5664 33.9803 L 40.7151 33.8282 L 40.8699 33.6558 L 40.9481 33.5635 L 41.1032 33.3692 L 41.2539 33.1662 L 41.3973 32.9593 L 41.5313 32.7532 L 41.6543 32.5521 L 41.7653 32.3604 L 41.9077 32.0986 L 42.0514 31.8147 L 42.1824 31.5363 L 41.9925 31.2619 L 41.7984 30.9905 L 41.6002 30.722 L 41.398 30.4566 L 41.0927 30.4951 L 40.7783 30.5441 L 40.4853 30.5986 L 40.2687 30.6449 L 40.0394 30.6998 L 39.8019 30.7635 L 39.5608 30.8359 L 39.3213 30.9165 L 39.0886 31.0041 L 38.9765 31.0499 L 38.7648 31.1439 L 38.5742 31.2382 L 38.4886 31.2842 L 38.3404 31.3706 L 38.2272 31.4442 L 38.0551 31.5729 L 37.9619 31.6372 L 37.8454 31.7093 L 37.7338 31.7698 L 37.7214 31.7728 L 37.6032 31.826 L 37.513 31.8601 L 37.4982 31.8604 L 37.4267 31.8818 L 37.3522 31.8998 L 37.3006 31.9097 L 37.2824 31.9064 L 37.1857 31.917 L 37.0972 31.9202 L 37.0746 31.9123 L 36.9609 31.9051 L 36.9348 31.8936 L 36.8818 31.8862 L 36.8536 31.8726 L 36.8164 31.8658 L 36.7865 31.8504 L 36.7671 31.8463 L 36.7359 31.8298 L 36.7159 31.8251 L 36.6167 31.7702 L 36.569 31.737 L 36.565 31.7409 L 36.3744 31.5474 L 36.1808 31.3568 L 36.1847 31.3528 L 36.1515 31.3051 L 36.0967 31.2058 L 36.092 31.1858 L 36.0754 31.1546 L 36.0713 31.1353 L 36.056 31.1053 L 36.0492 31.0681 L 36.0355 31.0399 L 36.0281 30.9869 L 36.0166 30.9609 L 36.0095 30.8471 L 36.0016 30.8246 L 36.0047 30.736 L 36.0153 30.6393 L 36.012 30.6212 L 36.0219 30.5695 L 36.04 30.495 L 36.0614 30.4236 L 36.0617 30.4087 L 36.0957 30.3185 L 36.149 30.2004 L 36.1519 30.1879 L 36.2125 30.0763 L 36.2845 29.9598 L 36.3488 29.8666 L 36.4776 29.6945 L 36.5511 29.5813 L 36.6375 29.4331 L 36.6835 29.3476 L 36.7779 29.157 L 36.8719 28.9452 L 36.9177 28.8332 L 37.0052 28.6005 L 37.0858 28.3609 L 37.1583 28.1198 L 37.222 27.8823 L 37.2768 27.6531 L 37.3231 27.4365 L 37.3777 27.1435 L 37.4266 26.8291 L 37.4652 26.5238 L 37.1997 26.3215 L 36.9313 26.1234 L 36.6598 25.9293 L 36.3855 25.7393 L 36.107 25.8704 L 35.8232 26.014 L 35.5614 26.1565 L 35.3696 26.2674 L 35.1686 26.3904 L 34.9624 26.5244 L 34.7555 26.6678 L 34.5525 26.8185 L 34.3583 26.9737 L 34.2659 27.0518 L 34.0936 27.2067 L 33.9415 27.3553 L 33.8743 27.4255 L 33.7601 27.5535 L 33.6751 27.6584 L 33.5512 27.834 L 33.4824 27.924 L 33.3939 28.0285 L 33.3065 28.1206 L 33.2956 28.1272 L 33.1997 28.2144 L 33.1244 28.2747 L 33.1104 28.2795 L 33.049 28.322 L 32.9837 28.3622 L 32.9377 28.3875 L 32.9194 28.39 L 32.8307 28.43 L 32.7475 28.4603 L 32.7236 28.4598 L 32.6132 28.4881 L 32.5848 28.4852 L 32.5322 28.4946 L 32.5012 28.4903 L 32.4636 28.4954 L 32.4304 28.49 L 32.4107 28.4921 L 32.376 28.486 L 32.3555 28.4877 L 32.2441 28.4662 L 32.1885 28.4494 L 32.1859 28.4543 L 31.9448 28.3291 L 31.7018 28.2077 L 31.7043 28.2026 L 31.658 28.1675 L 31.5752 28.0901 L 31.5645 28.0725 L 31.5391 28.048 L 31.5292 28.0308 L 31.5054 28.0071 L 31.4874 27.9738 L 31.4657 27.9512 L 31.4424 27.9031 L 31.4234 27.8819 L 31.3814 27.7759 L 31.3669 27.7569 L 31.3425 27.6717 L 31.3227 27.5765 L 31.314 27.5602 L 31.3075 27.508 L 31.3016 27.4316 L 31.2999 27.357 L 31.2956 27.3428 L 31.3001 27.2465 L 31.3142 27.1177 L 31.3132 27.105 L 31.3363 26.9801 L 31.3688 26.8471 L 31.4012 26.7385 L 31.4704 26.5351 L 31.5054 26.4047 L 31.5417 26.237 L 31.5591 26.1415 L 31.5899 25.931 L 31.6139 25.7006 L 31.6228 25.5799 L 31.6342 25.3315 L 31.6368 25.0788 L 31.6312 24.8271 L 31.6184 24.5815 L 31.5997 24.3466 L 31.5768 24.1262 L 31.5382 23.8307 L 31.4875 23.5166 L 31.4299 23.2143 L 31.1149 23.104 L 30.7984 22.9985 L 30.4802 22.8978 L 30.1606 22.8019 L 29.9363 23.0126 L 29.7107 23.237 L 29.5057 23.4533 L 29.3577 23.6181 L 29.2045 23.7972 L 29.0498 23.9883 L 28.8973 24.1887 L 28.7509 24.3947 L 28.6141 24.6023 L 28.5504 24.7052 L 28.4343 24.9057 L 28.3356 25.0941 L 28.2934 25.1816 L 28.2243 25.3386 L 28.1759 25.4647 L 28.1124 25.6699 L 28.0748 25.7768 L 28.0229 25.9035 L 27.9682 26.0181 L 27.9598 26.0278 L 27.8956 26.1403 L 27.8426 26.2209 L 27.8308 26.2299 L 27.7855 26.2892 L 27.7359 26.3476 L 27.6999 26.3859 L 27.6833 26.3939 L 27.6113 26.4594 L 27.5415 26.514 L 27.5186 26.5208 L 27.4224 26.5819 L 27.3945 26.5879 L 27.3473 26.6131 L 27.3165 26.6186 L 27.2824 26.635 L 27.2491 26.6402 L 27.2311 26.6482 L 27.1961 26.6531 L 27.1772 26.6611 L 27.0646 26.675 L 27.0065 26.6762 L 27.0056 26.6818 L 26.7376 26.6372 L 26.469 26.5968 L 26.4698 26.5912 L 26.4149 26.5721 L 26.3122 26.5241 L 26.2966 26.5107 L 26.2649 26.4952 L 26.2502 26.4819 L 26.2202 26.4668 L 26.1928 26.4406 L 26.1652 26.4258 L 26.1281 26.3873 L 26.1035 26.373 L 26.0308 26.2852 L 26.0111 26.2716 L 25.9616 26.1981 L 25.9134 26.1136 L 25.9 26.1009 L 25.8777 26.0533 L 25.8485 25.9824 L 25.8238 25.912 L 25.8153 25.8998 L 25.7899 25.8068 L 25.7635 25.6799 L 25.7586 25.6681 L 25.742 25.5422 L 25.7318 25.4057 L 25.729 25.2924 L 25.732 25.0776 L 25.725 24.9427 L 25.7078 24.7721 L 25.6947 24.6758 L 25.659 24.4661 L 25.6106 24.2396 L 25.5818 24.122 L 25.5158 23.8823 L 25.4402 23.6411 L 25.3571 23.4035 L 25.2691 23.1739 L 25.1787 22.9562 L 25.0888 22.7537 L 24.9608 22.4846 L 24.8155 22.2015 L 24.6673 21.9319 L 24.3337 21.9243 L 24 21.9217 L 23.6663 21.9243 L 23.3327 21.9319 L 23.1845 22.2015 L 23.0392 22.4846 L 22.9112 22.7537 L 22.8213 22.9562 L 22.7309 23.1739 L 22.6429 23.4035 L 22.5598 23.6411 L 22.4842 23.8823 L 22.4182 24.122 L 22.3894 24.2396 L 22.341 24.4661 L 22.3053 24.6758 L 22.2922 24.7721 L 22.275 24.9427 L 22.268 25.0776 L 22.271 25.2924 L 22.2682 25.4057 L 22.258 25.5422 L 22.2414 25.6681 L 22.2365 25.6799 L 22.2101 25.8068 L 22.1847 25.8998 L 22.1762 25.912 L 22.1515 25.9824 L 22.1223 26.0533 L 22.1 26.1009 L 22.0866 26.1136 L 22.0384 26.1981 L 21.9889 26.2716 L 21.9692 26.2852 L 21.8965 26.373 L 21.8719 26.3873 L 21.8348 26.4258 L 21.8072 26.4406 L 21.7798 26.4668 L 21.7498 26.4819 L 21.7351 26.4952 L 21.7034 26.5107 L 21.6878 26.5241 L 21.5851 26.5721 L 21.5302 26.5912 L 21.531 26.5968 L 21.2624 26.6372 L 20.9944 26.6818 L 20.9935 26.6762 L 20.9354 26.675 L 20.8228 26.6611 L 20.8039 26.6531 L 20.7689 26.6482 L 20.7509 26.6402 L 20.7176 26.635 L 20.6835 26.6186 L 20.6527 26.6131 L 20.6055 26.5879 L 20.5776 26.5819 L 20.4814 26.5208 L 20.4585 26.514 L 20.3887 26.4594 L 20.3167 26.3939 L 20.3001 26.3859 L 20.2641 26.3476 L 20.2145 26.2892 L 20.1692 26.2299 L 20.1574 26.2209 L 20.1044 26.1403 L 20.0402 26.0278 L 20.0318 26.0181 L 19.9771 25.9035 L 19.9252 25.7768 L 19.8876 25.6699 L 19.8241 25.4647 L 19.7757 25.3386 L 19.7066 25.1816 L 19.6644 25.0941 L 19.5657 24.9057 L 19.4496 24.7052 L 19.3859 24.6023 L 19.2491 24.3947 L 19.1027 24.1887 L 18.9502 23.9883 L 18.7955 23.7972 L 18.6423 23.6181 L 18.4943 23.4533 L 18.2893 23.237 L 18.0637 23.0126 L 17.8394 22.8019 L 17.5198 22.8978 L 17.2016 22.9985 L 16.8851 23.104 L 16.5701 23.2143 L 16.5125 23.5166 L 16.4618 23.8307 L 16.4232 24.1262 L 16.4003 24.3466 L 16.3816 24.5815 L 16.3688 24.8271 L 16.3632 25.0788 L 16.3658 25.3315 L 16.3772 25.5799 L 16.3861 25.7006 L 16.4101 25.931 L 16.4409 26.1415 L 16.4583 26.237 L 16.4946 26.4047 L 16.5296 26.5351 L 16.5988 26.7385 L 16.6312 26.8471 L 16.6637 26.9801 L 16.6868 27.105 L 16.6858 27.1177 L 16.6999 27.2465 L 16.7044 27.3428 L 16.7001 27.357 L 16.6984 27.4316 L 16.6925 27.508 L 16.686 27.5602 L 16.6773 27.5765 L 16.6575 27.6717 L 16.6331 27.7569 L 16.6186 27.7759 L 16.5766 27.8819 L 16.5576 27.9031 L 16.5343 27.9512 L 16.5126 27.9738 L 16.4946 28.0071 L 16.4708 28.0308 L 16.4609 28.048 L 16.4355 28.0725 L 16.4248 28.0901 L 16.342 28.1675 L 16.2957 28.2026 L 16.2982 28.2077 L 16.0552 28.3291 L 15.8141 28.4543 L 15.8115 28.4494 L 15.7559 28.4662 L 15.6445 28.4877 L 15.624 28.486 L 15.5893 28.4921 L 15.5696 28.49 L 15.5364 28.4954 L 15.4988 28.4903 L 15.4678 28.4946 L 15.4152 28.4852 L 15.3868 28.4881 L 15.2764 28.4598 L 15.2525 28.4603 L 15.1693 28.43 L 15.0806 28.39 L 15.0623 28.3875 L 15.0163 28.3622 L 14.951 28.322 L 14.8896 28.2795 L 14.8756 28.2747 L 14.8003 28.2144 L 14.7044 28.1272 L 14.6935 28.1206 L 14.6061 28.0285 L 14.5176 27.924 L 14.4488 27.834 L 14.3249 27.6584 L 14.2399 27.5535 L 14.1257 27.4255 L 14.0585 27.3553 L 13.9064 27.2067 L 13.7341 27.0518 L 13.6417 26.9737 L 13.4475 26.8185 L 13.2445 26.6678 L 13.0376 26.5244 L 12.8314 26.3904 L 12.6304 26.2674 L 12.4386 26.1565 L 12.1768 26.014 L 11.893 25.8704 L 11.6145 25.7393 L 11.3402 25.9293 L 11.0687 26.1234 L 10.8003 26.3215 L 10.5348 26.5238 L 10.5734 26.8291 L 10.6223 27.1435 L 10.6769 27.4365 L 10.7232 27.6531 L 10.778 27.8823 L 10.8417 28.1198 L 10.9142 28.3609 L 10.9948 28.6005 L 11.0823 28.8332 L 11.1281 28.9452 L 11.2221 29.157 L 11.3165 29.3476 L 11.3625 29.4331 L 11.4489 29.5813 L 11.5224 29.6945 L 11.6512 29.8666 L 11.7155 29.9598 L 11.7875 30.0763 L 11.8481 30.1879 L 11.851 30.2004 L 11.9043 30.3185 L 11.9383 30.4087 L 11.9386 30.4236 L 11.96 30.495 L 11.9781 30.5695 L 11.988 30.6212 L 11.9847 30.6393 L 11.9953 30.736 L 11.9984 30.8246 L 11.9905 30.8471 L 11.9834 30.9609 L 11.9719 30.9869 L 11.9645 31.0399 L 11.9508 31.0681 L 11.944 31.1053 L 11.9287 31.1353 L 11.9246 31.1546 L 11.908 31.1858 L 11.9033 31.2058 L 11.8485 31.3051 L 11.8153 31.3528 L 11.8192 31.3568 L 11.6256 31.5474 L 11.435 31.7409 L 11.431 31.737 L 11.3833 31.7702 L 11.2841 31.8251 L 11.2641 31.8298 L 11.2329 31.8463 L 11.2135 31.8504 L 11.1836 31.8658 L 11.1464 31.8726 L 11.1182 31.8862 L 11.0652 31.8936 L 11.0391 31.9051 L 10.9254 31.9123 L 10.9028 31.9202 L 10.8143 31.917 L 10.7176 31.9064 L 10.6994 31.9097 L 10.6478 31.8998 L 10.5733 31.8818 L 10.5018 31.8604 L 10.487 31.8601 L 10.3968 31.826 L 10.2786 31.7728 L 10.2662 31.7698 L 10.1546 31.7093 L 10.0381 31.6372 L 9.9449 31.5729 L 9.7728 31.4442 L 9.6596 31.3706 L 9.5114 31.2842 L 9.4258 31.2382 L 9.2352 31.1439 L 9.0235 31.0499 L 8.9114 31.0041 L 8.6787 30.9165 L 8.4392 30.8359 L 8.1981 30.7635 L 7.9606 30.6998 L 7.7313 30.6449 L 7.5147 30.5986 L 7.2217 30.5441 L 6.9073 30.4951 L 6.602 30.4566 L 6.3998 30.722 L 6.2016 30.9905 L 6.0075 31.2619 L 5.8176 31.5363 L 5.9486 31.8147 L 6.0923 32.0986 L 6.2347 32.3604 L 6.3457 32.5521 L 6.4687 32.7532 L 6.6027 32.9593 L 6.7461 33.1662 L 6.8968 33.3692 L 7.0519 33.5635 L 7.1301 33.6558 L 7.2849 33.8282 L 7.4336 33.9803 L 7.5038 34.0474 L 7.6317 34.1617 L 7.7367 34.2467 L 7.9123 34.3705 L 8.0023 34.4393 L 8.1068 34.5278 L 8.1989 34.6153 L 8.2055 34.6262 L 8.2927 34.7221 L 8.3529 34.7974 L 8.3578 34.8114 L 8.4002 34.8727 L 8.4404 34.938 L 8.4658 34.9841 L 8.4683 35.0023 L 8.5082 35.091 L 8.5386 35.1743 L 8.538 35.1982 L 8.5664 35.3086 L 8.5635 35.3369 L 8.5729 35.3896 L 8.5686 35.4206 L 8.5736 35.4581 L 8.5683 35.4913 L 8.5703 35.511 L 8.5642 35.5458 L 8.566 35.5662 L 8.5444 35.6776 L 8.5276 35.7332 L 8.5326 35.7358 L 8.4074 35.9769 L 8.2859 36.2199 L 8.2809 36.2174 L 8.2458 36.2637 L 8.1683 36.3466 L 8.1508 36.3572 L 8.1262 36.3826 L 8.1091 36.3925 L 8.0854 36.4163 L 8.0521 36.4343 L 8.0295 36.456 L 7.9813 36.4794 L 7.9601 36.4984 L 7.8542 36.5403 L 7.8352 36.5548 L 7.75 36.5792 L 7.6547 36.599 L 7.6385 36.6077 L 7.5863 36.6143 L 7.5098 36.6201 L 7.4353 36.6219 L 7.4211 36.6262 L 7.3248 36.6217 L 7.1959 36.6075 L 7.1832 36.6086 L 7.0583 36.5855 L 6.9253 36.553 L 6.8168 36.5206 L 6.6134 36.4513 L 6.4829 36.4164 L 6.3153 36.38 L 6.2197 36.3627 L 6.0093 36.3318 L 5.7788 36.3079 L 5.6582 36.2989 L 5.4098 36.2876 L 5.157 36.285 L 4.9053 36.2905 L 4.6598 36.3033 L 4.4248 36.322 L 4.2045 36.3449 L 3.909 36.3836 L 3.5949 36.4342 L 3.2926 36.4919 L 3.1823 36.8068 L 3.0768 37.1234 L 2.9761 37.4415 L 2.8802 37.7611 L 3.0908 37.9854 L 3.3152 38.211 L 3.5316 38.416 L 3.6963 38.5641 L 3.8754 38.7173 L 4.0666 38.872 L 4.2669 39.0244 L 4.473 39.1709 L 4.6806 39.3077 L 4.7834 39.3714 L 4.984 39.4874 L 5.1723 39.5862 L 5.2598 39.6283 L 5.4168 39.6975 L 5.5429 39.7458 L 5.7482 39.8094 L 5.855 39.847 L 5.9818 39.8989 L 6.0964 39.9536 L 6.106 39.9619 L 6.2186 40.0262 L 6.2992 40.0792 L 6.3081 40.091 L 6.3674 40.1362 L 6.4258 40.1859 L 6.4642 40.2218 L 6.4722 40.2385 L 6.5376 40.3105 L 6.5922 40.3803 L 6.5991 40.4032 L 6.6601 40.4994 L 6.6661 40.5272 L 6.6913 40.5744 L 6.6968 40.6052 L 6.7132 40.6394 L 6.7184 40.6726 L 6.7265 40.6907 L 6.7314 40.7256 L 6.7394 40.7446 L 6.7533 40.8571 L 6.7545 40.9152 L 6.76 40.9162 L 6.7155 41.1841 L 6.675 41.4528 L 6.6695 41.452 L 6.6504 41.5068 L 6.6023 41.6096 L 6.5889 41.6251 L 6.5734 41.6568 L 6.5602 41.6716 L 6.545 41.7016 L 6.5189 41.729 L 6.5041 41.7566 L 6.4655 41.7937 L 6.4512 41.8183 L 6.3634 41.8909 L 6.3498 41.9106 L 6.2764 41.9601 L 6.1919 42.0084 L 6.1791 42.0217 L 6.1315 42.0441 L 6.0606 42.0732 L 5.9902 42.0979 L 5.9781 42.1064 L 5.8851 42.1319 L 5.7582 42.1582 L 5.7464 42.1632 L 5.6205 42.1798 L 5.4839 42.19 L 5.3707 42.1927 L 5.1558 42.1897 L 5.021 42.1968 L 4.8503 42.214 L 4.7541 42.2271 L 4.5444 42.2627 L 4.3178 42.3112 L 4.2003 42.34 L 3.9606 42.4059 L 3.7194 42.4815 L 3.4817 42.5646 L 3.2521 42.6527 L 3.0344 42.743 L 2.832 42.8329 L 2.5629 42.961 L 2.2798 43.1062 L 2.0101 43.2545 L 2.0025 43.5881 L 2 43.9217 L 2.0025 44.2554 L 2.0101 44.589 L 2.2798 44.7373 L 2.5629 44.8825 L 2.832 45.0106 L 3.0344 45.1005 L 3.2521 45.1908 L 3.4817 45.2789 L 3.7194 45.362 L 3.9606 45.4376 L 4.2003 45.5035 L 4.3178 45.5323 L 4.5444 45.5808 L 4.7541 45.6164 L 4.8503 45.6295 L 5.021 45.6467 L 5.1558 45.6538 L 5.3707 45.6508 L 5.4839 45.6535 L 5.6205 45.6637 L 5.7464 45.6803 L 5.7582 45.6852 L 5.8851 45.7116 L 5.9781 45.7371 L 5.9902 45.7456 L 6.0606 45.7703 L 6.1315 45.7994 L 6.1791 45.8218 L 6.1919 45.8351 L 6.2764 45.8834 L 6.3498 45.9329 L 6.3634 45.9526 L 6.4512 46.0252 L 6.4655 46.0498 L 6.5041 46.0869 L 6.5189 46.1145 L 6.545 46.1419 L 6.5602 46.1719 L 6.5734 46.1866 L 6.5889 46.2184 L 6.6023 46.2339 L 6.6504 46.3367 L 6.6695 46.3915 L 6.675 46.3907 L 6.7155 46.6593 L 6.76 46.9273 L 6.7545 46.9283 L 6.7533 46.9864 L 6.7394 47.0989 L 6.7314 47.1178 L 6.7265 47.1528 L 6.7184 47.1709 L 6.7132 47.2041 L 6.6968 47.2383 L 6.6913 47.2691 L 6.6661 47.3163 L 6.6601 47.3441 L 6.5991 47.4403 L 6.5922 47.4632 L 6.5376 47.533 L 6.4722 47.605 L 6.4642 47.6217 L 6.4258 47.6576 L 6.3674 47.7073 L 6.3081 47.7525 L 6.2992 47.7643 L 6.2186 47.8173 L 6.106 47.8816 L 6.0964 47.8899 L 5.9818 47.9446 L 5.855 47.9965 L 5.7482 48.0341 L 5.5429 48.0977 L 5.4168 48.146 L 5.2598 48.2152 L 5.1723 48.2573 L 4.984 48.356 L 4.7834 48.4721 L 4.6806 48.5358 L 4.473 48.6726 L 4.2669 48.8191 L 4.0666 48.9715 L 3.8754 49.1262 L 3.6963 49.2794 L 3.5316 49.4275 L 3.3152 49.6324 L 3.0908 49.858 L 2.8802 50.0824 L 2.9761 50.402 L 3.0768 50.7201 L 3.1823 51.0367 L 3.2926 51.3516 L 3.5949 51.4093 L 3.909 51.4599 L 4.2045 51.4986 L 4.4248 51.5215 L 4.6598 51.5401 L 4.9053 51.5529 L 5.157 51.5585 L 5.4098 51.5559 L 5.6582 51.5446 L 5.7788 51.5356 L 6.0093 51.5117 L 6.2197 51.4808 L 6.3153 51.4635 L 6.4829 51.4271 L 6.6134 51.3922 L 6.8168 51.3229 L 6.9253 51.2905 L 7.0583 51.258 L 7.1832 51.2349 L 7.1959 51.236 L 7.3248 51.2218 L 7.4211 51.2173 L 7.4353 51.2216 L 7.5098 51.2234 L 7.5863 51.2292 L 7.6385 51.2357 L 7.6547 51.2445 L 7.75 51.2643 L 7.8352 51.2887 L 7.8542 51.3032 L 7.9601 51.3451 L 7.9813 51.3641 L 8.0295 51.3875 L 8.0521 51.4092 L 8.0854 51.4272 L 8.1091 51.451 L 8.1262 51.4609 L 8.1508 51.4863 L 8.1683 51.4969 L 8.2458 51.5798 L 8.2809 51.6261 L 8.2859 51.6236 L 8.4074 51.8666 L 8.5326 52.1077 L 8.5276 52.1103 L 8.5444 52.1659 L 8.566 52.2773 L 8.5642 52.2977 L 8.5703 52.3325 L 8.5683 52.3522 L 8.5736 52.3854 L 8.5686 52.4229 L 8.5729 52.4539 L 8.5635 52.5066 L 8.5664 52.5349 L 8.538 52.6453 L 8.5386 52.6692 L 8.5082 52.7524 L 8.4683 52.8411 L 8.4658 52.8594 L 8.4404 52.9055 L 8.4002 52.9708 L 8.3578 53.0321 L 8.3529 53.0461 L 8.2927 53.1214 L 8.2055 53.2173 L 8.1989 53.2282 L 8.1068 53.3157 L 8.0023 53.4042 L 7.9123 53.473 L 7.7367 53.5968 L 7.6317 53.6818 L 7.5038 53.796 L 7.4336 53.8632 L 7.2849 54.0153 L 7.1301 54.1876 L 7.0519 54.28 L 6.8968 54.4743 L 6.7461 54.6772 L 6.6027 54.8841 L 6.4687 55.0903 L 6.3457 55.2914 L 6.2347 55.4831 L 6.0923 55.7449 L 5.9486 56.0288 L 5.8176 56.3072 L 6.0075 56.5816 L 6.2016 56.853 L 6.3998 57.1215 L 6.602 57.3869 L 6.9073 57.3483 L 7.2217 57.2994 L 7.5147 57.2449 L 7.7313 57.1986 L 7.9606 57.1437 L 8.1981 57.08 L 8.4392 57.0076 L 8.6787 56.927 L 8.9114 56.8394 L 9.0235 56.7936 L 9.2352 56.6996 L 9.4258 56.6053 L 9.5114 56.5592 L 9.6596 56.4729 L 9.7728 56.3993 L 9.9449 56.2706 L 10.0381 56.2062 L 10.1546 56.1342 L 10.2662 56.0737 L 10.2786 56.0707 L 10.3968 56.0174 L 10.487 55.9834 L 10.5018 55.9831 L 10.5733 55.9617 L 10.6478 55.9437 L 10.6994 55.9338 L 10.7176 55.9371 L 10.8143 55.9264 L 10.9028 55.9233 L 10.9254 55.9312 L 11.0391 55.9384 L 11.0652 55.9499 L 11.1182 55.9572 L 11.1464 55.9709 L 11.1836 55.9777 L 11.2135 55.993 L 11.2329 55.9972 L 11.2641 56.0137 L 11.2841 56.0184 L 11.3833 56.0733 L 11.431 56.1065 L 11.435 56.1025 L 11.6256 56.2961 L 11.8192 56.4867 L 11.8153 56.4907 L 11.8485 56.5384 L 11.9033 56.6377 L 11.908 56.6577 L 11.9246 56.6889 L 11.9287 56.7082 L 11.944 56.7381 L 11.9508 56.7754 L 11.9645 56.8036 L 11.9719 56.8566 L 11.9834 56.8826 L 11.9905 56.9964 L 11.9984 57.0189 L 11.9953 57.1075 L 11.9847 57.2042 L 11.988 57.2223 L 11.9781 57.274 L 11.96 57.3485 L 11.9386 57.4199 L 11.9383 57.4348 L 11.9043 57.525 L 11.851 57.6431 L 11.8481 57.6556 L 11.7875 57.7672 L 11.7155 57.8836 L 11.6512 57.9769 L 11.5224 58.1489 L 11.4489 58.2622 L 11.3625 58.4104 L 11.3165 58.4959 L 11.2221 58.6865 L 11.1281 58.8983 L 11.0823 59.0103 L 10.9948 59.243 L 10.9142 59.4826 L 10.8417 59.7237 L 10.778 59.9612 L 10.7232 60.1904 L 10.6769 60.407 L 10.6223 60.7 L 10.5734 61.0144 L 10.5348 61.3197 L 10.8003 61.5219 L 11.0687 61.7201 L 11.3402 61.9142 L 11.6145 62.1041 L 11.893 61.9731 L 12.1768 61.8294 L 12.4386 61.687 L 12.6304 61.5761 L 12.8314 61.4531 L 13.0376 61.3191 L 13.2445 61.1757 L 13.4475 61.025 L 13.6417 60.8698 L 13.7341 60.7916 L 13.9064 60.6368 L 14.0585 60.4881 L 14.1257 60.418 L 14.2399 60.29 L 14.3249 60.185 L 14.4488 60.0095 L 14.5176 59.9195 L 14.6061 59.815 L 14.6935 59.7229 L 14.7044 59.7163 L 14.8003 59.6291 L 14.8756 59.5688 L 14.8896 59.564 L 14.951 59.5215 L 15.0163 59.4813 L 15.0623 59.4559 L 15.0806 59.4535 L 15.1693 59.4135 L 15.2525 59.3831 L 15.2764 59.3837 L 15.3868 59.3554 L 15.4152 59.3583 L 15.4678 59.3489 L 15.4988 59.3532 L 15.5364 59.3481 L 15.5696 59.3535 L 15.5893 59.3514 L 15.624 59.3575 L 15.6445 59.3558 L 15.7559 59.3773 L 15.8115 59.3941 L 15.8141 59.3892 L 16.0552 59.5144 L 16.2982 59.6358 L 16.2957 59.6409 L 16.342 59.676 L 16.4248 59.7534 L 16.4355 59.771 L 16.4609 59.7955 L 16.4708 59.8126 L 16.4946 59.8364 L 16.5126 59.8697 L 16.5343 59.8923 L 16.5576 59.9404 L 16.5766 59.9616 L 16.6186 60.0676 L 16.6331 60.0866 L 16.6575 60.1718 L 16.6773 60.267 L 16.686 60.2833 L 16.6925 60.3354 L 16.6984 60.4119 L 16.7001 60.4865 L 16.7044 60.5006 L 16.6999 60.597 L 16.6858 60.7258 L 16.6868 60.7385 L 16.6637 60.8634 L 16.6312 60.9964 L 16.5988 61.105 L 16.5296 61.3084 L 16.4946 61.4388 L 16.4583 61.6064 L 16.4409 61.702 L 16.4101 61.9125 L 16.3861 62.1429 L 16.3772 62.2636 L 16.3658 62.512 L 16.3632 62.7647 L 16.3688 63.0164 L 16.3816 63.262 L 16.4003 63.4969 L 16.4232 63.7172 L 16.4618 64.0128 L 16.5125 64.3269 L 16.5701 64.6292 L 16.8851 64.7395 L 17.2016 64.845 L 17.5198 64.9457 L 17.8394 65.0416 L 18.0637 64.8309 L 18.2893 64.6065 L 18.4943 64.3902 L 18.6423 64.2254 L 18.7955 64.0463 L 18.9502 63.8552 L 19.1027 63.6548 L 19.2491 63.4488 L 19.3859 63.2412 L 19.4496 63.1383 L 19.5657 62.9378 L 19.6644 62.7494 L 19.7066 62.6619 L 19.7757 62.5049 L 19.8241 62.3788 L 19.8876 62.1736 L 19.9252 62.0667 L 19.9771 61.94 L 20.0318 61.8254 L 20.0402 61.8157 L 20.1044 61.7031 L 20.1574 61.6226 L 20.1692 61.6136 L 20.2145 61.5543 L 20.2641 61.4959 L 20.3001 61.4575 L 20.3167 61.4495 L 20.3887 61.3841 L 20.4585 61.3295 L 20.4814 61.3227 L 20.5776 61.2616 L 20.6055 61.2556 L 20.6527 61.2304 L 20.6835 61.2249 L 20.7176 61.2085 L 20.7509 61.2033 L 20.7689 61.1953 L 20.8039 61.1903 L 20.8228 61.1824 L 20.9354 61.1685 L 20.9935 61.1673 L 20.9944 61.1617 L 21.2624 61.2063 L 21.531 61.2467 L 21.5302 61.2523 L 21.5851 61.2714 L 21.6878 61.3194 L 21.7034 61.3328 L 21.7351 61.3483 L 21.7498 61.3616 L 21.7798 61.3767 L 21.8072 61.4029 L 21.8348 61.4177 L 21.8719 61.4562 L 21.8965 61.4705 L 21.9692 61.5583 L 21.9889 61.5719 L 22.0384 61.6454 L 22.0866 61.7299 L 22.1 61.7426 L 22.1223 61.7902 L 22.1515 61.8611 L 22.1762 61.9315 L 22.1847 61.9437 L 22.2101 62.0367 L 22.2365 62.1636 L 22.2414 62.1754 L 22.258 62.3013 L 22.2682 62.4378 L 22.271 62.5511 L 22.268 62.7659 L 22.275 62.9008 L 22.2922 63.0714 L 22.3053 63.1677 L 22.341 63.3773 L 22.3894 63.6039 L 22.4182 63.7215 L 22.4842 63.9612 L 22.5598 64.2024 L 22.6429 64.44 L 22.7309 64.6696 L 22.8213 64.8873 L 22.9112 65.0897 L 23.0392 65.3589 L 23.1845 65.642 L 23.3327 65.9116 L 23.6663 65.9192 L 24 65.9217 L 24.3337 65.9192 L 24.6673 65.9116 L 24.8155 65.642 L 24.9608 65.3589 L 25.0888 65.0897 L 25.1787 64.8873 L 25.2691 64.6696 L 25.3571 64.44 L 25.4402 64.2024 L 25.5158 63.9612 L 25.5818 63.7215 L 25.6106 63.6039 L 25.659 63.3773 L 25.6947 63.1677 L 25.7078 63.0714 L 25.725 62.9008 L 25.732 62.7659 L 25.729 62.5511 L 25.7318 62.4378 L 25.742 62.3013 L 25.7586 62.1754 L 25.7635 62.1636 L 25.7899 62.0367 L 25.8153 61.9437 L 25.8238 61.9315 L 25.8485 61.8611 L 25.8777 61.7902 L 25.9 61.7426 L 25.9134 61.7299 L 25.9616 61.6454 L 26.0111 61.5719 L 26.0308 61.5583 L 26.1035 61.4705 L 26.1281 61.4562 L 26.1652 61.4177 L 26.1928 61.4029 L 26.2202 61.3767 L 26.2502 61.3616 L 26.2649 61.3483 L 26.2966 61.3328 L 26.3122 61.3194 L 26.4149 61.2714 L 26.4698 61.2523 L 26.469 61.2467 L 26.7376 61.2063 L 27.0056 61.1617 L 27.0065 61.1673 L 27.0646 61.1685 L 27.1772 61.1824 L 27.1961 61.1903 L 27.2311 61.1953 L 27.2491 61.2033 L 27.2824 61.2085 L 27.3165 61.2249 L 27.3473 61.2304 L 27.3945 61.2556 L 27.4224 61.2616 L 27.5186 61.3227 L 27.5415 61.3295 L 27.6113 61.3841 L 27.6833 61.4495 L 27.6999 61.4575 L 27.7359 61.4959 L 27.7855 61.5543 L 27.8308 61.6136 L 27.8426 61.6226 L 27.8956 61.7031 L 27.9598 61.8157 L 27.9682 61.8254 L 28.0229 61.94 L 28.0748 62.0667 L 28.1124 62.1736 L 28.1759 62.3788 L 28.2243 62.5049 L 28.2934 62.6619 L 28.3356 62.7494 L 28.4343 62.9378 L 28.5504 63.1383 L 28.6141 63.2412 L 28.7509 63.4488 L 28.8973 63.6548 L 29.0498 63.8552 L 29.2045 64.0463 L 29.3577 64.2254 L 29.5057 64.3902 L 29.7107 64.6065 L 29.9363 64.8309 L 30.1606 65.0416 L 30.4802 64.9457 L 30.7984 64.845 L 31.1149 64.7395 L 31.4299 64.6292 L 31.4875 64.3269 L 31.5382 64.0128 L 31.5768 63.7172 L 31.5997 63.4969 L 31.6184 63.262 L 31.6312 63.0164 L 31.6368 62.7647 L 31.6342 62.512 L 31.6228 62.2636 L 31.6139 62.1429 L 31.5899 61.9125 L 31.5591 61.702 L 31.5417 61.6064 L 31.5054 61.4388 L 31.4704 61.3084 L 31.4012 61.105 L 31.3688 60.9964 L 31.3363 60.8634 L 31.3132 60.7385 L 31.3142 60.7258 L 31.3001 60.597 L 31.2956 60.5006 L 31.2999 60.4865 L 31.3016 60.4119 L 31.3075 60.3354 L 31.314 60.2833 L 31.3227 60.267 L 31.3425 60.1718 L 31.3669 60.0866 L 31.3814 60.0676 L 31.4234 59.9616 L 31.4424 59.9404 L 31.4657 59.8923 L 31.4874 59.8697 L 31.5054 59.8364 L 31.5292 59.8126 L 31.5391 59.7955 L 31.5645 59.771 L 31.5752 59.7534 L 31.658 59.676 L 31.7043 59.6409 L 31.7018 59.6358 L 31.9448 59.5144 L 32.1859 59.3892 L 32.1885 59.3941 L 32.2441 59.3773 L 32.3555 59.3558 L 32.376 59.3575 L 32.4107 59.3514 L 32.4304 59.3535 L 32.4636 59.3481 L 32.5012 59.3532 L 32.5322 59.3489 L 32.5848 59.3583 L 32.6132 59.3554 L 32.7236 59.3837 L 32.7475 59.3831 L 32.8307 59.4135 L 32.9194 59.4535 L 32.9377 59.4559 L 32.9837 59.4813 L 33.049 59.5215 L 33.1104 59.564 L 33.1244 59.5688 L 33.1997 59.6291 L 33.2956 59.7163 L 33.3065 59.7229 L 33.3939 59.815 L 33.4824 59.9195 L 33.5512 60.0095 L 33.6751 60.185 L 33.7601 60.29 L 33.8743 60.418 L 33.9415 60.4881 L 34.0936 60.6368 L 34.2659 60.7916 L 34.3583 60.8698 L 34.5525 61.025 L 34.7555 61.1757 L 34.9624 61.3191 L 35.1686 61.4531 L 35.3696 61.5761 L 35.5614 61.687 L 35.8232 61.8294 L 36.107 61.9731 L 36.3855 62.1041 L 36.6598 61.9142 L 36.9313 61.7201 L 37.1997 61.5219 L 37.4652 61.3197 L 37.4266 61.0144 L 37.3777 60.7 L 37.3231 60.407 L 37.2768 60.1904 L 37.222 59.9612 L 37.1583 59.7237 L 37.0858 59.4826 L 37.0052 59.243 L 36.9177 59.0103 L 36.8719 58.8983 L 36.7779 58.6865 L 36.6835 58.4959 L 36.6375 58.4104 L 36.5511 58.2622 L 36.4776 58.1489 L 36.3488 57.9769 L 36.2845 57.8836 L 36.2125 57.7672 L 36.1519 57.6556 L 36.149 57.6431 L 36.0957 57.525 L 36.0617 57.4348 L 36.0614 57.4199 L 36.04 57.3485 L 36.0219 57.274 L 36.012 57.2223 L 36.0153 57.2042 L 36.0047 57.1075 L 36.0016 57.0189 L 36.0095 56.9964 L 36.0166 56.8826 L 36.0281 56.8566 L 36.0355 56.8036 L 36.0492 56.7754 L 36.056 56.7381 L 36.0713 56.7082 L 36.0754 56.6889 L 36.092 56.6577 L 36.0967 56.6377 L 36.1515 56.5384 L 36.1847 56.4907 L 36.1808 56.4867 L 36.3744 56.2961 L 36.565 56.1025 L 36.569 56.1065 L 36.6167 56.0733 L 36.7159 56.0184 L 36.7359 56.0137 L 36.7671 55.9972 L 36.7865 55.993 L 36.8164 55.9777 L 36.8536 55.9709 L 36.8818 55.9572 L 36.9348 55.9499 L 36.9609 55.9384 L 37.0746 55.9312 L 37.0972 55.9233 L 37.1857 55.9264 L 37.2824 55.9371 L 37.3006 55.9338 L 37.3522 55.9437 L 37.4267 55.9617 L 37.4982 55.9831 L 37.513 55.9834 L 37.6032 56.0174 L 37.7214 56.0707 L 37.7338 56.0737 L 37.8454 56.1342 L 37.9619 56.2062 L 38.0551 56.2706 L 38.2272 56.3993 L 38.3404 56.4729 L 38.4886 56.5592 L 38.5742 56.6053 L 38.7648 56.6996 L 38.9765 56.7936 L 39.0886 56.8394 L 39.3213 56.927 L 39.5608 57.0076 L 39.8019 57.08 L 40.0394 57.1437 L 40.2687 57.1986 L 40.4853 57.2449 L 40.7783 57.2994 L 41.0927 57.3483 L 41.398 57.3869 L 41.6002 57.1215 L 41.7984 56.853 L 41.9925 56.5816 L 42.1824 56.3072 L 42.0514 56.0288 L 41.9077 55.7449 L 41.7653 55.4831 L 41.6543 55.2914 L 41.5313 55.0903 L 41.3973 54.8841 L 41.2539 54.6772 L 41.1032 54.4743 L 40.9481 54.28 L 40.8699 54.1876 L 40.7151 54.0153 L 40.5664 53.8632 L 40.4962 53.796 L 40.3683 53.6818 L 40.2633 53.5968 L 40.0877 53.473 L 39.9977 53.4042 L 39.8932 53.3157 L 39.8011 53.2282 L 39.7945 53.2173 L 39.7073 53.1214 L 39.6471 53.0461 L 39.6422 53.0321 L 39.5998 52.9708 L 39.5596 52.9055 L 39.5342 52.8594 L 39.5317 52.8411 L 39.4918 52.7524 L 39.4614 52.6692 L 39.462 52.6453 L 39.4336 52.5349 L 39.4365 52.5066 L 39.4271 52.4539 L 39.4314 52.4229 L 39.4264 52.3854 L 39.4317 52.3522 L 39.4297 52.3325 L 39.4358 52.2977 L 39.434 52.2773 L 39.4556 52.1659 L 39.4724 52.1103 L 39.4674 52.1077 L 39.5926 51.8666 L 39.7141 51.6236 L 39.7191 51.6261 L 39.7542 51.5798 L 39.8317 51.4969 L 39.8492 51.4863 L 39.8738 51.4609 L 39.8909 51.451 L 39.9146 51.4272 L 39.9479 51.4092 L 39.9705 51.3875 L 40.0187 51.3641 L 40.0399 51.3451 L 40.1458 51.3032 L 40.1648 51.2887 L 40.25 51.2643 L 40.3453 51.2445 L 40.3615 51.2357 L 40.4137 51.2292 L 40.4902 51.2234 L 40.5647 51.2216 L 40.5789 51.2173 L 40.6752 51.2218 L 40.8041 51.236 L 40.8168 51.2349 L 40.9417 51.258 L 41.0747 51.2905 L 41.1832 51.3229 L 41.3866 51.3922 L 41.5171 51.4271 L 41.6847 51.4635 L 41.7803 51.4808 L 41.9907 51.5117 L 42.2212 51.5356 L 42.3418 51.5446 L 42.5902 51.5559 L 42.843 51.5585 L 43.0947 51.5529 L 43.3402 51.5401 L 43.5752 51.5215 L 43.7955 51.4986 L 44.091 51.4599 L 44.4051 51.4093 L 44.7074 51.3516 L 44.8177 51.0367 L 44.9232 50.7201 L 45.0239 50.402 L 45.1198 50.0824 L 44.9092 49.858 L 44.6848 49.6324 L 44.4684 49.4275 L 44.3037 49.2794 L 44.1246 49.1262 L 43.9334 48.9715 L 43.7331 48.8191 L 43.527 48.6726 L 43.3194 48.5358 L 43.2166 48.4721 L 43.016 48.356 L 42.8277 48.2573 L 42.7402 48.2152 L 42.5832 48.146 L 42.4571 48.0977 L 42.2518 48.0341 L 42.145 47.9965 L 42.0182 47.9446 L 41.9036 47.8899 L 41.894 47.8816 L 41.7814 47.8173 L 41.7008 47.7643 L 41.6919 47.7525 L 41.6326 47.7073 L 41.5742 47.6576 L 41.5358 47.6217 L 41.5278 47.605 L 41.4624 47.533 L 41.4078 47.4632 L 41.4009 47.4403 L 41.3399 47.3441 L 41.3339 47.3163 L 41.3087 47.2691 L 41.3032 47.2383 L 41.2868 47.2041 L 41.2816 47.1709 L 41.2735 47.1528 L 41.2686 47.1178 L 41.2606 47.0989 L 41.2467 46.9864 L 41.2455 46.9283 L 41.24 46.9273 L 41.2845 46.6593 L 41.325 46.3907 L 41.3305 46.3915 L 41.3496 46.3367 L 41.3977 46.2339 L 41.4111 46.2184 L 41.4266 46.1866 L 41.4398 46.1719 L 41.455 46.1419 L 41.4811 46.1145 L 41.4959 46.0869 L 41.5345 46.0498 L 41.5488 46.0252 L 41.6366 45.9526 L 41.6502 45.9329 L 41.7236 45.8834 L 41.8081 45.8351 L 41.8209 45.8218 L 41.8685 45.7994 L 41.9394 45.7703 L 42.0098 45.7456 L 42.0219 45.7371 L 42.1149 45.7116 L 42.2418 45.6852 L 42.2536 45.6803 L 42.3795 45.6637 L 42.5161 45.6535 L 42.6293 45.6508 L 42.8442 45.6538 L 42.979 45.6467 L 43.1497 45.6295 L 43.2459 45.6164 L 43.4556 45.5808 L 43.6822 45.5323 L 43.7997 45.5035 L 44.0394 45.4376 L 44.2806 45.362 L 44.5183 45.2789 L 44.7479 45.1908 L 44.9656 45.1005 L 45.168 45.0106 L 45.4371 44.8825 L 45.7202 44.7373 L 45.9899 44.589 L 45.9975 44.2554 L 46 43.9217 L 45.9975 43.5881 L 45.9899 43.2545 L 45.7202 43.1062 L 45.4371 42.961 L 45.168 42.8329 L 44.9656 42.743 L 44.7479 42.6527 L 44.5183 42.5646 L 44.2806 42.4815 L 44.0394 42.4059 L 43.7997 42.34 L 43.6822 42.3112 L 43.4556 42.2627 L 43.2459 42.2271 L 43.1497 42.214 L 42.979 42.1968 L 42.8442 42.1897 L 42.6293 42.1927 L 42.5161 42.19 L 42.3795 42.1798 L 42.2536 42.1632 L 42.2418 42.1582 L 42.1149 42.1319 L 42.0219 42.1064 L 42.0098 42.0979 L 41.9394 42.0732 L 41.8685 42.0441 L 41.8209 42.0217 L 41.8081 42.0084 L 41.7236 41.9601 L 41.6502 41.9106 L 41.6366 41.8909 L 41.5488 41.8183 L 41.5345 41.7937 L 41.4959 41.7566 L 41.4811 41.729 L 41.455 41.7016 L 41.4398 41.6716 L 41.4266 41.6568 L 41.4111 41.6251 L 41.3977 41.6096 L 41.3496 41.5068 L 41.3305 41.452 L 41.325 41.4528 L 41.2845 41.1841 Z"/>
    <path d="M 46.5009 44.1877 L 46.4953 44.1878 L 46.4846 44.255 L 46.4191 44.4357 L 46.4081 44.4491 L 46.3863 44.4996 L 46.3752 44.5116 L 46.3644 44.5347 L 46.3422 44.5568 L 46.3313 44.5777 L 46.3203 44.5879 L 46.3094 44.6073 L 46.2983 44.6167 L 46.2874 44.6347 L 46.2652 44.652 L 46.2543 44.6682 L 46.2432 44.6762 L 46.2322 44.6913 L 46.2211 44.6986 L 46.2101 44.7126 L 46.1879 44.7262 L 46.177 44.7389 L 46.1327 44.7738 L 46.033 44.8392 L 45.9218 44.895 L 45.777 44.9512 L 45.6765 44.9807 L 45.4853 45.0272 L 45.2485 45.0913 L 45.0012 45.1653 L 44.7474 45.2483 L 44.3633 45.3864 L 43.9853 45.5363 L 43.7418 45.6398 L 43.5081 45.7442 L 43.0794 45.948 L 42.7991 46.0898 L 42.5599 46.2159 L 42.3119 46.3518 L 42.0783 46.4844 L 42.1295 47.217 L 42.1935 47.9486 L 42.445 48.0431 L 42.7112 48.1385 L 42.9672 48.2257 L 43.2662 48.3218 L 43.7215 48.4561 L 43.9687 48.5226 L 44.2254 48.5868 L 44.6222 48.6757 L 45.0232 48.752 L 45.2868 48.7942 L 45.5426 48.8287 L 45.7865 48.8549 L 45.9827 48.8709 L 46.0865 48.8843 L 46.2384 48.9172 L 46.3569 48.9549 L 46.4656 49.004 L 46.5148 49.0315 L 46.5276 49.0423 L 46.5517 49.0522 L 46.5647 49.0643 L 46.5768 49.0699 L 46.59 49.0831 L 46.6022 49.0892 L 46.6155 49.1035 L 46.6401 49.1171 L 46.6537 49.1332 L 46.6662 49.1408 L 46.68 49.1582 L 46.6925 49.1665 L 46.7065 49.1855 L 46.7318 49.2039 L 46.7462 49.2249 L 46.759 49.2351 L 46.7884 49.2815 L 46.8014 49.2931 L 46.8944 49.4613 L 46.9154 49.526 L 46.921 49.5252 L 46.9617 49.788 L 47.0042 50.0506 L 46.9987 50.0515 L 46.9986 50.1196 L 46.9622 50.3083 L 46.9534 50.3233 L 46.9398 50.3766 L 46.9308 50.3902 L 46.9236 50.4146 L 46.9052 50.44 L 46.8977 50.4623 L 46.8884 50.4741 L 46.8806 50.4949 L 46.8712 50.506 L 46.8632 50.5255 L 46.844 50.546 L 46.8357 50.5638 L 46.826 50.5734 L 46.8176 50.59 L 46.8078 50.599 L 46.7991 50.6145 L 46.7793 50.6314 L 46.7704 50.6456 L 46.7322 50.687 L 46.6439 50.7673 L 46.5429 50.8398 L 46.4086 50.918 L 46.314 50.9628 L 46.1324 51.0386 L 45.9086 51.139 L 45.6758 51.2508 L 45.4382 51.3724 L 45.0804 51.5689 L 44.7306 51.7761 L 44.5062 51.9164 L 44.2917 52.0561 L 43.9001 52.3245 L 43.6455 52.5083 L 43.429 52.6703 L 43.2053 52.8433 L 42.9953 53.0109 L 43.1605 53.7265 L 43.3381 54.439 L 43.6013 54.493 L 43.8792 54.5455 L 44.1456 54.5916 L 44.456 54.6398 L 44.9268 54.7012 L 45.1813 54.7282 L 45.4449 54.7515 L 45.8507 54.7772 L 46.2587 54.7899 L 46.5256 54.7903 L 46.7837 54.7843 L 47.0287 54.7721 L 47.225 54.7572 L 47.3296 54.7542 L 47.4847 54.7629 L 47.6077 54.7816 L 47.7228 54.8131 L 47.7756 54.8326 L 47.79 54.8413 L 47.8153 54.8473 L 47.8301 54.8572 L 47.8429 54.8608 L 47.858 54.8717 L 47.871 54.8759 L 47.8864 54.8879 L 47.9128 54.8975 L 47.9288 54.9113 L 47.9422 54.9168 L 47.9586 54.9319 L 47.9723 54.9382 L 47.9891 54.9547 L 48.017 54.9689 L 48.0344 54.9874 L 48.0487 54.9954 L 48.085 55.0367 L 48.0997 55.0461 L 48.2178 55.1977 L 48.2487 55.2583 L 48.2541 55.2566 L 48.3354 55.5099 L 48.4185 55.7625 L 48.4131 55.7643 L 48.4237 55.8315 L 48.4173 56.0237 L 48.4109 56.0398 L 48.4058 56.0946 L 48.399 56.1095 L 48.3958 56.1347 L 48.3816 56.1626 L 48.3777 56.1859 L 48.3703 56.1989 L 48.3659 56.2208 L 48.3583 56.2332 L 48.3535 56.2536 L 48.3377 56.2769 L 48.3323 56.2958 L 48.3242 56.3068 L 48.3185 56.3245 L 48.3102 56.3349 L 48.3041 56.3516 L 48.2872 56.3714 L 48.2806 56.3868 L 48.2494 56.4337 L 48.1747 56.5268 L 48.0863 56.6142 L 47.9659 56.7124 L 47.8794 56.7715 L 47.7119 56.8748 L 47.5065 57.0089 L 47.2942 57.1558 L 47.0785 57.313 L 46.7559 57.5631 L 46.4427 57.8225 L 46.2431 57.9962 L 46.0531 58.1677 L 45.7083 58.494 L 45.4855 58.7155 L 45.2971 58.9093 L 45.1032 59.1152 L 44.922 59.3135 L 45.1971 59.9944 L 45.484 60.6705 L 45.7524 60.6826 L 46.0351 60.691 L 46.3054 60.6949 L 46.6195 60.6939 L 47.0941 60.6809 L 47.3497 60.6678 L 47.6137 60.6495 L 48.0185 60.6114 L 48.4235 60.5601 L 48.6872 60.5188 L 48.9412 60.4725 L 49.1812 60.4221 L 49.3728 60.3767 L 49.4757 60.3574 L 49.6302 60.3417 L 49.7546 60.3409 L 49.8732 60.354 L 49.9285 60.365 L 49.944 60.3713 L 49.9699 60.3733 L 49.9861 60.3808 L 49.9993 60.3823 L 50.0159 60.3908 L 50.0294 60.3928 L 50.0465 60.4023 L 50.0741 60.4077 L 50.092 60.4188 L 50.1062 60.4221 L 50.1247 60.4345 L 50.1392 60.4385 L 50.1584 60.4522 L 50.1881 60.4618 L 50.2083 60.4774 L 50.2236 60.4831 L 50.2659 60.5182 L 50.2819 60.5252 L 50.4223 60.6565 L 50.4623 60.7115 L 50.4673 60.709 L 50.5873 60.9464 L 50.7088 61.1829 L 50.7039 61.1855 L 50.7248 61.2503 L 50.7485 61.441 L 50.7448 61.458 L 50.7483 61.5129 L 50.7439 61.5286 L 50.7447 61.5541 L 50.735 61.5839 L 50.7348 61.6074 L 50.7295 61.6215 L 50.7286 61.6437 L 50.723 61.6572 L 50.7215 61.6782 L 50.7096 61.7036 L 50.7072 61.7231 L 50.7009 61.7352 L 50.698 61.7536 L 50.6915 61.7652 L 50.688 61.7826 L 50.6744 61.8048 L 50.6704 61.8211 L 50.6468 61.8723 L 50.5876 61.9759 L 50.5139 62.0761 L 50.4104 62.1919 L 50.3343 62.2638 L 50.185 62.3921 L 50.0031 62.5566 L 49.8163 62.7349 L 49.6279 62.924 L 49.3484 63.2214 L 49.0797 63.5266 L 48.9097 63.7294 L 48.7488 63.9285 L 48.4593 64.3048 L 48.274 64.5583 L 48.1181 64.7793 L 47.9588 65.013 L 47.8109 65.2372 L 48.1891 65.8667 L 48.5783 66.4895 L 48.8452 66.4595 L 49.1258 66.4236 L 49.3934 66.3851 L 49.7035 66.335 L 50.1702 66.2479 L 50.4206 66.195 L 50.6785 66.1356 L 51.0724 66.0347 L 51.4643 65.9207 L 51.7183 65.8386 L 51.9619 65.7531 L 52.1911 65.6658 L 52.3732 65.591 L 52.4718 65.5558 L 52.622 65.5161 L 52.7447 65.496 L 52.8639 65.4903 L 52.9202 65.4925 L 52.9366 65.4963 L 52.9625 65.4942 L 52.9796 65.4991 L 52.9929 65.4985 L 53.0106 65.5043 L 53.0243 65.5042 L 53.0427 65.5109 L 53.0708 65.5119 L 53.0902 65.52 L 53.1047 65.5212 L 53.1249 65.5304 L 53.1398 65.5322 L 53.1609 65.5427 L 53.1919 65.5476 L 53.2142 65.5598 L 53.2302 65.563 L 53.2775 65.5911 L 53.2943 65.5954 L 53.4536 65.7032 L 53.5017 65.7512 L 53.5063 65.748 L 53.6619 65.9637 L 53.819 66.1783 L 53.8144 66.1817 L 53.8453 66.2423 L 53.8985 66.427 L 53.8975 66.4444 L 53.9096 66.498 L 53.9077 66.5143 L 53.9124 66.5393 L 53.9075 66.5702 L 53.911 66.5935 L 53.908 66.6082 L 53.9106 66.6303 L 53.9072 66.6445 L 53.9089 66.6655 L 53.9011 66.6925 L 53.9018 66.7121 L 53.8975 66.725 L 53.8975 66.7436 L 53.8929 66.7561 L 53.8922 66.7739 L 53.8822 66.7979 L 53.8808 66.8146 L 53.8655 66.8689 L 53.8233 66.9805 L 53.7662 67.0909 L 53.682 67.2215 L 53.6181 67.3044 L 53.4907 67.4545 L 53.3368 67.6455 L 53.1802 67.8508 L 53.0237 68.067 L 52.7942 68.4045 L 52.5765 68.748 L 52.4403 68.9749 L 52.3126 69.1967 L 52.0855 69.6136 L 51.9421 69.893 L 51.8227 70.1356 L 51.7019 70.3914 L 51.5909 70.636 L 52.0629 71.1986 L 52.5448 71.7528 L 52.8037 71.6814 L 53.0752 71.6021 L 53.3335 71.5222 L 53.6319 71.4242 L 54.0793 71.2652 L 54.3183 71.1737 L 54.5637 71.0747 L 54.937 70.9134 L 55.3063 70.7395 L 55.5443 70.6188 L 55.7716 70.4962 L 55.9843 70.3741 L 56.1524 70.2718 L 56.2443 70.2215 L 56.3864 70.1589 L 56.5045 70.1197 L 56.6213 70.0955 L 56.6773 70.0889 L 56.694 70.0901 L 56.7193 70.084 L 56.737 70.0861 L 56.75 70.0835 L 56.7684 70.0864 L 56.7819 70.0842 L 56.8011 70.0879 L 56.829 70.0845 L 56.8494 70.0895 L 56.864 70.0883 L 56.8854 70.0943 L 56.9004 70.0937 L 56.9229 70.1008 L 56.9542 70.1008 L 56.9782 70.1093 L 56.9945 70.11 L 57.0456 70.1303 L 57.0629 70.132 L 57.237 70.2135 L 57.2921 70.2535 L 57.2961 70.2495 L 57.4835 70.4382 L 57.6722 70.6257 L 57.6683 70.6297 L 57.7082 70.6848 L 57.7897 70.8588 L 57.7914 70.8762 L 57.8117 70.9273 L 57.8124 70.9436 L 57.821 70.9676 L 57.821 70.9989 L 57.8281 71.0213 L 57.8274 71.0364 L 57.8334 71.0578 L 57.8323 71.0723 L 57.8373 71.0927 L 57.8338 71.1206 L 57.8376 71.1399 L 57.8354 71.1533 L 57.8383 71.1717 L 57.8356 71.1848 L 57.8378 71.2024 L 57.8316 71.2277 L 57.8329 71.2445 L 57.8262 71.3004 L 57.802 71.4173 L 57.7629 71.5353 L 57.7002 71.6775 L 57.65 71.7693 L 57.5477 71.9375 L 57.4255 72.1502 L 57.303 72.3774 L 57.1822 72.6155 L 57.0083 72.9848 L 56.847 73.358 L 56.748 73.6035 L 56.6566 73.8425 L 56.4975 74.2898 L 56.3996 74.5882 L 56.3197 74.8465 L 56.2403 75.118 L 56.1689 75.377 L 56.7232 75.8588 L 57.2858 76.3309 L 57.5304 76.2198 L 57.7861 76.099 L 58.0287 75.9797 L 58.3082 75.8362 L 58.7251 75.6092 L 58.9469 75.4815 L 59.1738 75.3453 L 59.5172 75.1276 L 59.8547 74.898 L 60.071 74.7415 L 60.2763 74.5849 L 60.4672 74.431 L 60.6173 74.3037 L 60.7002 74.2397 L 60.8308 74.1556 L 60.9413 74.0984 L 61.0529 74.0562 L 61.1071 74.0409 L 61.1238 74.0395 L 61.1479 74.0295 L 61.1656 74.0289 L 61.1781 74.0242 L 61.1967 74.0242 L 61.2097 74.0199 L 61.2293 74.0206 L 61.2563 74.0129 L 61.2773 74.0146 L 61.2914 74.0112 L 61.3135 74.0138 L 61.3282 74.0108 L 61.3515 74.0142 L 61.3825 74.0093 L 61.4075 74.0141 L 61.4237 74.0122 L 61.4774 74.0243 L 61.4947 74.0232 L 61.6794 74.0765 L 61.7401 74.1073 L 61.7434 74.1028 L 61.9581 74.2599 L 62.1738 74.4155 L 62.1705 74.42 L 62.2186 74.4682 L 62.3263 74.6274 L 62.3307 74.6442 L 62.3587 74.6915 L 62.362 74.7075 L 62.3742 74.7299 L 62.3791 74.7608 L 62.3896 74.7819 L 62.3913 74.7968 L 62.4006 74.8171 L 62.4017 74.8316 L 62.4098 74.851 L 62.4108 74.8791 L 62.4175 74.8975 L 62.4174 74.9111 L 62.4232 74.9288 L 62.4226 74.9421 L 62.4275 74.9592 L 62.4254 74.9852 L 62.4292 75.0015 L 62.4315 75.0578 L 62.4258 75.177 L 62.4056 75.2997 L 62.3659 75.4499 L 62.3307 75.5485 L 62.256 75.7306 L 62.1686 75.9598 L 62.0831 76.2034 L 62.0011 76.4574 L 61.8871 76.8494 L 61.7862 77.2433 L 61.7268 77.5012 L 61.6738 77.7516 L 61.5867 78.2183 L 61.5367 78.5283 L 61.4982 78.796 L 61.4623 79.0765 L 61.4323 79.3434 L 62.0551 79.7326 L 62.6846 80.1109 L 62.9088 79.9629 L 63.1425 79.8036 L 63.3634 79.6478 L 63.617 79.4624 L 63.9933 79.1729 L 64.1923 79.0121 L 64.3952 78.8421 L 64.7003 78.5733 L 64.9978 78.2938 L 65.1869 78.1054 L 65.3651 77.9186 L 65.5297 77.7368 L 65.658 77.5875 L 65.7298 77.5113 L 65.8457 77.4078 L 65.9458 77.3341 L 66.0495 77.2749 L 66.1006 77.2514 L 66.1169 77.2473 L 66.1391 77.2337 L 66.1565 77.2303 L 66.1681 77.2237 L 66.1865 77.2208 L 66.1987 77.2145 L 66.2181 77.2122 L 66.2436 77.2003 L 66.2646 77.1987 L 66.278 77.1931 L 66.3002 77.1922 L 66.3143 77.187 L 66.3379 77.1868 L 66.3677 77.1771 L 66.3931 77.1778 L 66.4088 77.1734 L 66.4637 77.177 L 66.4807 77.1732 L 66.6715 77.1969 L 66.7362 77.2179 L 66.7388 77.2129 L 66.9754 77.3345 L 67.2128 77.4544 L 67.2102 77.4594 L 67.2653 77.4995 L 67.3966 77.6399 L 67.4035 77.6558 L 67.4386 77.6981 L 67.4443 77.7135 L 67.4599 77.7336 L 67.4696 77.7634 L 67.4832 77.7826 L 67.4873 77.7971 L 67.4996 77.8156 L 67.503 77.8297 L 67.5141 77.8476 L 67.5194 77.8752 L 67.5289 77.8924 L 67.531 77.9058 L 67.5394 77.9224 L 67.5409 77.9357 L 67.5484 77.9518 L 67.5504 77.9777 L 67.5567 77.9933 L 67.5678 78.0486 L 67.5808 78.1672 L 67.5801 78.2915 L 67.5644 78.4461 L 67.545 78.549 L 67.4997 78.7405 L 67.4493 78.9805 L 67.4029 79.2345 L 67.3616 79.4983 L 67.3103 79.9032 L 67.2723 80.308 L 67.254 80.5721 L 67.2409 80.8277 L 67.2278 81.3022 L 67.2269 81.6163 L 67.2307 81.8867 L 67.2392 82.1694 L 67.2513 82.4377 L 67.9273 82.7247 L 68.6082 82.9998 L 68.8065 82.8186 L 69.0124 82.6247 L 69.2063 82.4362 L 69.4277 82.2134 L 69.7541 81.8687 L 69.9255 81.6787 L 70.0993 81.479 L 70.3586 81.1659 L 70.6087 80.8432 L 70.766 80.6276 L 70.9128 80.4152 L 71.0469 80.2098 L 71.1503 80.0423 L 71.2093 79.9559 L 71.3075 79.8355 L 71.395 79.747 L 71.4881 79.6724 L 71.5349 79.6411 L 71.5504 79.6346 L 71.5701 79.6176 L 71.5868 79.6115 L 71.5973 79.6033 L 71.615 79.5975 L 71.626 79.5894 L 71.6448 79.584 L 71.6681 79.5683 L 71.6886 79.5635 L 71.701 79.5558 L 71.7228 79.5515 L 71.7359 79.5441 L 71.7591 79.5402 L 71.787 79.526 L 71.8123 79.5227 L 71.8271 79.5159 L 71.8819 79.5108 L 71.8981 79.5044 L 72.0902 79.498 L 72.1574 79.5086 L 72.1592 79.5033 L 72.4119 79.5864 L 72.6651 79.6677 L 72.6634 79.673 L 72.724 79.704 L 72.8757 79.8221 L 72.885 79.8368 L 72.9263 79.8731 L 72.9343 79.8873 L 72.9529 79.9048 L 72.9671 79.9327 L 72.9836 79.9495 L 72.9898 79.9631 L 73.0049 79.9795 L 73.0105 79.993 L 73.0242 80.0089 L 73.0338 80.0353 L 73.0459 80.0508 L 73.05 80.0638 L 73.061 80.0788 L 73.0645 80.0917 L 73.0745 80.1064 L 73.0805 80.1317 L 73.0892 80.1461 L 73.1087 80.199 L 73.1401 80.3141 L 73.1588 80.437 L 73.1675 80.5921 L 73.1645 80.6968 L 73.1497 80.8931 L 73.1374 81.138 L 73.1314 81.3961 L 73.1319 81.6631 L 73.1446 82.0711 L 73.1703 82.4769 L 73.1935 82.7405 L 73.2206 82.995 L 73.2819 83.4657 L 73.3301 83.7761 L 73.3762 84.0426 L 73.4288 84.3204 L 73.4827 84.5836 L 74.1953 84.7613 L 74.9109 84.9265 L 75.0784 84.7165 L 75.2514 84.4928 L 75.4134 84.2763 L 75.5973 84.0216 L 75.8657 83.63 L 76.0053 83.4155 L 76.1457 83.1912 L 76.3528 82.8413 L 76.5494 82.4835 L 76.671 82.2459 L 76.7828 82.0132 L 76.8831 81.7894 L 76.959 81.6078 L 77.0038 81.5131 L 77.082 81.3789 L 77.1545 81.2778 L 77.2347 81.1895 L 77.2761 81.1513 L 77.2904 81.1424 L 77.3072 81.1226 L 77.3228 81.114 L 77.3318 81.1042 L 77.3484 81.0957 L 77.358 81.086 L 77.3757 81.0777 L 77.3963 81.0585 L 77.4158 81.0506 L 77.4268 81.0411 L 77.4477 81.0334 L 77.4594 81.024 L 77.4818 81.0165 L 77.5071 80.9981 L 77.5316 80.991 L 77.5452 80.9819 L 77.5985 80.9684 L 77.6134 80.9595 L 77.8022 80.9231 L 77.8702 80.9231 L 77.8712 80.9175 L 78.1337 80.9601 L 78.3966 81.0007 L 78.3957 81.0063 L 78.4604 81.0274 L 78.6287 81.1203 L 78.6402 81.1334 L 78.6867 81.1627 L 78.6968 81.1756 L 78.7179 81.1899 L 78.7363 81.2152 L 78.7552 81.2293 L 78.7635 81.2418 L 78.781 81.2556 L 78.7886 81.268 L 78.8046 81.2816 L 78.8182 81.3062 L 78.8326 81.3196 L 78.8387 81.3318 L 78.8519 81.3449 L 78.8574 81.357 L 78.8695 81.3701 L 78.8794 81.3941 L 78.8902 81.407 L 78.9178 81.4561 L 78.9668 81.5649 L 79.0046 81.6834 L 79.0374 81.8352 L 79.0508 81.9391 L 79.0668 82.1352 L 79.0931 82.3791 L 79.1275 82.635 L 79.1697 82.8986 L 79.2461 83.2995 L 79.335 83.6963 L 79.3992 83.9531 L 79.4657 84.2002 L 79.5999 84.6556 L 79.6961 84.9546 L 79.7833 85.2105 L 79.8787 85.4768 L 79.9731 85.7283 L 80.7047 85.7923 L 81.4373 85.8435 L 81.5699 85.6099 L 81.7058 85.3618 L 81.832 85.1227 L 81.9737 84.8424 L 82.1776 84.4136 L 82.2819 84.18 L 82.3855 83.9364 L 82.5353 83.5584 L 82.6735 83.1743 L 82.7564 82.9206 L 82.8305 82.6732 L 82.8945 82.4365 L 82.941 82.2452 L 82.9705 82.1448 L 83.0267 81.9999 L 83.0825 81.8888 L 83.148 81.789 L 83.1829 81.7448 L 83.1956 81.7338 L 83.2091 81.7116 L 83.2231 81.7006 L 83.2305 81.6895 L 83.2456 81.6786 L 83.2535 81.6675 L 83.2698 81.6566 L 83.2871 81.6344 L 83.305 81.6235 L 83.3145 81.6124 L 83.3339 81.6015 L 83.344 81.5904 L 83.3649 81.5795 L 83.3871 81.5574 L 83.4101 81.5465 L 83.4221 81.5354 L 83.4726 81.5137 L 83.486 81.5026 L 83.6668 81.4371 L 83.734 81.4264 L 83.734 81.4208 L 84 81.4217 L 84.266 81.4208 L 84.266 81.4264 L 84.3332 81.4371 L 84.514 81.5026 L 84.5274 81.5137 L 84.5779 81.5354 L 84.5899 81.5465 L 84.6129 81.5574 L 84.6351 81.5795 L 84.656 81.5904 L 84.6661 81.6015 L 84.6855 81.6124 L 84.695 81.6235 L 84.7129 81.6344 L 84.7302 81.6566 L 84.7465 81.6675 L 84.7544 81.6786 L 84.7695 81.6895 L 84.7769 81.7006 L 84.7909 81.7116 L 84.8044 81.7338 L 84.8171 81.7448 L 84.852 81.789 L 84.9175 81.8888 L 84.9733 81.9999 L 85.0295 82.1448 L 85.059 82.2452 L 85.1055 82.4365 L 85.1695 82.6732 L 85.2436 82.9206 L 85.3265 83.1743 L 85.4647 83.5584 L 85.6145 83.9364 L 85.7181 84.18 L 85.8224 84.4136 L 86.0263 84.8424 L 86.168 85.1227 L 86.2942 85.3618 L 86.4301 85.6099 L 86.5627 85.8435 L 87.2953 85.7923 L 88.0269 85.7283 L 88.1213 85.4768 L 88.2167 85.2105 L 88.3039 84.9546 L 88.4001 84.6556 L 88.5343 84.2002 L 88.6008 83.9531 L 88.665 83.6963 L 88.7539 83.2995 L 88.8303 82.8986 L 88.8725 82.635 L 88.9069 82.3791 L 88.9332 82.1352 L 88.9492 81.9391 L 88.9626 81.8352 L 88.9954 81.6834 L 89.0332 81.5649 L 89.0822 81.4561 L 89.1098 81.407 L 89.1206 81.3941 L 89.1305 81.3701 L 89.1426 81.357 L 89.1481 81.3449 L 89.1613 81.3318 L 89.1674 81.3196 L 89.1818 81.3062 L 89.1954 81.2816 L 89.2114 81.268 L 89.219 81.2556 L 89.2365 81.2418 L 89.2448 81.2293 L 89.2637 81.2152 L 89.2821 81.1899 L 89.3032 81.1756 L 89.3133 81.1627 L 89.3598 81.1334 L 89.3713 81.1203 L 89.5396 81.0274 L 89.6043 81.0063 L 89.6034 81.0007 L 89.8663 80.9601 L 90.1288 80.9175 L 90.1298 80.9231 L 90.1978 80.9231 L 90.3866 80.9595 L 90.4015 80.9684 L 90.4548 80.9819 L 90.4684 80.991 L 90.4929 80.9981 L 90.5182 81.0165 L 90.5406 81.024 L 90.5523 81.0334 L 90.5732 81.0411 L 90.5842 81.0506 L 90.6037 81.0585 L 90.6243 81.0777 L 90.642 81.086 L 90.6516 81.0957 L 90.6682 81.1042 L 90.6772 81.114 L 90.6928 81.1226 L 90.7096 81.1424 L 90.7239 81.1513 L 90.7653 81.1895 L 90.8455 81.2778 L 90.918 81.3789 L 90.9962 81.5131 L 91.041 81.6078 L 91.1169 81.7894 L 91.2172 82.0132 L 91.329 82.2459 L 91.4506 82.4835 L 91.6472 82.8413 L 91.8543 83.1912 L 91.9947 83.4155 L 92.1343 83.63 L 92.4027 84.0216 L 92.5866 84.2763 L 92.7486 84.4928 L 92.9216 84.7165 L 93.0891 84.9265 L 93.8047 84.7613 L 94.5173 84.5836 L 94.5712 84.3204 L 94.6238 84.0426 L 94.6699 83.7761 L 94.7181 83.4657 L 94.7794 82.995 L 94.8065 82.7405 L 94.8297 82.4769 L 94.8554 82.0711 L 94.8681 81.6631 L 94.8686 81.3961 L 94.8626 81.138 L 94.8503 80.8931 L 94.8355 80.6968 L 94.8325 80.5921 L 94.8412 80.437 L 94.8599 80.3141 L 94.8913 80.199 L 94.9108 80.1461 L 94.9195 80.1317 L 94.9255 80.1064 L 94.9355 80.0917 L 94.939 80.0788 L 94.95 80.0638 L 94.9541 80.0508 L 94.9662 80.0353 L 94.9758 80.0089 L 94.9895 79.993 L 94.9951 79.9795 L 95.0102 79.9631 L 95.0164 79.9495 L 95.0329 79.9327 L 95.0471 79.9048 L 95.0657 79.8873 L 95.0737 79.8731 L 95.115 79.8368 L 95.1243 79.8221 L 95.276 79.704 L 95.3366 79.673 L 95.3349 79.6677 L 95.5881 79.5864 L 95.8408 79.5033 L 95.8426 79.5086 L 95.9098 79.498 L 96.1019 79.5044 L 96.1181 79.5108 L 96.1729 79.5159 L 96.1877 79.5227 L 96.213 79.526 L 96.2409 79.5402 L 96.2641 79.5441 L 96.2772 79.5515 L 96.299 79.5558 L 96.3114 79.5635 L 96.3319 79.5683 L 96.3552 79.584 L 96.374 79.5894 L 96.385 79.5975 L 96.4027 79.6033 L 96.4132 79.6115 L 96.4299 79.6176 L 96.4496 79.6346 L 96.4651 79.6411 L 96.5119 79.6724 L 96.605 79.747 L 96.6925 79.8355 L 96.7907 79.9559 L 96.8497 80.0423 L 96.9531 80.2098 L 97.0872 80.4152 L 97.234 80.6276 L 97.3913 80.8432 L 97.6414 81.1659 L 97.9007 81.479 L 98.0745 81.6787 L 98.2459 81.8687 L 98.5723 82.2134 L 98.7937 82.4362 L 98.9876 82.6247 L 99.1935 82.8186 L 99.3918 82.9998 L 100.0727 82.7247 L 100.7487 82.4377 L 100.7608 82.1694 L 100.7693 81.8867 L 100.7731 81.6163 L 100.7722 81.3022 L 100.7591 80.8277 L 100.746 80.5721 L 100.7277 80.308 L 100.6897 79.9032 L 100.6384 79.4983 L 100.5971 79.2345 L 100.5507 78.9805 L 100.5003 78.7405 L 100.455 78.549 L 100.4356 78.4461 L 100.4199 78.2915 L 100.4192 78.1672 L 100.4322 78.0486 L 100.4433 77.9933 L 100.4496 77.9777 L 100.4516 77.9518 L 100.4591 77.9357 L 100.4606 77.9224 L 100.469 77.9058 L 100.4711 77.8924 L 100.4806 77.8752 L 100.4859 77.8476 L 100.497 77.8297 L 100.5004 77.8156 L 100.5127 77.7971 L 100.5168 77.7826 L 100.5304 77.7634 L 100.5401 77.7336 L 100.5557 77.7135 L 100.5614 77.6981 L 100.5965 77.6558 L 100.6034 77.6399 L 100.7347 77.4995 L 100.7898 77.4594 L 100.7872 77.4544 L 101.0246 77.3345 L 101.2612 77.2129 L 101.2638 77.2179 L 101.3285 77.1969 L 101.5193 77.1732 L 101.5363 77.177 L 101.5912 77.1734 L 101.6069 77.1778 L 101.6323 77.1771 L 101.6621 77.1868 L 101.6857 77.187 L 101.6998 77.1922 L 101.722 77.1931 L 101.7354 77.1987 L 101.7564 77.2003 L 101.7819 77.2122 L 101.8013 77.2145 L 101.8135 77.2208 L 101.8319 77.2237 L 101.8435 77.2303 L 101.8609 77.2337 L 101.8831 77.2473 L 101.8994 77.2514 L 101.9505 77.2749 L 102.0542 77.3341 L 102.1543 77.4078 L 102.2702 77.5113 L 102.342 77.5875 L 102.4703 77.7368 L 102.6349 77.9186 L 102.8131 78.1054 L 103.0022 78.2938 L 103.2997 78.5733 L 103.6048 78.8421 L 103.8077 79.0121 L 104.0067 79.1729 L 104.383 79.4624 L 104.6366 79.6478 L 104.8575 79.8036 L 105.0912 79.9629 L 105.3154 80.1109 L 105.9449 79.7326 L 106.5677 79.3434 L 106.5377 79.0765 L 106.5018 78.796 L 106.4633 78.5283 L 106.4133 78.2183 L 106.3262 77.7516 L 106.2732 77.5012 L 106.2138 77.2433 L 106.1129 76.8494 L 105.9989 76.4574 L 105.9169 76.2034 L 105.8314 75.9598 L 105.744 75.7306 L 105.6693 75.5485 L 105.6341 75.4499 L 105.5944 75.2997 L 105.5742 75.177 L 105.5685 75.0578 L 105.5708 75.0015 L 105.5746 74.9852 L 105.5725 74.9592 L 105.5774 74.9421 L 105.5768 74.9288 L 105.5826 74.9111 L 105.5825 74.8975 L 105.5892 74.8791 L 105.5902 74.851 L 105.5983 74.8316 L 105.5994 74.8171 L 105.6087 74.7968 L 105.6104 74.7819 L 105.6209 74.7608 L 105.6258 74.7299 L 105.638 74.7075 L 105.6413 74.6915 L 105.6693 74.6442 L 105.6737 74.6274 L 105.7814 74.4682 L 105.8295 74.42 L 105.8262 74.4155 L 106.0419 74.2599 L 106.2566 74.1028 L 106.2599 74.1073 L 106.3206 74.0765 L 106.5053 74.0232 L 106.5226 74.0243 L 106.5763 74.0122 L 106.5925 74.0141 L 106.6175 74.0093 L 106.6485 74.0142 L 106.6718 74.0108 L 106.6865 74.0138 L 106.7086 74.0112 L 106.7227 74.0146 L 106.7437 74.0129 L 106.7707 74.0206 L 106.7903 74.0199 L 106.8033 74.0242 L 106.8219 74.0242 L 106.8344 74.0289 L 106.8521 74.0295 L 106.8762 74.0395 L 106.8929 74.0409 L 106.9471 74.0562 L 107.0587 74.0984 L 107.1692 74.1556 L 107.2998 74.2397 L 107.3827 74.3037 L 107.5328 74.431 L 107.7237 74.5849 L 107.929 74.7415 L 108.1453 74.898 L 108.4828 75.1276 L 108.8262 75.3453 L 109.0531 75.4815 L 109.2749 75.6092 L 109.6918 75.8362 L 109.9713 75.9797 L 110.2139 76.099 L 110.4696 76.2198 L 110.7142 76.3309 L 111.2768 75.8588 L 111.8311 75.377 L 111.7597 75.118 L 111.6803 74.8465 L 111.6004 74.5882 L 111.5025 74.2898 L 111.3434 73.8425 L 111.252 73.6035 L 111.153 73.358 L 110.9917 72.9848 L 110.8178 72.6155 L 110.697 72.3774 L 110.5745 72.1502 L 110.4523 71.9375 L 110.35 71.7693 L 110.2998 71.6775 L 110.2371 71.5353 L 110.198 71.4173 L 110.1738 71.3004 L 110.1671 71.2445 L 110.1684 71.2277 L 110.1622 71.2024 L 110.1644 71.1848 L 110.1617 71.1717 L 110.1646 71.1533 L 110.1624 71.1399 L 110.1662 71.1206 L 110.1627 71.0927 L 110.1677 71.0723 L 110.1666 71.0578 L 110.1726 71.0364 L 110.1719 71.0213 L 110.179 70.9989 L 110.179 70.9676 L 110.1876 70.9436 L 110.1883 70.9273 L 110.2086 70.8762 L 110.2103 70.8588 L 110.2918 70.6848 L 110.3317 70.6297 L 110.3278 70.6257 L 110.5165 70.4382 L 110.7039 70.2495 L 110.7079 70.2535 L 110.763 70.2135 L 110.9371 70.132 L 110.9544 70.1303 L 111.0055 70.11 L 111.0218 70.1093 L 111.0458 70.1008 L 111.0771 70.1008 L 111.0996 70.0937 L 111.1146 70.0943 L 111.136 70.0883 L 111.1506 70.0895 L 111.171 70.0845 L 111.1989 70.0879 L 111.2181 70.0842 L 111.2316 70.0864 L 111.25 70.0835 L 111.263 70.0861 L 111.2807 70.084 L 111.306 70.0901 L 111.3227 70.0889 L 111.3787 70.0955 L 111.4955 70.1197 L 111.6136 70.1589 L 111.7557 70.2215 L 111.8476 70.2718 L 112.0157 70.3741 L 112.2284 70.4962 L 112.4557 70.6188 L 112.6937 70.7395 L 113.063 70.9134 L 113.4363 71.0747 L 113.6817 71.1737 L 113.9207 71.2652 L 114.3681 71.4242 L 114.6665 71.5222 L 114.9248 71.6021 L 115.1963 71.6814 L 115.4552 71.7528 L 115.9371 71.1986 L 116.4091 70.636 L 116.2981 70.3914 L 116.1773 70.1356 L 116.0579 69.893 L 115.9145 69.6136 L 115.6874 69.1967 L 115.5597 68.9749 L 115.4235 68.748 L 115.2058 68.4045 L 114.9763 68.067 L 114.8198 67.8508 L 114.6632 67.6455 L 114.5093 67.4545 L 114.3819 67.3044 L 114.318 67.2215 L 114.2338 67.0909 L 114.1767 66.9805 L 114.1345 66.8689 L 114.1192 66.8146 L 114.1178 66.7979 L 114.1078 66.7739 L 114.1071 66.7561 L 114.1025 66.7436 L 114.1025 66.725 L 114.0982 66.7121 L 114.0989 66.6925 L 114.0911 66.6655 L 114.0928 66.6445 L 114.0894 66.6303 L 114.092 66.6082 L 114.089 66.5935 L 114.0925 66.5702 L 114.0876 66.5393 L 114.0923 66.5143 L 114.0904 66.498 L 114.1025 66.4444 L 114.1015 66.427 L 114.1547 66.2423 L 114.1856 66.1817 L 114.181 66.1783 L 114.3381 65.9637 L 114.4937 65.748 L 114.4983 65.7512 L 114.5464 65.7032 L 114.7057 65.5954 L 114.7225 65.5911 L 114.7698 65.563 L 114.7858 65.5598 L 114.8081 65.5476 L 114.8391 65.5427 L 114.8602 65.5322 L 114.8751 65.5304 L 114.8953 65.5212 L 114.9098 65.52 L 114.9292 65.5119 L 114.9573 65.5109 L 114.9757 65.5042 L 114.9894 65.5043 L 115.0071 65.4985 L 115.0204 65.4991 L 115.0375 65.4942 L 115.0634 65.4963 L 115.0798 65.4925 L 115.1361 65.4903 L 115.2553 65.496 L 115.378 65.5161 L 115.5282 65.5558 L 115.6268 65.591 L 115.8089 65.6658 L 116.0381 65.7531 L 116.2817 65.8386 L 116.5357 65.9207 L 116.9276 66.0347 L 117.3215 66.1356 L 117.5794 66.195 L 117.8298 66.2479 L 118.2965 66.335 L 118.6066 66.3851 L 118.8742 66.4236 L 119.1548 66.4595 L 119.4217 66.4895 L 119.8109 65.8667 L 120.1891 65.2372 L 120.0412 65.013 L 119.8819 64.7793 L 119.726 64.5583 L 119.5407 64.3048 L 119.2512 63.9285 L 119.0903 63.7294 L 118.9203 63.5266 L 118.6516 63.2214 L 118.3721 62.924 L 118.1837 62.7349 L 117.9969 62.5566 L 117.815 62.3921 L 117.6657 62.2638 L 117.5896 62.1919 L 117.4861 62.0761 L 117.4124 61.9759 L 117.3532 61.8723 L 117.3296 61.8211 L 117.3256 61.8048 L 117.312 61.7826 L 117.3085 61.7652 L 117.302 61.7536 L 117.2991 61.7352 L 117.2928 61.7231 L 117.2904 61.7036 L 117.2785 61.6782 L 117.277 61.6572 L 117.2714 61.6437 L 117.2705 61.6215 L 117.2652 61.6074 L 117.265 61.5839 L 117.2553 61.5541 L 117.2561 61.5286 L 117.2517 61.5129 L 117.2552 61.458 L 117.2515 61.441 L 117.2752 61.2503 L 117.2961 61.1855 L 117.2912 61.1829 L 117.4127 60.9464 L 117.5327 60.709 L 117.5377 60.7115 L 117.5777 60.6565 L 117.7181 60.5252 L 117.7341 60.5182 L 117.7764 60.4831 L 117.7917 60.4774 L 117.8119 60.4618 L 117.8416 60.4522 L 117.8608 60.4385 L 117.8753 60.4345 L 117.8938 60.4221 L 117.908 60.4188 L 117.9259 60.4077 L 117.9535 60.4023 L 117.9706 60.3928 L 117.9841 60.3908 L 118.0007 60.3823 L 118.0139 60.3808 L 118.0301 60.3733 L 118.056 60.3713 L 118.0715 60.365 L 118.1268 60.354 L 118.2454 60.3409 L 118.3698 60.3417 L 118.5243 60.3574 L 118.6272 60.3767 L 118.8188 60.4221 L 119.0588 60.4725 L 119.3128 60.5188 L 119.5765 60.5601 L 119.9815 60.6114 L 120.3863 60.6495 L 120.6503 60.6678 L 120.9059 60.6809 L 121.3805 60.6939 L 121.6946 60.6949 L 121.9649 60.691 L 122.2476 60.6826 L 122.516 60.6705 L 122.8029 59.9944 L 123.078 59.3135 L 122.8968 59.1152 L 122.7029 58.9093 L 122.5145 58.7155 L 122.2917 58.494 L 121.9469 58.1677 L 121.7569 57.9962 L 121.5573 57.8225 L 121.2441 57.5631 L 120.9215 57.313 L 120.7058 57.1558 L 120.4935 57.0089 L 120.2881 56.8748 L 120.1206 56.7715 L 120.0341 56.7124 L 119.9137 56.6142 L 119.8253 56.5268 L 119.7506 56.4337 L 119.7194 56.3868 L 119.7128 56.3714 L 119.6959 56.3516 L 119.6898 56.3349 L 119.6815 56.3245 L 119.6758 56.3068 L 119.6677 56.2958 L 119.6623 56.2769 L 119.6465 56.2536 L 119.6417 56.2332 L 119.6341 56.2208 L 119.6297 56.1989 L 119.6223 56.1859 L 119.6184 56.1626 L 119.6042 56.1347 L 119.601 56.1095 L 119.5942 56.0946 L 119.5891 56.0398 L 119.5827 56.0237 L 119.5763 55.8315 L 119.5869 55.7643 L 119.5815 55.7625 L 119.6646 55.5099 L 119.7459 55.2566 L 119.7513 55.2583 L 119.7822 55.1977 L 119.9003 55.0461 L 119.915 55.0367 L 119.9513 54.9954 L 119.9656 54.9874 L 119.983 54.9689 L 120.0109 54.9547 L 120.0277 54.9382 L 120.0414 54.9319 L 120.0578 54.9168 L 120.0712 54.9113 L 120.0872 54.8975 L 120.1136 54.8879 L 120.129 54.8759 L 120.142 54.8717 L 120.1571 54.8608 L 120.1699 54.8572 L 120.1847 54.8473 L 120.21 54.8413 L 120.2244 54.8326 L 120.2772 54.8131 L 120.3923 54.7816 L 120.5153 54.7629 L 120.6704 54.7542 L 120.775 54.7572 L 120.9713 54.7721 L 121.2163 54.7843 L 121.4744 54.7903 L 121.7413 54.7899 L 122.1493 54.7772 L 122.5551 54.7515 L 122.8187 54.7282 L 123.0732 54.7012 L 123.544 54.6398 L 123.8544 54.5916 L 124.1208 54.5455 L 124.3987 54.493 L 124.6619 54.439 L 124.8395 53.7265 L 125.0047 53.0109 L 124.7947 52.8433 L 124.571 52.6703 L 124.3545 52.5083 L 124.0999 52.3245 L 123.7083 52.0561 L 123.4938 51.9164 L 123.2694 51.7761 L 122.9196 51.5689 L 122.5618 51.3724 L 122.3242 51.2508 L 122.0914 51.139 L 121.8676 51.0386 L 121.686 50.9628 L 121.5914 50.918 L 121.4571 50.8398 L 121.3561 50.7673 L 121.2678 50.687 L 121.2296 50.6456 L 121.2207 50.6314 L 121.2009 50.6145 L 121.1922 50.599 L 121.1824 50.59 L 121.174 50.5734 L 121.1643 50.5638 L 121.156 50.546 L 121.1368 50.5255 L 121.1288 50.506 L 121.1194 50.4949 L 121.1116 50.4741 L 121.1023 50.4623 L 121.0948 50.44 L 121.0764 50.4146 L 121.0692 50.3902 L 121.0602 50.3766 L 121.0466 50.3233 L 121.0378 50.3083 L 121.0014 50.1196 L 121.0013 50.0515 L 120.9958 50.0506 L 121.0383 49.788 L 121.079 49.5252 L 121.0846 49.526 L 121.1056 49.4613 L 121.1986 49.2931 L 121.2116 49.2815 L 121.241 49.2351 L 121.2538 49.2249 L 121.2682 49.2039 L 121.2935 49.1855 L 121.3075 49.1665 L 121.32 49.1582 L 121.3338 49.1408 L 121.3463 49.1332 L 121.3599 49.1171 L 121.3845 49.1035 L 121.3978 49.0892 L 121.41 49.0831 L 121.4232 49.0699 L 121.4353 49.0643 L 121.4483 49.0522 L 121.4724 49.0423 L 121.4852 49.0315 L 121.5344 49.004 L 121.6431 48.9549 L 121.7616 48.9172 L 121.9135 48.8843 L 122.0173 48.8709 L 122.2135 48.8549 L 122.4574 48.8287 L 122.7132 48.7942 L 122.9768 48.752 L 123.3778 48.6757 L 123.7746 48.5868 L 124.0313 48.5226 L 124.2785 48.4561 L 124.7338 48.3218 L 125.0328 48.2257 L 125.2888 48.1385 L 125.555 48.0431 L 125.8065 47.9486 L 125.8705 47.217 L 125.9217 46.4844 L 125.6881 46.3518 L 125.4401 46.2159 L 125.2009 46.0898 L 124.9206 45.948 L 124.4919 45.7442 L 124.2582 45.6398 L 124.0147 45.5363 L 123.6367 45.3864 L 123.2526 45.2483 L 122.9988 45.1653 L 122.7515 45.0913 L 122.5147 45.0272 L 122.3235 44.9807 L 122.223 44.9512 L 122.0782 44.895 L 121.967 44.8392 L 121.8673 44.7738 L 121.823 44.7389 L 121.8121 44.7262 L 121.7899 44.7126 L 121.7789 44.6986 L 121.7678 44.6913 L 121.7568 44.6762 L 121.7457 44.6682 L 121.7348 44.652 L 121.7126 44.6347 L 121.7017 44.6167 L 121.6906 44.6073 L 121.6797 44.5879 L 121.6687 44.5777 L 121.6578 44.5568 L 121.6356 44.5347 L 121.6248 44.5116 L 121.6137 44.4996 L 121.5919 44.4491 L 121.5809 44.4357 L 121.5154 44.255 L 121.5047 44.1878 L 121.4991 44.1877 L 121.5 43.9217 L 121.4991 43.6558 L 121.5047 43.6557 L 121.5154 43.5885 L 121.5809 43.4078 L 121.5919 43.3944 L 121.6137 43.3439 L 121.6248 43.3319 L 121.6356 43.3088 L 121.6578 43.2867 L 121.6687 43.2658 L 121.6797 43.2556 L 121.6906 43.2362 L 121.7017 43.2268 L 121.7126 43.2088 L 121.7348 43.1915 L 121.7457 43.1752 L 121.7568 43.1673 L 121.7678 43.1522 L 121.7789 43.1449 L 121.7899 43.1309 L 121.8121 43.1173 L 121.823 43.1046 L 121.8673 43.0697 L 121.967 43.0043 L 122.0782 42.9485 L 122.223 42.8923 L 122.3235 42.8628 L 122.5147 42.8163 L 122.7515 42.7522 L 122.9988 42.6782 L 123.2526 42.5952 L 123.6367 42.4571 L 124.0147 42.3072 L 124.2582 42.2037 L 124.4919 42.0993 L 124.9206 41.8955 L 125.2009 41.7537 L 125.4401 41.6276 L 125.6881 41.4917 L 125.9217 41.3591 L 125.8705 40.6265 L 125.8065 39.8949 L 125.555 39.8004 L 125.2888 39.705 L 125.0328 39.6178 L 124.7338 39.5217 L 124.2785 39.3874 L 124.0313 39.3209 L 123.7746 39.2567 L 123.3778 39.1678 L 122.9768 39.0915 L 122.7132 39.0493 L 122.4574 39.0148 L 122.2135 38.9886 L 122.0173 38.9725 L 121.9135 38.9592 L 121.7616 38.9263 L 121.6431 38.8886 L 121.5344 38.8395 L 121.4852 38.812 L 121.4724 38.8012 L 121.4483 38.7912 L 121.4353 38.7791 L 121.4232 38.7736 L 121.41 38.7604 L 121.3978 38.7543 L 121.3845 38.74 L 121.3599 38.7263 L 121.3463 38.7103 L 121.3338 38.7027 L 121.32 38.6853 L 121.3075 38.6769 L 121.2935 38.658 L 121.2682 38.6396 L 121.2538 38.6186 L 121.241 38.6084 L 121.2116 38.5619 L 121.1986 38.5504 L 121.1056 38.3822 L 121.0846 38.3175 L 121.079 38.3183 L 121.0383 38.0555 L 120.9958 37.7929 L 121.0013 37.792 L 121.0014 37.7239 L 121.0378 37.5352 L 121.0466 37.5202 L 121.0602 37.4669 L 121.0692 37.4533 L 121.0764 37.4289 L 121.0948 37.4035 L 121.1023 37.3812 L 121.1116 37.3694 L 121.1194 37.3486 L 121.1288 37.3375 L 121.1368 37.318 L 121.156 37.2975 L 121.1643 37.2797 L 121.174 37.2701 L 121.1824 37.2535 L 121.1922 37.2445 L 121.2009 37.229 L 121.2207 37.2121 L 121.2296 37.1979 L 121.2678 37.1565 L 121.3561 37.0762 L 121.4571 37.0037 L 121.5914 36.9255 L 121.686 36.8807 L 121.8676 36.8048 L 122.0914 36.7045 L 122.3242 36.5927 L 122.5618 36.4711 L 122.9196 36.2746 L 123.2694 36.0674 L 123.4938 35.927 L 123.7083 35.7874 L 124.0999 35.519 L 124.3545 35.3352 L 124.571 35.1732 L 124.7947 35.0001 L 125.0047 34.8326 L 124.8395 34.117 L 124.6619 33.4045 L 124.3987 33.3505 L 124.1208 33.2979 L 123.8544 33.2519 L 123.544 33.2037 L 123.0732 33.1423 L 122.8187 33.1153 L 122.5551 33.092 L 122.1493 33.0663 L 121.7413 33.0536 L 121.4744 33.0532 L 121.2163 33.0592 L 120.9713 33.0714 L 120.775 33.0863 L 120.6704 33.0893 L 120.5153 33.0806 L 120.3923 33.0619 L 120.2772 33.0304 L 120.2244 33.0109 L 120.21 33.0022 L 120.1847 32.9962 L 120.1699 32.9863 L 120.1571 32.9827 L 120.142 32.9718 L 120.129 32.9676 L 120.1136 32.9556 L 120.0872 32.9459 L 120.0712 32.9322 L 120.0578 32.9267 L 120.0414 32.9116 L 120.0277 32.9053 L 120.0109 32.8888 L 119.983 32.8746 L 119.9656 32.8561 L 119.9513 32.8481 L 119.915 32.8068 L 119.9003 32.7974 L 119.7822 32.6458 L 119.7513 32.5852 L 119.7459 32.5869 L 119.6646 32.3336 L 119.5815 32.0809 L 119.5869 32.0792 L 119.5763 32.0119 L 119.5827 31.8198 L 119.5891 31.8036 L 119.5942 31.7489 L 119.601 31.734 L 119.6042 31.7088 L 119.6184 31.6809 L 119.6223 31.6576 L 119.6297 31.6445 L 119.6341 31.6227 L 119.6417 31.6103 L 119.6465 31.5899 L 119.6623 31.5665 L 119.6677 31.5477 L 119.6758 31.5367 L 119.6815 31.519 L 119.6898 31.5086 L 119.6959 31.4919 L 119.7128 31.4721 L 119.7194 31.4567 L 119.7506 31.4098 L 119.8253 31.3167 L 119.9137 31.2293 L 120.0341 31.1311 L 120.1206 31.072 L 120.2881 30.9687 L 120.4935 30.8346 L 120.7058 30.6877 L 120.9215 30.5304 L 121.2441 30.2804 L 121.5573 30.021 L 121.7569 29.8473 L 121.9469 29.6758 L 122.2917 29.3495 L 122.5145 29.128 L 122.7029 28.9342 L 122.8968 28.7283 L 123.078 28.53 L 122.8029 27.849 L 122.516 27.173 L 122.2476 27.1609 L 121.9649 27.1525 L 121.6946 27.1486 L 121.3805 27.1496 L 120.9059 27.1626 L 120.6503 27.1757 L 120.3863 27.194 L 119.9815 27.2321 L 119.5765 27.2834 L 119.3128 27.3247 L 119.0588 27.371 L 118.8188 27.4214 L 118.6272 27.4668 L 118.5243 27.4861 L 118.3698 27.5018 L 118.2454 27.5025 L 118.1268 27.4895 L 118.0715 27.4785 L 118.056 27.4722 L 118.0301 27.4702 L 118.0139 27.4627 L 118.0007 27.4612 L 117.9841 27.4527 L 117.9706 27.4507 L 117.9535 27.4412 L 117.9259 27.4358 L 117.908 27.4247 L 117.8938 27.4214 L 117.8753 27.409 L 117.8608 27.405 L 117.8416 27.3913 L 117.8119 27.3816 L 117.7917 27.3661 L 117.7764 27.3604 L 117.7341 27.3253 L 117.7181 27.3183 L 117.5777 27.187 L 117.5377 27.132 L 117.5327 27.1345 L 117.4127 26.8971 L 117.2912 26.6605 L 117.2961 26.658 L 117.2752 26.5932 L 117.2515 26.4025 L 117.2552 26.3855 L 117.2517 26.3306 L 117.2561 26.3149 L 117.2553 26.2894 L 117.265 26.2596 L 117.2652 26.2361 L 117.2705 26.222 L 117.2714 26.1998 L 117.277 26.1863 L 117.2785 26.1653 L 117.2904 26.1398 L 117.2928 26.1204 L 117.2991 26.1083 L 117.302 26.0899 L 117.3085 26.0783 L 117.312 26.0608 L 117.3256 26.0387 L 117.3296 26.0224 L 117.3532 25.9712 L 117.4124 25.8676 L 117.4861 25.7674 L 117.5896 25.6516 L 117.6657 25.5797 L 117.815 25.4514 L 117.9969 25.2869 L 118.1837 25.1086 L 118.3721 24.9195 L 118.6516 24.6221 L 118.9203 24.3169 L 119.0903 24.1141 L 119.2512 23.915 L 119.5407 23.5387 L 119.726 23.2852 L 119.8819 23.0642 L 120.0412 22.8305 L 120.1891 22.6063 L 119.8109 21.9768 L 119.4217 21.354 L 119.1548 21.384 L 118.8742 21.4199 L 118.6066 21.4584 L 118.2965 21.5085 L 117.8298 21.5956 L 117.5794 21.6485 L 117.3215 21.7079 L 116.9276 21.8088 L 116.5357 21.9228 L 116.2817 22.0049 L 116.0381 22.0904 L 115.8089 22.1777 L 115.6268 22.2525 L 115.5282 22.2877 L 115.378 22.3274 L 115.2553 22.3475 L 115.1361 22.3532 L 115.0798 22.351 L 115.0634 22.3472 L 115.0375 22.3493 L 115.0204 22.3444 L 115.0071 22.3449 L 114.9894 22.3392 L 114.9757 22.3393 L 114.9573 22.3326 L 114.9292 22.3316 L 114.9098 22.3235 L 114.8953 22.3223 L 114.8751 22.3131 L 114.8602 22.3113 L 114.8391 22.3008 L 114.8081 22.2959 L 114.7858 22.2837 L 114.7698 22.2805 L 114.7225 22.2524 L 114.7057 22.2481 L 114.5464 22.1403 L 114.4983 22.0923 L 114.4937 22.0955 L 114.3381 21.8798 L 114.181 21.6652 L 114.1856 21.6618 L 114.1547 21.6012 L 114.1015 21.4165 L 114.1025 21.3991 L 114.0904 21.3455 L 114.0923 21.3292 L 114.0876 21.3042 L 114.0925 21.2733 L 114.089 21.25 L 114.092 21.2352 L 114.0894 21.2131 L 114.0928 21.199 L 114.0911 21.178 L 114.0989 21.151 L 114.0982 21.1314 L 114.1025 21.1185 L 114.1025 21.0999 L 114.1071 21.0874 L 114.1078 21.0696 L 114.1178 21.0456 L 114.1192 21.0289 L 114.1345 20.9746 L 114.1767 20.863 L 114.2338 20.7525 L 114.318 20.622 L 114.3819 20.539 L 114.5093 20.389 L 114.6632 20.198 L 114.8198 19.9927 L 114.9763 19.7765 L 115.2058 19.439 L 115.4235 19.0955 L 115.5597 18.8686 L 115.6874 18.6468 L 115.9145 18.2299 L 116.0579 17.9505 L 116.1773 17.7078 L 116.2981 17.4521 L 116.4091 17.2075 L 115.9371 16.6449 L 115.4552 16.0907 L 115.1963 16.1621 L 114.9248 16.2414 L 114.6665 16.3213 L 114.3681 16.4193 L 113.9207 16.5783 L 113.6817 16.6698 L 113.4363 16.7687 L 113.063 16.9301 L 112.6937 17.104 L 112.4557 17.2247 L 112.2284 17.3473 L 112.0157 17.4694 L 111.8476 17.5717 L 111.7557 17.6219 L 111.6136 17.6846 L 111.4955 17.7237 L 111.3787 17.748 L 111.3227 17.7546 L 111.306 17.7534 L 111.2807 17.7595 L 111.263 17.7574 L 111.25 17.76 L 111.2316 17.7571 L 111.2181 17.7593 L 111.1989 17.7556 L 111.171 17.759 L 111.1506 17.754 L 111.136 17.7552 L 111.1146 17.7492 L 111.0996 17.7498 L 111.0771 17.7427 L 111.0458 17.7427 L 111.0218 17.7341 L 111.0055 17.7335 L 110.9544 17.7131 L 110.9371 17.7115 L 110.763 17.63 L 110.7079 17.59 L 110.7039 17.594 L 110.5165 17.4052 L 110.3278 17.2178 L 110.3317 17.2138 L 110.2918 17.1587 L 110.2103 16.9846 L 110.2086 16.9673 L 110.1883 16.9162 L 110.1876 16.8999 L 110.179 16.8759 L 110.179 16.8446 L 110.1719 16.8221 L 110.1726 16.8071 L 110.1666 16.7857 L 110.1677 16.7712 L 110.1627 16.7508 L 110.1662 16.7228 L 110.1624 16.7036 L 110.1646 16.6902 L 110.1617 16.6718 L 110.1644 16.6587 L 110.1622 16.6411 L 110.1684 16.6158 L 110.1671 16.599 L 110.1738 16.5431 L 110.198 16.4262 L 110.2371 16.3082 L 110.2998 16.166 L 110.35 16.0741 L 110.4523 15.906 L 110.5745 15.6933 L 110.697 15.4661 L 110.8178 15.228 L 110.9917 14.8587 L 111.153 14.4855 L 111.252 14.24 L 111.3434 14.001 L 111.5025 13.5537 L 111.6004 13.2553 L 111.6803 12.9969 L 111.7597 12.7255 L 111.8311 12.4665 L 111.2768 11.9847 L 110.7142 11.5126 L 110.4696 11.6237 L 110.2139 11.7445 L 109.9713 11.8638 L 109.6918 12.0073 L 109.2749 12.2343 L 109.0531 12.362 L 108.8262 12.4982 L 108.4828 12.7159 L 108.1453 12.9455 L 107.929 13.102 L 107.7237 13.2586 L 107.5328 13.4124 L 107.3827 13.5398 L 107.2998 13.6038 L 107.1692 13.6879 L 107.0587 13.745 L 106.9471 13.7873 L 106.8929 13.8025 L 106.8762 13.804 L 106.8521 13.814 L 106.8344 13.8146 L 106.8219 13.8193 L 106.8033 13.8193 L 106.7903 13.8236 L 106.7707 13.8229 L 106.7437 13.8306 L 106.7227 13.8289 L 106.7086 13.8323 L 106.6865 13.8297 L 106.6718 13.8327 L 106.6485 13.8292 L 106.6175 13.8341 L 106.5925 13.8294 L 106.5763 13.8313 L 106.5226 13.8192 L 106.5053 13.8203 L 106.3206 13.767 L 106.2599 13.7362 L 106.2566 13.7407 L 106.0419 13.5836 L 105.8262 13.428 L 105.8295 13.4235 L 105.7814 13.3753 L 105.6737 13.2161 L 105.6693 13.1993 L 105.6413 13.152 L 105.638 13.136 L 105.6258 13.1136 L 105.6209 13.0827 L 105.6104 13.0616 L 105.6087 13.0467 L 105.5994 13.0264 L 105.5983 13.0119 L 105.5902 12.9925 L 105.5892 12.9644 L 105.5825 12.946 L 105.5826 12.9324 L 105.5768 12.9147 L 105.5774 12.9013 L 105.5725 12.8843 L 105.5746 12.8583 L 105.5708 12.842 L 105.5685 12.7857 L 105.5742 12.6665 L 105.5944 12.5438 L 105.6341 12.3936 L 105.6693 12.2949 L 105.744 12.1129 L 105.8314 11.8837 L 105.9169 11.6401 L 105.9989 11.386 L 106.1129 10.9941 L 106.2138 10.6002 L 106.2732 10.3423 L 106.3262 10.0919 L 106.4133 9.6252 L 106.4633 9.3151 L 106.5018 9.0475 L 106.5377 8.767 L 106.5677 8.5 L 105.9449 8.1109 L 105.3154 7.7326 L 105.0912 7.8806 L 104.8575 8.0399 L 104.6366 8.1957 L 104.383 8.3811 L 104.0067 8.6706 L 103.8077 8.8314 L 103.6048 9.0014 L 103.2997 9.2702 L 103.0022 9.5497 L 102.8131 9.7381 L 102.6349 9.9249 L 102.4703 10.1067 L 102.342 10.256 L 102.2702 10.3322 L 102.1543 10.4357 L 102.0542 10.5094 L 101.9505 10.5685 L 101.8994 10.5921 L 101.8831 10.5961 L 101.8609 10.6098 L 101.8435 10.6132 L 101.8319 10.6198 L 101.8135 10.6227 L 101.8013 10.6289 L 101.7819 10.6313 L 101.7564 10.6432 L 101.7354 10.6448 L 101.722 10.6504 L 101.6998 10.6513 L 101.6857 10.6565 L 101.6621 10.6567 L 101.6323 10.6664 L 101.6069 10.6657 L 101.5912 10.6701 L 101.5363 10.6665 L 101.5193 10.6703 L 101.3285 10.6466 L 101.2638 10.6256 L 101.2612 10.6306 L 101.0246 10.509 L 100.7872 10.3891 L 100.7898 10.3841 L 100.7347 10.344 L 100.6034 10.2036 L 100.5965 10.1877 L 100.5614 10.1454 L 100.5557 10.13 L 100.5401 10.1099 L 100.5304 10.0801 L 100.5168 10.0609 L 100.5127 10.0464 L 100.5004 10.0279 L 100.497 10.0138 L 100.4859 9.9959 L 100.4806 9.9683 L 100.4711 9.9511 L 100.469 9.9376 L 100.4606 9.9211 L 100.4591 9.9078 L 100.4516 9.8917 L 100.4496 9.8657 L 100.4433 9.8502 L 100.4322 9.7949 L 100.4192 9.6763 L 100.4199 9.552 L 100.4356 9.3974 L 100.455 9.2945 L 100.5003 9.103 L 100.5507 8.8629 L 100.5971 8.6089 L 100.6384 8.3452 L 100.6897 7.9403 L 100.7277 7.5354 L 100.746 7.2714 L 100.7591 7.0158 L 100.7722 6.5413 L 100.7731 6.2272 L 100.7693 5.9568 L 100.7608 5.6741 L 100.7487 5.4058 L 100.0727 5.1188 L 99.3918 4.8437 L 99.1935 5.0249 L 98.9876 5.2188 L 98.7937 5.4073 L 98.5723 5.63 L 98.2459 5.9748 L 98.0745 6.1648 L 97.9007 6.3645 L 97.6414 6.6776 L 97.3913 7.0003 L 97.234 7.2159 L 97.0872 7.4283 L 96.9531 7.6337 L 96.8497 7.8012 L 96.7907 7.8876 L 96.6925 8.008 L 96.605 8.0965 L 96.5119 8.1711 L 96.4651 8.2024 L 96.4496 8.2089 L 96.4299 8.2259 L 96.4132 8.232 L 96.4027 8.2402 L 96.385 8.246 L 96.374 8.2541 L 96.3552 8.2595 L 96.3319 8.2752 L 96.3114 8.28 L 96.299 8.2877 L 96.2772 8.292 L 96.2641 8.2994 L 96.2409 8.3033 L 96.213 8.3175 L 96.1877 8.3208 L 96.1729 8.3276 L 96.1181 8.3327 L 96.1019 8.339 L 95.9098 8.3455 L 95.8426 8.3349 L 95.8408 8.3402 L 95.5881 8.2571 L 95.3349 8.1758 L 95.3366 8.1705 L 95.276 8.1395 L 95.1243 8.0214 L 95.115 8.0067 L 95.0737 7.9704 L 95.0657 7.9562 L 95.0471 7.9387 L 95.0329 7.9108 L 95.0164 7.894 L 95.0102 7.8803 L 94.9951 7.864 L 94.9895 7.8505 L 94.9758 7.8346 L 94.9662 7.8082 L 94.9541 7.7927 L 94.95 7.7797 L 94.939 7.7647 L 94.9355 7.7518 L 94.9255 7.7371 L 94.9195 7.7117 L 94.9108 7.6974 L 94.8913 7.6445 L 94.8599 7.5294 L 94.8412 7.4065 L 94.8325 7.2514 L 94.8355 7.1467 L 94.8503 6.9504 L 94.8626 6.7055 L 94.8686 6.4474 L 94.8681 6.1804 L 94.8554 5.7724 L 94.8297 5.3666 L 94.8065 5.103 L 94.7794 4.8485 L 94.7181 4.3777 L 94.6699 4.0674 L 94.6238 3.8009 L 94.5712 3.523 L 94.5173 3.2599 L 93.8047 3.0822 L 93.0891 2.917 L 92.9216 3.127 L 92.7486 3.3507 L 92.5866 3.5672 L 92.4027 3.8219 L 92.1343 4.2135 L 91.9947 4.428 L 91.8543 4.6523 L 91.6472 5.0022 L 91.4506 5.36 L 91.329 5.5976 L 91.2172 5.8303 L 91.1169 6.0541 L 91.041 6.2357 L 90.9962 6.3304 L 90.918 6.4646 L 90.8455 6.5657 L 90.7653 6.6539 L 90.7239 6.6922 L 90.7096 6.701 L 90.6928 6.7209 L 90.6772 6.7295 L 90.6682 6.7393 L 90.6516 6.7478 L 90.642 6.7575 L 90.6243 6.7657 L 90.6037 6.7849 L 90.5842 6.7929 L 90.5732 6.8024 L 90.5523 6.8101 L 90.5406 6.8195 L 90.5182 6.8269 L 90.4929 6.8454 L 90.4684 6.8525 L 90.4548 6.8615 L 90.4015 6.8751 L 90.3866 6.884 L 90.1978 6.9204 L 90.1298 6.9204 L 90.1288 6.926 L 89.8663 6.8834 L 89.6034 6.8428 L 89.6043 6.8372 L 89.5396 6.8161 L 89.3713 6.7232 L 89.3598 6.7101 L 89.3133 6.6807 L 89.3032 6.6679 L 89.2821 6.6536 L 89.2637 6.6283 L 89.2448 6.6142 L 89.2365 6.6017 L 89.219 6.5879 L 89.2114 6.5755 L 89.1954 6.5619 L 89.1818 6.5373 L 89.1674 6.5239 L 89.1613 6.5117 L 89.1481 6.4986 L 89.1426 6.4864 L 89.1305 6.4734 L 89.1206 6.4494 L 89.1098 6.4365 L 89.0822 6.3874 L 89.0332 6.2786 L 88.9954 6.1601 L 88.9626 6.0083 L 88.9492 5.9044 L 88.9332 5.7082 L 88.9069 5.4644 L 88.8725 5.2085 L 88.8303 4.9449 L 88.7539 4.544 L 88.665 4.1472 L 88.6008 3.8904 L 88.5343 3.6433 L 88.4001 3.1879 L 88.3039 2.8889 L 88.2167 2.633 L 88.1213 2.3667 L 88.0269 2.1152 L 87.2953 2.0512 L 86.5627 2 L 86.4301 2.2336 L 86.2942 2.4817 L 86.168 2.7208 L 86.0263 3.0011 L 85.8224 3.4299 L 85.7181 3.6635 L 85.6145 3.9071 L 85.4647 4.2851 L 85.3265 4.6692 L 85.2436 4.9229 L 85.1695 5.1703 L 85.1055 5.407 L 85.059 5.5982 L 85.0295 5.6987 L 84.9733 5.8436 L 84.9175 5.9547 L 84.852 6.0545 L 84.8171 6.0987 L 84.8044 6.1097 L 84.7909 6.1319 L 84.7769 6.1429 L 84.7695 6.154 L 84.7544 6.1649 L 84.7465 6.176 L 84.7302 6.1869 L 84.7129 6.2091 L 84.695 6.22 L 84.6855 6.2311 L 84.6661 6.242 L 84.656 6.2531 L 84.6351 6.264 L 84.6129 6.2861 L 84.5899 6.297 L 84.5779 6.3081 L 84.5274 6.3298 L 84.514 6.3409 L 84.3332 6.4064 L 84.266 6.4171 L 84.266 6.4227 L 84 6.4217 L 83.734 6.4227 L 83.734 6.4171 L 83.6668 6.4064 L 83.486 6.3409 L 83.4726 6.3298 L 83.4221 6.3081 L 83.4101 6.297 L 83.3871 6.2861 L 83.3649 6.264 L 83.344 6.2531 L 83.3339 6.242 L 83.3145 6.2311 L 83.305 6.22 L 83.2871 6.2091 L 83.2698 6.1869 L 83.2535 6.176 L 83.2456 6.1649 L 83.2305 6.154 L 83.2231 6.1429 L 83.2091 6.1319 L 83.1956 6.1097 L 83.1829 6.0987 L 83.148 6.0545 L 83.0825 5.9547 L 83.0267 5.8436 L 82.9705 5.6987 L 82.941 5.5982 L 82.8945 5.407 L 82.8305 5.1703 L 82.7564 4.9229 L 82.6735 4.6692 L 82.5353 4.2851 L 82.3855 3.9071 L 82.2819 3.6635 L 82.1776 3.4299 L 81.9737 3.0011 L 81.832 2.7208 L 81.7058 2.4817 L 81.5699 2.2336 L 81.4373 2 L 80.7047 2.0512 L 79.9731 2.1152 L 79.8787 2.3667 L 79.7833 2.633 L 79.6961 2.8889 L 79.5999 3.1879 L 79.4657 3.6433 L 79.3992 3.8904 L 79.335 4.1472 L 79.2461 4.544 L 79.1697 4.9449 L 79.1275 5.2085 L 79.0931 5.4644 L 79.0668 5.7082 L 79.0508 5.9044 L 79.0374 6.0083 L 79.0046 6.1601 L 78.9668 6.2786 L 78.9178 6.3874 L 78.8902 6.4365 L 78.8794 6.4494 L 78.8695 6.4734 L 78.8574 6.4864 L 78.8519 6.4986 L 78.8387 6.5117 L 78.8326 6.5239 L 78.8182 6.5373 L 78.8046 6.5619 L 78.7886 6.5755 L 78.781 6.5879 L 78.7635 6.6017 L 78.7552 6.6142 L 78.7363 6.6283 L 78.7179 6.6536 L 78.6968 6.6679 L 78.6867 6.6807 L 78.6402 6.7101 L 78.6287 6.7232 L 78.4604 6.8161 L 78.3957 6.8372 L 78.3966 6.8428 L 78.1337 6.8834 L 77.8712 6.926 L 77.8702 6.9204 L 77.8022 6.9204 L 77.6134 6.884 L 77.5985 6.8751 L 77.5452 6.8615 L 77.5316 6.8525 L 77.5071 6.8454 L 77.4818 6.8269 L 77.4594 6.8195 L 77.4477 6.8101 L 77.4268 6.8024 L 77.4158 6.7929 L 77.3963 6.7849 L 77.3757 6.7657 L 77.358 6.7575 L 77.3484 6.7478 L 77.3318 6.7393 L 77.3228 6.7295 L 77.3072 6.7209 L 77.2904 6.701 L 77.2761 6.6922 L 77.2347 6.6539 L 77.1545 6.5657 L 77.082 6.4646 L 77.0038 6.3304 L 76.959 6.2357 L 76.8831 6.0541 L 76.7828 5.8303 L 76.671 5.5976 L 76.5494 5.36 L 76.3528 5.0022 L 76.1457 4.6523 L 76.0053 4.428 L 75.8657 4.2135 L 75.5973 3.8219 L 75.4134 3.5672 L 75.2514 3.3507 L 75.0784 3.127 L 74.9109 2.917 L 74.1953 3.0822 L 73.4827 3.2599 L 73.4288 3.523 L 73.3762 3.8009 L 73.3301 4.0674 L 73.2819 4.3777 L 73.2206 4.8485 L 73.1935 5.103 L 73.1703 5.3666 L 73.1446 5.7724 L 73.1319 6.1804 L 73.1314 6.4474 L 73.1374 6.7055 L 73.1497 6.9504 L 73.1645 7.1467 L 73.1675 7.2514 L 73.1588 7.4065 L 73.1401 7.5294 L 73.1087 7.6445 L 73.0892 7.6974 L 73.0805 7.7117 L 73.0745 7.7371 L 73.0645 7.7518 L 73.061 7.7647 L 73.05 7.7797 L 73.0459 7.7927 L 73.0338 7.8082 L 73.0242 7.8346 L 73.0105 7.8505 L 73.0049 7.864 L 72.9898 7.8803 L 72.9836 7.894 L 72.9671 7.9108 L 72.9529 7.9387 L 72.9343 7.9562 L 72.9263 7.9704 L 72.885 8.0067 L 72.8757 8.0214 L 72.724 8.1395 L 72.6634 8.1705 L 72.6651 8.1758 L 72.4119 8.2571 L 72.1592 8.3402 L 72.1574 8.3349 L 72.0902 8.3455 L 71.8981 8.339 L 71.8819 8.3327 L 71.8271 8.3276 L 71.8123 8.3208 L 71.787 8.3175 L 71.7591 8.3033 L 71.7359 8.2994 L 71.7228 8.292 L 71.701 8.2877 L 71.6886 8.28 L 71.6681 8.2752 L 71.6448 8.2595 L 71.626 8.2541 L 71.615 8.246 L 71.5973 8.2402 L 71.5868 8.232 L 71.5701 8.2259 L 71.5504 8.2089 L 71.5349 8.2024 L 71.4881 8.1711 L 71.395 8.0965 L 71.3075 8.008 L 71.2093 7.8876 L 71.1503 7.8012 L 71.0469 7.6337 L 70.9128 7.4283 L 70.766 7.2159 L 70.6087 7.0003 L 70.3586 6.6776 L 70.0993 6.3645 L 69.9255 6.1648 L 69.7541 5.9748 L 69.4277 5.63 L 69.2063 5.4073 L 69.0124 5.2188 L 68.8065 5.0249 L 68.6082 4.8437 L 67.9273 5.1188 L 67.2513 5.4058 L 67.2392 5.6741 L 67.2307 5.9568 L 67.2269 6.2272 L 67.2278 6.5413 L 67.2409 7.0158 L 67.254 7.2714 L 67.2723 7.5354 L 67.3103 7.9403 L 67.3616 8.3452 L 67.4029 8.6089 L 67.4493 8.8629 L 67.4997 9.103 L 67.545 9.2945 L 67.5644 9.3974 L 67.5801 9.552 L 67.5808 9.6763 L 67.5678 9.7949 L 67.5567 9.8502 L 67.5504 9.8657 L 67.5484 9.8917 L 67.5409 9.9078 L 67.5394 9.9211 L 67.531 9.9376 L 67.5289 9.9511 L 67.5194 9.9683 L 67.5141 9.9959 L 67.503 10.0138 L 67.4996 10.0279 L 67.4873 10.0464 L 67.4832 10.0609 L 67.4696 10.0801 L 67.4599 10.1099 L 67.4443 10.13 L 67.4386 10.1454 L 67.4035 10.1877 L 67.3966 10.2036 L 67.2653 10.344 L 67.2102 10.3841 L 67.2128 10.3891 L 66.9754 10.509 L 66.7388 10.6306 L 66.7362 10.6256 L 66.6715 10.6466 L 66.4807 10.6703 L 66.4637 10.6665 L 66.4088 10.6701 L 66.3931 10.6657 L 66.3677 10.6664 L 66.3379 10.6567 L 66.3143 10.6565 L 66.3002 10.6513 L 66.278 10.6504 L 66.2646 10.6448 L 66.2436 10.6432 L 66.2181 10.6313 L 66.1987 10.6289 L 66.1865 10.6227 L 66.1681 10.6198 L 66.1565 10.6132 L 66.1391 10.6098 L 66.1169 10.5961 L 66.1006 10.5921 L 66.0495 10.5685 L 65.9458 10.5094 L 65.8457 10.4357 L 65.7298 10.3322 L 65.658 10.256 L 65.5297 10.1067 L 65.3651 9.9249 L 65.1869 9.7381 L 64.9978 9.5497 L 64.7003 9.2702 L 64.3952 9.0014 L 64.1923 8.8314 L 63.9933 8.6706 L 63.617 8.3811 L 63.3634 8.1957 L 63.1425 8.0399 L 62.9088 7.8806 L 62.6846 7.7326 L 62.0551 8.1109 L 61.4323 8.5 L 61.4623 8.767 L 61.4982 9.0475 L 61.5367 9.3151 L 61.5867 9.6252 L 61.6738 10.0919 L 61.7268 10.3423 L 61.7862 10.6002 L 61.8871 10.9941 L 62.0011 11.386 L 62.0831 11.6401 L 62.1686 11.8837 L 62.256 12.1129 L 62.3307 12.2949 L 62.3659 12.3936 L 62.4056 12.5438 L 62.4258 12.6665 L 62.4315 12.7857 L 62.4292 12.842 L 62.4254 12.8583 L 62.4275 12.8843 L 62.4226 12.9013 L 62.4232 12.9147 L 62.4174 12.9324 L 62.4175 12.946 L 62.4108 12.9644 L 62.4098 12.9925 L 62.4017 13.0119 L 62.4006 13.0264 L 62.3913 13.0467 L 62.3896 13.0616 L 62.3791 13.0827 L 62.3742 13.1136 L 62.362 13.136 L 62.3587 13.152 L 62.3307 13.1993 L 62.3263 13.2161 L 62.2186 13.3753 L 62.1705 13.4235 L 62.1738 13.428 L 61.9581 13.5836 L 61.7434 13.7407 L 61.7401 13.7362 L 61.6794 13.767 L 61.4947 13.8203 L 61.4774 13.8192 L 61.4237 13.8313 L 61.4075 13.8294 L 61.3825 13.8341 L 61.3515 13.8292 L 61.3282 13.8327 L 61.3135 13.8297 L 61.2914 13.8323 L 61.2773 13.8289 L 61.2563 13.8306 L 61.2293 13.8229 L 61.2097 13.8236 L 61.1967 13.8193 L 61.1781 13.8193 L 61.1656 13.8146 L 61.1479 13.814 L 61.1238 13.804 L 61.1071 13.8025 L 61.0529 13.7873 L 60.9413 13.745 L 60.8308 13.6879 L 60.7002 13.6038 L 60.6173 13.5398 L 60.4672 13.4124 L 60.2763 13.2586 L 60.071 13.102 L 59.8547 12.9455 L 59.5172 12.7159 L 59.1738 12.4982 L 58.9469 12.362 L 58.7251 12.2343 L 58.3082 12.0073 L 58.0287 11.8638 L 57.7861 11.7445 L 57.5304 11.6237 L 57.2858 11.5126 L 56.7232 11.9847 L 56.1689 12.4665 L 56.2403 12.7255 L 56.3197 12.9969 L 56.3996 13.2553 L 56.4975 13.5537 L 56.6566 14.001 L 56.748 14.24 L 56.847 14.4855 L 57.0083 14.8587 L 57.1822 15.228 L 57.303 15.4661 L 57.4255 15.6933 L 57.5477 15.906 L 57.65 16.0741 L 57.7002 16.166 L 57.7629 16.3082 L 57.802 16.4262 L 57.8262 16.5431 L 57.8329 16.599 L 57.8316 16.6158 L 57.8378 16.6411 L 57.8356 16.6587 L 57.8383 16.6718 L 57.8354 16.6902 L 57.8376 16.7036 L 57.8338 16.7228 L 57.8373 16.7508 L 57.8323 16.7712 L 57.8334 16.7857 L 57.8274 16.8071 L 57.8281 16.8221 L 57.821 16.8446 L 57.821 16.8759 L 57.8124 16.8999 L 57.8117 16.9162 L 57.7914 16.9673 L 57.7897 16.9846 L 57.7082 17.1587 L 57.6683 17.2138 L 57.6722 17.2178 L 57.4835 17.4052 L 57.2961 17.594 L 57.2921 17.59 L 57.237 17.63 L 57.0629 17.7115 L 57.0456 17.7131 L 56.9945 17.7335 L 56.9782 17.7341 L 56.9542 17.7427 L 56.9229 17.7427 L 56.9004 17.7498 L 56.8854 17.7492 L 56.864 17.7552 L 56.8494 17.754 L 56.829 17.759 L 56.8011 17.7556 L 56.7819 17.7593 L 56.7684 17.7571 L 56.75 17.76 L 56.737 17.7574 L 56.7193 17.7595 L 56.694 17.7534 L 56.6773 17.7546 L 56.6213 17.748 L 56.5045 17.7237 L 56.3864 17.6846 L 56.2443 17.6219 L 56.1524 17.5717 L 55.9843 17.4694 L 55.7716 17.3473 L 55.5443 17.2247 L 55.3063 17.104 L 54.937 16.9301 L 54.5637 16.7687 L 54.3183 16.6698 L 54.0793 16.5783 L 53.6319 16.4193 L 53.3335 16.3213 L 53.0752 16.2414 L 52.8037 16.1621 L 52.5448 16.0907 L 52.0629 16.6449 L 51.5909 17.2075 L 51.7019 17.4521 L 51.8227 17.7078 L 51.9421 17.9505 L 52.0855 18.2299 L 52.3126 18.6468 L 52.4403 18.8686 L 52.5765 19.0955 L 52.7942 19.439 L 53.0237 19.7765 L 53.1802 19.9927 L 53.3368 20.198 L 53.4907 20.389 L 53.6181 20.539 L 53.682 20.622 L 53.7662 20.7525 L 53.8233 20.863 L 53.8655 20.9746 L 53.8808 21.0289 L 53.8822 21.0456 L 53.8922 21.0696 L 53.8929 21.0874 L 53.8975 21.0999 L 53.8975 21.1185 L 53.9018 21.1314 L 53.9011 21.151 L 53.9089 21.178 L 53.9072 21.199 L 53.9106 21.2131 L 53.908 21.2352 L 53.911 21.25 L 53.9075 21.2733 L 53.9124 21.3042 L 53.9077 21.3292 L 53.9096 21.3455 L 53.8975 21.3991 L 53.8985 21.4165 L 53.8453 21.6012 L 53.8144 21.6618 L 53.819 21.6652 L 53.6619 21.8798 L 53.5063 22.0955 L 53.5017 22.0923 L 53.4536 22.1403 L 53.2943 22.2481 L 53.2775 22.2524 L 53.2302 22.2805 L 53.2142 22.2837 L 53.1919 22.2959 L 53.1609 22.3008 L 53.1398 22.3113 L 53.1249 22.3131 L 53.1047 22.3223 L 53.0902 22.3235 L 53.0708 22.3316 L 53.0427 22.3326 L 53.0243 22.3393 L 53.0106 22.3392 L 52.9929 22.3449 L 52.9796 22.3444 L 52.9625 22.3493 L 52.9366 22.3472 L 52.9202 22.351 L 52.8639 22.3532 L 52.7447 22.3475 L 52.622 22.3274 L 52.4718 22.2877 L 52.3732 22.2525 L 52.1911 22.1777 L 51.9619 22.0904 L 51.7183 22.0049 L 51.4643 21.9228 L 51.0724 21.8088 L 50.6785 21.7079 L 50.4206 21.6485 L 50.1702 21.5956 L 49.7035 21.5085 L 49.3934 21.4584 L 49.1258 21.4199 L 48.8452 21.384 L 48.5783 21.354 L 48.1891 21.9768 L 47.8109 22.6063 L 47.9588 22.8305 L 48.1181 23.0642 L 48.274 23.2852 L 48.4593 23.5387 L 48.7488 23.915 L 48.9097 24.1141 L 49.0797 24.3169 L 49.3484 24.6221 L 49.6279 24.9195 L 49.8163 25.1086 L 50.0031 25.2869 L 50.185 25.4514 L 50.3343 25.5797 L 50.4104 25.6516 L 50.5139 25.7674 L 50.5876 25.8676 L 50.6468 25.9712 L 50.6704 26.0224 L 50.6744 26.0387 L 50.688 26.0608 L 50.6915 26.0783 L 50.698 26.0899 L 50.7009 26.1083 L 50.7072 26.1204 L 50.7096 26.1398 L 50.7215 26.1653 L 50.723 26.1863 L 50.7286 26.1998 L 50.7295 26.222 L 50.7348 26.2361 L 50.735 26.2596 L 50.7447 26.2894 L 50.7439 26.3149 L 50.7483 26.3306 L 50.7448 26.3855 L 50.7485 26.4025 L 50.7248 26.5932 L 50.7039 26.658 L 50.7088 26.6605 L 50.5873 26.8971 L 50.4673 27.1345 L 50.4623 27.132 L 50.4223 27.187 L 50.2819 27.3183 L 50.2659 27.3253 L 50.2236 27.3604 L 50.2083 27.3661 L 50.1881 27.3816 L 50.1584 27.3913 L 50.1392 27.405 L 50.1247 27.409 L 50.1062 27.4214 L 50.092 27.4247 L 50.0741 27.4358 L 50.0465 27.4412 L 50.0294 27.4507 L 50.0159 27.4527 L 49.9993 27.4612 L 49.9861 27.4627 L 49.9699 27.4702 L 49.944 27.4722 L 49.9285 27.4785 L 49.8732 27.4895 L 49.7546 27.5025 L 49.6302 27.5018 L 49.4757 27.4861 L 49.3728 27.4668 L 49.1812 27.4214 L 48.9412 27.371 L 48.6872 27.3247 L 48.4235 27.2834 L 48.0185 27.2321 L 47.6137 27.194 L 47.3497 27.1757 L 47.0941 27.1626 L 46.6195 27.1496 L 46.3054 27.1486 L 46.0351 27.1525 L 45.7524 27.1609 L 45.484 27.173 L 45.1971 27.849 L 44.922 28.53 L 45.1032 28.7283 L 45.2971 28.9342 L 45.4855 29.128 L 45.7083 29.3495 L 46.0531 29.6758 L 46.2431 29.8473 L 46.4427 30.021 L 46.7559 30.2804 L 47.0785 30.5304 L 47.2942 30.6877 L 47.5065 30.8346 L 47.7119 30.9687 L 47.8794 31.072 L 47.9659 31.1311 L 48.0863 31.2293 L 48.1747 31.3167 L 48.2494 31.4098 L 48.2806 31.4567 L 48.2872 31.4721 L 48.3041 31.4919 L 48.3102 31.5086 L 48.3185 31.519 L 48.3242 31.5367 L 48.3323 31.5477 L 48.3377 31.5665 L 48.3535 31.5899 L 48.3583 31.6103 L 48.3659 31.6227 L 48.3703 31.6445 L 48.3777 31.6576 L 48.3816 31.6809 L 48.3958 31.7088 L 48.399 31.734 L 48.4058 31.7489 L 48.4109 31.8036 L 48.4173 31.8198 L 48.4237 32.0119 L 48.4131 32.0792 L 48.4185 32.0809 L 48.3354 32.3336 L 48.2541 32.5869 L 48.2487 32.5852 L 48.2178 32.6458 L 48.0997 32.7974 L 48.085 32.8068 L 48.0487 32.8481 L 48.0344 32.8561 L 48.017 32.8746 L 47.9891 32.8888 L 47.9723 32.9053 L 47.9586 32.9116 L 47.9422 32.9267 L 47.9288 32.9322 L 47.9128 32.9459 L 47.8864 32.9556 L 47.871 32.9676 L 47.858 32.9718 L 47.8429 32.9827 L 47.8301 32.9863 L 47.8153 32.9962 L 47.79 33.0022 L 47.7756 33.0109 L 47.7228 33.0304 L 47.6077 33.0619 L 47.4847 33.0806 L 47.3296 33.0893 L 47.225 33.0863 L 47.0287 33.0714 L 46.7837 33.0592 L 46.5256 33.0532 L 46.2587 33.0536 L 45.8507 33.0663 L 45.4449 33.092 L 45.1813 33.1153 L 44.9268 33.1423 L 44.456 33.2037 L 44.1456 33.2519 L 43.8792 33.2979 L 43.6013 33.3505 L 43.3381 33.4045 L 43.1605 34.117 L 42.9953 34.8326 L 43.2053 35.0001 L 43.429 35.1732 L 43.6455 35.3352 L 43.9001 35.519 L 44.2917 35.7874 L 44.5062 35.927 L 44.7306 36.0674 L 45.0804 36.2746 L 45.4382 36.4711 L 45.6758 36.5927 L 45.9086 36.7045 L 46.1324 36.8048 L 46.314 36.8807 L 46.4086 36.9255 L 46.5429 37.0037 L 46.6439 37.0762 L 46.7322 37.1565 L 46.7704 37.1979 L 46.7793 37.2121 L 46.7991 37.229 L 46.8078 37.2445 L 46.8176 37.2535 L 46.826 37.2701 L 46.8357 37.2797 L 46.844 37.2975 L 46.8632 37.318 L 46.8712 37.3375 L 46.8806 37.3486 L 46.8884 37.3694 L 46.8977 37.3812 L 46.9052 37.4035 L 46.9236 37.4289 L 46.9308 37.4533 L 46.9398 37.4669 L 46.9534 37.5202 L 46.9622 37.5352 L 46.9986 37.7239 L 46.9987 37.792 L 47.0042 37.7929 L 46.9617 38.0555 L 46.921 38.3183 L 46.9154 38.3175 L 46.8944 38.3822 L 46.8014 38.5504 L 46.7884 38.5619 L 46.759 38.6084 L 46.7462 38.6186 L 46.7318 38.6396 L 46.7065 38.658 L 46.6925 38.6769 L 46.68 38.6853 L 46.6662 38.7027 L 46.6537 38.7103 L 46.6401 38.7263 L 46.6155 38.74 L 46.6022 38.7543 L 46.59 38.7604 L 46.5768 38.7736 L 46.5647 38.7791 L 46.5517 38.7912 L 46.5276 38.8012 L 46.5148 38.812 L 46.4656 38.8395 L 46.3569 38.8886 L 46.2384 38.9263 L 46.0865 38.9592 L 45.9827 38.9725 L 45.7865 38.9886 L 45.5426 39.0148 L 45.2868 39.0493 L 45.0232 39.0915 L 44.6222 39.1678 L 44.2254 39.2567 L 43.9687 39.3209 L 43.7215 39.3874 L 43.2662 39.5217 L 42.9672 39.6178 L 42.7112 39.705 L 42.445 39.8004 L 42.1935 39.8949 L 42.1295 40.6265 L 42.0783 41.3591 L 42.3119 41.4917 L 42.5599 41.6276 L 42.7991 41.7537 L 43.0794 41.8955 L 43.5081 42.0993 L 43.7418 42.2037 L 43.9853 42.3072 L 44.3633 42.4571 L 44.7474 42.5952 L 45.0012 42.6782 L 45.2485 42.7522 L 45.4853 42.8163 L 45.6765 42.8628 L 45.777 42.8923 L 45.9218 42.9485 L 46.033 43.0043 L 46.1327 43.0697 L 46.177 43.1046 L 46.1879 43.1173 L 46.2101 43.1309 L 46.2211 43.1449 L 46.2322 43.1522 L 46.2432 43.1673 L 46.2543 43.1752 L 46.2652 43.1915 L 46.2874 43.2088 L 46.2983 43.2268 L 46.3094 43.2362 L 46.3203 43.2556 L 46.3313 43.2658 L 46.3422 43.2867 L 46.3644 43.3088 L 46.3752 43.3319 L 46.3863 43.3439 L 46.4081 43.3944 L 46.4191 43.4078 L 46.4846 43.5885 L 46.4953 43.6557 L 46.5009 43.6558 L 46.5 43.9217 Z"/>
  </g>
  <g id="ENGRAVE" fill="none" stroke="#0000ff" stroke-width="0.1">
    <circle cx="24" cy="43.9217" r="20"/>
    <circle cx="84" cy="43.9217" r="40"/>
  </g>
</svg>
