<?xml version="1.0" encoding="UTF-8"?>
<!-- Generated by GearForge — Internal involute spline hub (ISO 4156, 30°, flat root) | kerf 0.15 mm compensated -->
<svg xmlns="http://www.w3.org/2000/svg" width="31.6501mm" height="31.6501mm" viewBox="0 0 31.6501 31.6501">
  <g id="CUT" fill="none" stroke="#ff0000" stroke-width="0.1">
    <circle cx="15.825" cy="15.825" r="13.825"/>
    <path d="M 26.3686 17.495 L 26.3865 17.3775 L 26.4031 17.2606 L 26.4038 17.2537 L 26.4042 17.2476 L 26.4043 17.2415 L 26.404 17.2353 L 26.4035 17.2292 L 26.4027 17.2231 L 26.4015 17.2171 L 26.4001 17.2111 L 26.3984 17.2052 L 26.3964 17.1994 L 26.3941 17.1937 L 26.3916 17.1882 L 26.3887 17.1827 L 26.3856 17.1774 L 26.3823 17.1723 L 26.3787 17.1673 L 26.3748 17.1625 L 26.3708 17.1579 L 26.3665 17.1535 L 26.3814 17.1673 L 26.3696 17.167 L 26.299 17.1032 L 26.2495 17.0595 L 26.2004 17.017 L 26.1516 16.9757 L 26.1032 16.9357 L 26.0552 16.8969 L 26.0075 16.8592 L 25.9603 16.8228 L 25.9136 16.7874 L 25.8673 16.7533 L 25.8214 16.7202 L 25.7761 16.6883 L 25.7313 16.6575 L 25.687 16.6277 L 25.6433 16.599 L 25.6002 16.5714 L 25.5576 16.5448 L 25.5157 16.5193 L 25.4744 16.4947 L 25.4337 16.4711 L 25.3937 16.4485 L 25.3544 16.4269 L 25.3157 16.4061 L 25.2351 16.3641 L 25.2443 16.1523 L 25.2486 15.9887 L 25.25 15.825 L 25.2486 15.6614 L 25.2443 15.4978 L 25.2351 15.286 L 25.3157 15.2439 L 25.3544 15.2232 L 25.3937 15.2015 L 25.4337 15.1789 L 25.4744 15.1553 L 25.5157 15.1308 L 25.5576 15.1052 L 25.6002 15.0786 L 25.6433 15.051 L 25.687 15.0223 L 25.7313 14.9926 L 25.7761 14.9618 L 25.8214 14.9298 L 25.8673 14.8968 L 25.9136 14.8626 L 25.9603 14.8273 L 26.0075 14.7908 L 26.0552 14.7532 L 26.1032 14.7143 L 26.1516 14.6743 L 26.2004 14.6331 L 26.2495 14.5906 L 26.299 14.5469 L 26.3696 14.483 L 26.3814 14.4827 L 26.3665 14.4965 L 26.3708 14.4921 L 26.3748 14.4876 L 26.3787 14.4828 L 26.3823 14.4778 L 26.3856 14.4726 L 26.3887 14.4673 L 26.3916 14.4619 L 26.3941 14.4563 L 26.3964 14.4506 L 26.3984 14.4448 L 26.4001 14.4389 L 26.4015 14.4329 L 26.4027 14.4269 L 26.4035 14.4208 L 26.404 14.4147 L 26.4043 14.4086 L 26.4042 14.4024 L 26.4038 14.3963 L 26.4031 14.3895 L 26.3865 14.2725 L 26.3686 14.1551 L 26.3494 14.0378 L 26.3289 13.9215 L 26.3275 13.9148 L 26.326 13.9089 L 26.3242 13.903 L 26.3221 13.8972 L 26.3197 13.8916 L 26.317 13.886 L 26.3141 13.8806 L 26.3109 13.8754 L 26.3074 13.8703 L 26.3037 13.8654 L 26.2998 13.8607 L 26.2956 13.8562 L 26.2913 13.8519 L 26.2867 13.8478 L 26.2819 13.8439 L 26.2769 13.8403 L 26.2718 13.837 L 26.2665 13.8339 L 26.2611 13.831 L 26.2795 13.8395 L 26.2682 13.8429 L 26.1813 13.804 L 26.1208 13.7777 L 26.0609 13.7525 L 26.0018 13.7283 L 25.9434 13.7052 L 25.8857 13.6831 L 25.8288 13.662 L 25.7726 13.6419 L 25.7172 13.6228 L 25.6626 13.6046 L 25.6088 13.5873 L 25.5558 13.571 L 25.5037 13.5555 L 25.4524 13.5409 L 25.4019 13.5271 L 25.3524 13.5142 L 25.3037 13.5021 L 25.2559 13.4907 L 25.209 13.4801 L 25.1631 13.4703 L 25.118 13.4611 L 25.0739 13.4527 L 25.0308 13.4449 L 24.9411 13.4298 L 24.8844 13.2255 L 24.8379 13.0686 L 24.7887 12.9125 L 24.7368 12.7573 L 24.6822 12.6031 L 24.608 12.4045 L 24.6716 12.3396 L 24.702 12.3079 L 24.7327 12.2752 L 24.7638 12.2413 L 24.7952 12.2063 L 24.8269 12.1702 L 24.8588 12.1329 L 24.8911 12.0945 L 24.9236 12.0549 L 24.9563 12.0141 L 24.9892 11.9721 L 25.0223 11.929 L 25.0555 11.8846 L 25.0889 11.839 L 25.1224 11.7922 L 25.156 11.7441 L 25.1896 11.6949 L 25.2233 11.6443 L 25.2569 11.5926 L 25.2906 11.5395 L 25.3243 11.4852 L 25.3579 11.4297 L 25.3914 11.3728 L 25.4388 11.2902 L 25.4499 11.2863 L 25.44 11.3041 L 25.4428 11.2986 L 25.4452 11.2929 L 25.4474 11.2872 L 25.4493 11.2814 L 25.4509 11.2754 L 25.4522 11.2694 L 25.4532 11.2634 L 25.4539 11.2573 L 25.4543 11.2511 L 25.4544 11.245 L 25.4542 11.2389 L 25.4537 11.2328 L 25.4529 11.2267 L 25.4518 11.2206 L 25.4504 11.2146 L 25.4488 11.2087 L 25.4468 11.2029 L 25.4446 11.1972 L 25.4417 11.191 L 25.3899 11.0848 L 25.3365 10.9787 L 25.282 10.8731 L 25.2266 10.7688 L 25.2232 10.7628 L 25.2199 10.7577 L 25.2164 10.7526 L 25.2126 10.7478 L 25.2086 10.7432 L 25.2043 10.7387 L 25.1999 10.7345 L 25.1952 10.7305 L 25.1903 10.7268 L 25.1853 10.7232 L 25.1801 10.72 L 25.1748 10.717 L 25.1693 10.7142 L 25.1637 10.7117 L 25.1579 10.7096 L 25.1521 10.7077 L 25.1462 10.706 L 25.1402 10.7047 L 25.1341 10.7037 L 25.1543 10.7061 L 25.1446 10.7128 L 25.0499 10.7026 L 24.9842 10.6963 L 24.9195 10.6908 L 24.8558 10.6861 L 24.7931 10.6822 L 24.7314 10.679 L 24.6707 10.6766 L 24.6111 10.6748 L 24.5525 10.6737 L 24.495 10.6733 L 24.4385 10.6735 L 24.383 10.6743 L 24.3287 10.6757 L 24.2754 10.6777 L 24.2231 10.6802 L 24.172 10.6832 L 24.1219 10.6867 L 24.073 10.6907 L 24.0251 10.6951 L 23.9784 10.6999 L 23.9327 10.7051 L 23.8882 10.7107 L 23.8447 10.7167 L 23.7548 10.73 L 23.6378 10.5532 L 23.545 10.4184 L 23.45 10.2852 L 23.3527 10.1536 L 23.2531 10.0238 L 23.1211 9.8578 L 23.1616 9.7764 L 23.1807 9.7369 L 23.1998 9.6963 L 23.2188 9.6545 L 23.2379 9.6115 L 23.2569 9.5673 L 23.2758 9.522 L 23.2946 9.4755 L 23.3132 9.4278 L 23.3317 9.3789 L 23.3501 9.3288 L 23.3682 9.2775 L 23.3861 9.2251 L 23.4038 9.1714 L 23.4211 9.1165 L 23.4382 9.0605 L 23.455 9.0032 L 23.4714 8.9447 L 23.4874 8.8851 L 23.5031 8.8242 L 23.5183 8.7622 L 23.533 8.699 L 23.5473 8.6346 L 23.567 8.5414 L 23.5763 8.5342 L 23.5724 8.5541 L 23.5733 8.5481 L 23.5739 8.542 L 23.5742 8.5358 L 23.5741 8.5297 L 23.5738 8.5236 L 23.5732 8.5174 L 23.5723 8.5114 L 23.5711 8.5054 L 23.5696 8.4994 L 23.5678 8.4935 L 23.5657 8.4878 L 23.5634 8.4821 L 23.5607 8.4765 L 23.5578 8.4711 L 23.5547 8.4659 L 23.5512 8.4608 L 23.5476 8.4558 L 23.5437 8.4511 L 23.539 8.446 L 23.4569 8.3611 L 23.3734 8.2767 L 23.2889 8.1931 L 23.204 8.111 L 23.1989 8.1064 L 23.1942 8.1025 L 23.1893 8.0988 L 23.1842 8.0954 L 23.1789 8.0922 L 23.1735 8.0893 L 23.168 8.0867 L 23.1623 8.0843 L 23.1565 8.0822 L 23.1507 8.0805 L 23.1447 8.0789 L 23.1387 8.0777 L 23.1326 8.0768 L 23.1265 8.0762 L 23.1204 8.0759 L 23.1142 8.0759 L 23.1081 8.0762 L 23.102 8.0768 L 23.0959 8.0777 L 23.1159 8.0737 L 23.1087 8.0831 L 23.0155 8.1027 L 22.9511 8.117 L 22.8878 8.1318 L 22.8258 8.147 L 22.765 8.1626 L 22.7053 8.1787 L 22.6468 8.1951 L 22.5896 8.2118 L 22.5335 8.2289 L 22.4787 8.2463 L 22.425 8.2639 L 22.3725 8.2819 L 22.3212 8.3 L 22.2712 8.3183 L 22.2223 8.3368 L 22.1746 8.3555 L 22.128 8.3743 L 22.0827 8.3932 L 22.0385 8.4122 L 21.9956 8.4312 L 21.9538 8.4503 L 21.9131 8.4694 L 21.8736 8.4885 L 21.7922 8.5289 L 21.6263 8.397 L 21.4965 8.2974 L 21.3649 8.2 L 21.2317 8.105 L 21.0968 8.0123 L 20.9201 7.8952 L 20.9334 7.8053 L 20.9393 7.7619 L 20.9449 7.7173 L 20.9502 7.6717 L 20.955 7.6249 L 20.9594 7.5771 L 20.9634 7.5281 L 20.9669 7.4781 L 20.9699 7.4269 L 20.9724 7.3747 L 20.9743 7.3214 L 20.9757 7.267 L 20.9765 7.2116 L 20.9767 7.1551 L 20.9763 7.0975 L 20.9752 7.0389 L 20.9735 6.9793 L 20.971 6.9186 L 20.9678 6.857 L 20.9639 6.7942 L 20.9592 6.7305 L 20.9537 6.6658 L 20.9474 6.6002 L 20.9373 6.5054 L 20.944 6.4957 L 20.9464 6.5159 L 20.9453 6.5099 L 20.944 6.5039 L 20.9424 6.498 L 20.9405 6.4921 L 20.9383 6.4864 L 20.9358 6.4808 L 20.9331 6.4753 L 20.9301 6.4699 L 20.9268 6.4647 L 20.9233 6.4597 L 20.9195 6.4549 L 20.9155 6.4502 L 20.9113 6.4457 L 20.9069 6.4415 L 20.9022 6.4375 L 20.8974 6.4337 L 20.8924 6.4301 L 20.8872 6.4268 L 20.8813 6.4234 L 20.7769 6.3681 L 20.6714 6.3135 L 20.5652 6.2602 L 20.4591 6.2083 L 20.4528 6.2055 L 20.4471 6.2033 L 20.4413 6.2013 L 20.4354 6.1996 L 20.4294 6.1982 L 20.4234 6.1971 L 20.4173 6.1963 L 20.4112 6.1958 L 20.405 6.1956 L 20.3989 6.1958 L 20.3928 6.1962 L 20.3867 6.1969 L 20.3806 6.1979 L 20.3746 6.1992 L 20.3687 6.2008 L 20.3629 6.2027 L 20.3571 6.2048 L 20.3515 6.2073 L 20.346 6.21 L 20.3637 6.2001 L 20.3598 6.2112 L 20.2772 6.2587 L 20.2204 6.2922 L 20.1648 6.3258 L 20.1105 6.3594 L 20.0575 6.3931 L 20.0057 6.4268 L 19.9552 6.4605 L 19.9059 6.4941 L 19.8579 6.5277 L 19.8111 6.5611 L 19.7655 6.5945 L 19.7211 6.6278 L 19.6779 6.6608 L 19.636 6.6938 L 19.5952 6.7265 L 19.5556 6.759 L 19.5171 6.7912 L 19.4799 6.8232 L 19.4437 6.8549 L 19.4087 6.8863 L 19.3749 6.9174 L 19.3421 6.9481 L 19.3105 6.9784 L 19.2456 7.042 L 19.047 6.9678 L 18.8927 6.9132 L 18.7375 6.8613 L 18.5814 6.8121 L 18.4245 6.7656 L 18.2203 6.7089 L 18.2051 6.6193 L 18.1974 6.5761 L 18.1889 6.532 L 18.1798 6.487 L 18.1699 6.441 L 18.1593 6.3941 L 18.148 6.3463 L 18.1358 6.2977 L 18.1229 6.2481 L 18.1091 6.1977 L 18.0945 6.1464 L 18.0791 6.0942 L 18.0627 6.0413 L 18.0454 5.9875 L 18.0272 5.9329 L 18.0081 5.8775 L 17.988 5.8213 L 17.9669 5.7644 L 17.9448 5.7067 L 17.9217 5.6482 L 17.8976 5.5891 L 17.8724 5.5293 L 17.8461 5.4687 L 17.8071 5.3818 L 17.8105 5.3705 L 17.819 5.389 L 17.8162 5.3835 L 17.8131 5.3782 L 17.8097 5.3731 L 17.8061 5.3682 L 17.8022 5.3634 L 17.7982 5.3588 L 17.7939 5.3544 L 17.7893 5.3503 L 17.7846 5.3463 L 17.7797 5.3426 L 17.7746 5.3392 L 17.7694 5.336 L 17.764 5.333 L 17.7585 5.3304 L 17.7528 5.328 L 17.7471 5.3259 L 17.7412 5.324 L 17.7353 5.3225 L 17.7285 5.3211 L 17.6122 5.3007 L 17.495 5.2815 L 17.3775 5.2635 L 17.2606 5.247 L 17.2537 5.2462 L 17.2476 5.2459 L 17.2415 5.2458 L 17.2353 5.246 L 17.2292 5.2465 L 17.2231 5.2474 L 17.2171 5.2485 L 17.2111 5.2499 L 17.2052 5.2516 L 17.1994 5.2536 L 17.1937 5.2559 L 17.1882 5.2585 L 17.1827 5.2613 L 17.1774 5.2644 L 17.1723 5.2678 L 17.1673 5.2714 L 17.1625 5.2752 L 17.1579 5.2793 L 17.1535 5.2836 L 17.1673 5.2686 L 17.167 5.2804 L 17.1032 5.3511 L 17.0595 5.4005 L 17.017 5.4496 L 16.9757 5.4984 L 16.9357 5.5468 L 16.8969 5.5949 L 16.8592 5.6425 L 16.8228 5.6897 L 16.7874 5.7365 L 16.7533 5.7828 L 16.7202 5.8286 L 16.6883 5.874 L 16.6575 5.9188 L 16.6277 5.963 L 16.599 6.0067 L 16.5714 6.0499 L 16.5448 6.0924 L 16.5193 6.1344 L 16.4947 6.1757 L 16.4711 6.2164 L 16.4485 6.2564 L 16.4269 6.2957 L 16.4061 6.3343 L 16.3641 6.4149 L 16.1523 6.4057 L 15.9887 6.4014 L 15.825 6.4 L 15.6614 6.4014 L 15.4978 6.4057 L 15.286 6.4149 L 15.2439 6.3343 L 15.2232 6.2957 L 15.2015 6.2564 L 15.1789 6.2164 L 15.1553 6.1757 L 15.1308 6.1344 L 15.1052 6.0924 L 15.0786 6.0499 L 15.051 6.0067 L 15.0223 5.963 L 14.9926 5.9188 L 14.9618 5.874 L 14.9298 5.8286 L 14.8968 5.7828 L 14.8626 5.7365 L 14.8273 5.6897 L 14.7908 5.6425 L 14.7532 5.5949 L 14.7143 5.5468 L 14.6743 5.4984 L 14.6331 5.4496 L 14.5906 5.4005 L 14.5469 5.3511 L 14.483 5.2804 L 14.4827 5.2686 L 14.4965 5.2836 L 14.4921 5.2793 L 14.4876 5.2752 L 14.4828 5.2714 L 14.4778 5.2678 L 14.4726 5.2644 L 14.4673 5.2613 L 14.4619 5.2585 L 14.4563 5.2559 L 14.4506 5.2536 L 14.4448 5.2516 L 14.4389 5.2499 L 14.4329 5.2485 L 14.4269 5.2474 L 14.4208 5.2465 L 14.4147 5.246 L 14.4086 5.2458 L 14.4024 5.2459 L 14.3963 5.2462 L 14.3895 5.247 L 14.2725 5.2635 L 14.1551 5.2815 L 14.0378 5.3007 L 13.9215 5.3211 L 13.9148 5.3225 L 13.9089 5.324 L 13.903 5.3259 L 13.8972 5.328 L 13.8916 5.3304 L 13.886 5.333 L 13.8806 5.336 L 13.8754 5.3392 L 13.8703 5.3426 L 13.8654 5.3463 L 13.8607 5.3503 L 13.8562 5.3544 L 13.8519 5.3588 L 13.8478 5.3634 L 13.8439 5.3682 L 13.8403 5.3731 L 13.837 5.3782 L 13.8339 5.3835 L 13.831 5.389 L 13.8395 5.3705 L 13.8429 5.3818 L 13.804 5.4687 L 13.7777 5.5293 L 13.7525 5.5891 L 13.7283 5.6482 L 13.7052 5.7067 L 13.6831 5.7644 L 13.662 5.8213 L 13.6419 5.8775 L 13.6228 5.9329 L 13.6046 5.9875 L 13.5873 6.0413 L 13.571 6.0942 L 13.5555 6.1464 L 13.5409 6.1977 L 13.5271 6.2481 L 13.5142 6.2977 L 13.5021 6.3463 L 13.4907 6.3941 L 13.4801 6.441 L 13.4703 6.487 L 13.4611 6.532 L 13.4527 6.5761 L 13.4449 6.6193 L 13.4298 6.7089 L 13.2255 6.7656 L 13.0686 6.8121 L 12.9125 6.8613 L 12.7573 6.9132 L 12.6031 6.9678 L 12.4045 7.042 L 12.3396 6.9784 L 12.3079 6.9481 L 12.2752 6.9174 L 12.2413 6.8863 L 12.2063 6.8549 L 12.1702 6.8232 L 12.1329 6.7912 L 12.0945 6.759 L 12.0549 6.7265 L 12.0141 6.6938 L 11.9721 6.6608 L 11.929 6.6278 L 11.8846 6.5945 L 11.839 6.5611 L 11.7922 6.5277 L 11.7441 6.4941 L 11.6949 6.4605 L 11.6443 6.4268 L 11.5926 6.3931 L 11.5395 6.3594 L 11.4852 6.3258 L 11.4297 6.2922 L 11.3728 6.2587 L 11.2902 6.2112 L 11.2863 6.2001 L 11.3041 6.21 L 11.2986 6.2073 L 11.2929 6.2048 L 11.2872 6.2027 L 11.2814 6.2008 L 11.2754 6.1992 L 11.2694 6.1979 L 11.2634 6.1969 L 11.2573 6.1962 L 11.2511 6.1958 L 11.245 6.1956 L 11.2389 6.1958 L 11.2328 6.1963 L 11.2267 6.1971 L 11.2206 6.1982 L 11.2146 6.1996 L 11.2087 6.2013 L 11.2029 6.2033 L 11.1972 6.2055 L 11.191 6.2083 L 11.0848 6.2602 L 10.9787 6.3135 L 10.8731 6.3681 L 10.7688 6.4234 L 10.7628 6.4268 L 10.7577 6.4301 L 10.7526 6.4337 L 10.7478 6.4375 L 10.7432 6.4415 L 10.7387 6.4457 L 10.7345 6.4502 L 10.7305 6.4549 L 10.7268 6.4597 L 10.7232 6.4647 L 10.72 6.4699 L 10.717 6.4753 L 10.7142 6.4808 L 10.7117 6.4864 L 10.7096 6.4921 L 10.7077 6.498 L 10.706 6.5039 L 10.7047 6.5099 L 10.7037 6.5159 L 10.7061 6.4957 L 10.7128 6.5054 L 10.7026 6.6002 L 10.6963 6.6658 L 10.6908 6.7305 L 10.6861 6.7942 L 10.6822 6.857 L 10.679 6.9186 L 10.6766 6.9793 L 10.6748 7.0389 L 10.6737 7.0975 L 10.6733 7.1551 L 10.6735 7.2116 L 10.6743 7.267 L 10.6757 7.3214 L 10.6777 7.3747 L 10.6802 7.4269 L 10.6832 7.4781 L 10.6867 7.5281 L 10.6907 7.5771 L 10.6951 7.6249 L 10.6999 7.6717 L 10.7051 7.7173 L 10.7107 7.7619 L 10.7167 7.8053 L 10.73 7.8952 L 10.5532 8.0123 L 10.4184 8.105 L 10.2852 8.2 L 10.1536 8.2974 L 10.0238 8.397 L 9.8578 8.5289 L 9.7764 8.4885 L 9.7369 8.4694 L 9.6963 8.4503 L 9.6545 8.4312 L 9.6115 8.4122 L 9.5673 8.3932 L 9.522 8.3743 L 9.4755 8.3555 L 9.4278 8.3368 L 9.3789 8.3183 L 9.3288 8.3 L 9.2775 8.2819 L 9.2251 8.2639 L 9.1714 8.2463 L 9.1165 8.2289 L 9.0605 8.2118 L 9.0032 8.1951 L 8.9447 8.1787 L 8.8851 8.1626 L 8.8242 8.147 L 8.7622 8.1318 L 8.699 8.117 L 8.6346 8.1027 L 8.5414 8.0831 L 8.5342 8.0737 L 8.5541 8.0777 L 8.5481 8.0768 L 8.542 8.0762 L 8.5358 8.0759 L 8.5297 8.0759 L 8.5236 8.0762 L 8.5174 8.0768 L 8.5114 8.0777 L 8.5054 8.0789 L 8.4994 8.0805 L 8.4935 8.0822 L 8.4878 8.0843 L 8.4821 8.0867 L 8.4765 8.0893 L 8.4711 8.0922 L 8.4659 8.0954 L 8.4608 8.0988 L 8.4558 8.1025 L 8.4511 8.1064 L 8.446 8.111 L 8.3611 8.1931 L 8.2767 8.2767 L 8.1931 8.3611 L 8.111 8.446 L 8.1064 8.4511 L 8.1025 8.4558 L 8.0988 8.4608 L 8.0954 8.4659 L 8.0922 8.4711 L 8.0893 8.4765 L 8.0867 8.4821 L 8.0843 8.4878 L 8.0822 8.4935 L 8.0805 8.4994 L 8.0789 8.5054 L 8.0777 8.5114 L 8.0768 8.5174 L 8.0762 8.5236 L 8.0759 8.5297 L 8.0759 8.5358 L 8.0762 8.542 L 8.0768 8.5481 L 8.0777 8.5541 L 8.0737 8.5342 L 8.0831 8.5414 L 8.1027 8.6346 L 8.117 8.699 L 8.1318 8.7622 L 8.147 8.8242 L 8.1626 8.8851 L 8.1787 8.9447 L 8.1951 9.0032 L 8.2118 9.0605 L 8.2289 9.1165 L 8.2463 9.1714 L 8.2639 9.2251 L 8.2819 9.2775 L 8.3 9.3288 L 8.3183 9.3789 L 8.3368 9.4278 L 8.3555 9.4755 L 8.3743 9.522 L 8.3932 9.5673 L 8.4122 9.6115 L 8.4312 9.6545 L 8.4503 9.6963 L 8.4694 9.7369 L 8.4885 9.7764 L 8.5289 9.8578 L 8.397 10.0238 L 8.2974 10.1536 L 8.2 10.2852 L 8.105 10.4184 L 8.0123 10.5532 L 7.8952 10.73 L 7.8053 10.7167 L 7.7619 10.7107 L 7.7173 10.7051 L 7.6717 10.6999 L 7.6249 10.6951 L 7.5771 10.6907 L 7.5281 10.6867 L 7.4781 10.6832 L 7.4269 10.6802 L 7.3747 10.6777 L 7.3214 10.6757 L 7.267 10.6743 L 7.2116 10.6735 L 7.1551 10.6733 L 7.0975 10.6737 L 7.0389 10.6748 L 6.9793 10.6766 L 6.9186 10.679 L 6.857 10.6822 L 6.7942 10.6861 L 6.7305 10.6908 L 6.6658 10.6963 L 6.6002 10.7026 L 6.5054 10.7128 L 6.4957 10.7061 L 6.5159 10.7037 L 6.5099 10.7047 L 6.5039 10.706 L 6.498 10.7077 L 6.4921 10.7096 L 6.4864 10.7117 L 6.4808 10.7142 L 6.4753 10.717 L 6.4699 10.72 L 6.4647 10.7232 L 6.4597 10.7268 L 6.4549 10.7305 L 6.4502 10.7345 L 6.4457 10.7387 L 6.4415 10.7432 L 6.4375 10.7478 L 6.4337 10.7526 L 6.4301 10.7577 L 6.4268 10.7628 L 6.4234 10.7688 L 6.3681 10.8731 L 6.3135 10.9787 L 6.2602 11.0848 L 6.2083 11.191 L 6.2055 11.1972 L 6.2033 11.2029 L 6.2013 11.2087 L 6.1996 11.2146 L 6.1982 11.2206 L 6.1971 11.2267 L 6.1963 11.2328 L 6.1958 11.2389 L 6.1956 11.245 L 6.1958 11.2511 L 6.1962 11.2573 L 6.1969 11.2634 L 6.1979 11.2694 L 6.1992 11.2754 L 6.2008 11.2814 L 6.2027 11.2872 L 6.2048 11.2929 L 6.2073 11.2986 L 6.21 11.3041 L 6.2001 11.2863 L 6.2112 11.2902 L 6.2587 11.3728 L 6.2922 11.4297 L 6.3258 11.4852 L 6.3594 11.5395 L 6.3931 11.5926 L 6.4268 11.6443 L 6.4605 11.6949 L 6.4941 11.7441 L 6.5277 11.7922 L 6.5611 11.839 L 6.5945 11.8846 L 6.6278 11.929 L 6.6608 11.9721 L 6.6938 12.0141 L 6.7265 12.0549 L 6.759 12.0945 L 6.7912 12.1329 L 6.8232 12.1702 L 6.8549 12.2063 L 6.8863 12.2413 L 6.9174 12.2752 L 6.9481 12.3079 L 6.9784 12.3396 L 7.042 12.4045 L 6.9678 12.6031 L 6.9132 12.7573 L 6.8613 12.9125 L 6.8121 13.0686 L 6.7656 13.2255 L 6.7089 13.4298 L 6.6193 13.4449 L 6.5761 13.4527 L 6.532 13.4611 L 6.487 13.4703 L 6.441 13.4801 L 6.3941 13.4907 L 6.3463 13.5021 L 6.2977 13.5142 L 6.2481 13.5271 L 6.1977 13.5409 L 6.1464 13.5555 L 6.0942 13.571 L 6.0413 13.5873 L 5.9875 13.6046 L 5.9329 13.6228 L 5.8775 13.6419 L 5.8213 13.662 L 5.7644 13.6831 L 5.7067 13.7052 L 5.6482 13.7283 L 5.5891 13.7525 L 5.5293 13.7777 L 5.4687 13.804 L 5.3818 13.8429 L 5.3705 13.8395 L 5.389 13.831 L 5.3835 13.8339 L 5.3782 13.837 L 5.3731 13.8403 L 5.3682 13.8439 L 5.3634 13.8478 L 5.3588 13.8519 L 5.3544 13.8562 L 5.3503 13.8607 L 5.3463 13.8654 L 5.3426 13.8703 L 5.3392 13.8754 L 5.336 13.8806 L 5.333 13.886 L 5.3304 13.8916 L 5.328 13.8972 L 5.3259 13.903 L 5.324 13.9089 L 5.3225 13.9148 L 5.3211 13.9215 L 5.3007 14.0378 L 5.2815 14.1551 L 5.2635 14.2725 L 5.247 14.3895 L 5.2462 14.3963 L 5.2459 14.4024 L 5.2458 14.4086 L 5.246 14.4147 L 5.2465 14.4208 L 5.2474 14.4269 L 5.2485 14.4329 L 5.2499 14.4389 L 5.2516 14.4448 L 5.2536 14.4506 L 5.2559 14.4563 L 5.2585 14.4619 L 5.2613 14.4673 L 5.2644 14.4726 L 5.2678 14.4778 L 5.2714 14.4828 L 5.2752 14.4876 L 5.2793 14.4921 L 5.2836 14.4965 L 5.2686 14.4827 L 5.2804 14.483 L 5.3511 14.5469 L 5.4005 14.5906 L 5.4496 14.6331 L 5.4984 14.6743 L 5.5468 14.7143 L 5.5949 14.7532 L 5.6425 14.7908 L 5.6897 14.8273 L 5.7365 14.8626 L 5.7828 14.8968 L 5.8286 14.9298 L 5.874 14.9618 L 5.9188 14.9926 L 5.963 15.0223 L 6.0067 15.051 L 6.0499 15.0786 L 6.0924 15.1052 L 6.1344 15.1308 L 6.1757 15.1553 L 6.2164 15.1789 L 6.2564 15.2015 L 6.2957 15.2232 L 6.3343 15.2439 L 6.4149 15.286 L 6.4057 15.4978 L 6.4014 15.6614 L 6.4 15.825 L 6.4014 15.9887 L 6.4057 16.1523 L 6.4149 16.3641 L 6.3343 16.4061 L 6.2957 16.4269 L 6.2564 16.4485 L 6.2164 16.4711 L 6.1757 16.4947 L 6.1344 16.5193 L 6.0924 16.5448 L 6.0499 16.5714 L 6.0067 16.599 L 5.963 16.6277 L 5.9188 16.6575 L 5.874 16.6883 L 5.8286 16.7202 L 5.7828 16.7533 L 5.7365 16.7874 L 5.6897 16.8228 L 5.6425 16.8592 L 5.5949 16.8969 L 5.5468 16.9357 L 5.4984 16.9757 L 5.4496 17.017 L 5.4005 17.0595 L 5.3511 17.1032 L 5.2804 17.167 L 5.2686 17.1673 L 5.2836 17.1535 L 5.2793 17.1579 L 5.2752 17.1625 L 5.2714 17.1673 L 5.2678 17.1723 L 5.2644 17.1774 L 5.2613 17.1827 L 5.2585 17.1882 L 5.2559 17.1937 L 5.2536 17.1994 L 5.2516 17.2052 L 5.2499 17.2111 L 5.2485 17.2171 L 5.2474 17.2231 L 5.2465 17.2292 L 5.246 17.2353 L 5.2458 17.2415 L 5.2459 17.2476 L 5.2462 17.2537 L 5.247 17.2606 L 5.2635 17.3775 L 5.2815 17.495 L 5.3007 17.6122 L 5.3211 17.7285 L 5.3225 17.7353 L 5.324 17.7412 L 5.3259 17.7471 L 5.328 17.7528 L 5.3304 17.7585 L 5.333 17.764 L 5.336 17.7694 L 5.3392 17.7746 L 5.3426 17.7797 L 5.3463 17.7846 L 5.3503 17.7893 L 5.3544 17.7939 L 5.3588 17.7982 L 5.3634 17.8022 L 5.3682 17.8061 L 5.3731 17.8097 L 5.3782 17.8131 L 5.3835 17.8162 L 5.389 17.819 L 5.3705 17.8105 L 5.3818 17.8071 L 5.4687 17.8461 L 5.5293 17.8724 L 5.5891 17.8976 L 5.6482 17.9217 L 5.7067 17.9448 L 5.7644 17.9669 L 5.8213 17.988 L 5.8775 18.0081 L 5.9329 18.0272 L 5.9875 18.0454 L 6.0413 18.0627 L 6.0942 18.0791 L 6.1464 18.0945 L 6.1977 18.1091 L 6.2481 18.1229 L 6.2977 18.1358 L 6.3463 18.148 L 6.3941 18.1593 L 6.441 18.1699 L 6.487 18.1798 L 6.532 18.1889 L 6.5761 18.1974 L 6.6193 18.2051 L 6.7089 18.2203 L 6.7656 18.4245 L 6.8121 18.5814 L 6.8613 18.7375 L 6.9132 18.8927 L 6.9678 19.047 L 7.042 19.2456 L 6.9784 19.3105 L 6.9481 19.3421 L 6.9174 19.3749 L 6.8863 19.4087 L 6.8549 19.4437 L 6.8232 19.4799 L 6.7912 19.5171 L 6.759 19.5556 L 6.7265 19.5952 L 6.6938 19.636 L 6.6608 19.6779 L 6.6278 19.7211 L 6.5945 19.7655 L 6.5611 19.8111 L 6.5277 19.8579 L 6.4941 19.9059 L 6.4605 19.9552 L 6.4268 20.0057 L 6.3931 20.0575 L 6.3594 20.1105 L 6.3258 20.1648 L 6.2922 20.2204 L 6.2587 20.2772 L 6.2112 20.3598 L 6.2001 20.3637 L 6.21 20.346 L 6.2073 20.3515 L 6.2048 20.3571 L 6.2027 20.3629 L 6.2008 20.3687 L 6.1992 20.3746 L 6.1979 20.3806 L 6.1969 20.3867 L 6.1962 20.3928 L 6.1958 20.3989 L 6.1956 20.405 L 6.1958 20.4112 L 6.1963 20.4173 L 6.1971 20.4234 L 6.1982 20.4294 L 6.1996 20.4354 L 6.2013 20.4413 L 6.2033 20.4471 L 6.2055 20.4528 L 6.2083 20.4591 L 6.2602 20.5652 L 6.3135 20.6714 L 6.3681 20.7769 L 6.4234 20.8813 L 6.4268 20.8872 L 6.4301 20.8924 L 6.4337 20.8974 L 6.4375 20.9022 L 6.4415 20.9069 L 6.4457 20.9113 L 6.4502 20.9155 L 6.4549 20.9195 L 6.4597 20.9233 L 6.4647 20.9268 L 6.4699 20.9301 L 6.4753 20.9331 L 6.4808 20.9358 L 6.4864 20.9383 L 6.4921 20.9405 L 6.498 20.9424 L 6.5039 20.944 L 6.5099 20.9453 L 6.5159 20.9464 L 6.4957 20.944 L 6.5054 20.9373 L 6.6002 20.9474 L 6.6658 20.9537 L 6.7305 20.9592 L 6.7942 20.9639 L 6.857 20.9678 L 6.9186 20.971 L 6.9793 20.9735 L 7.0389 20.9752 L 7.0975 20.9763 L 7.1551 20.9767 L 7.2116 20.9765 L 7.267 20.9757 L 7.3214 20.9743 L 7.3747 20.9724 L 7.4269 20.9699 L 7.4781 20.9669 L 7.5281 20.9634 L 7.5771 20.9594 L 7.6249 20.955 L 7.6717 20.9502 L 7.7173 20.9449 L 7.7619 20.9393 L 7.8053 20.9334 L 7.8952 20.9201 L 8.0123 21.0968 L 8.105 21.2317 L 8.2 21.3649 L 8.2974 21.4965 L 8.397 21.6263 L 8.5289 21.7922 L 8.4885 21.8736 L 8.4694 21.9131 L 8.4503 21.9538 L 8.4312 21.9956 L 8.4122 22.0385 L 8.3932 22.0827 L 8.3743 22.128 L 8.3555 22.1746 L 8.3368 22.2223 L 8.3183 22.2712 L 8.3 22.3212 L 8.2819 22.3725 L 8.2639 22.425 L 8.2463 22.4787 L 8.2289 22.5335 L 8.2118 22.5896 L 8.1951 22.6468 L 8.1787 22.7053 L 8.1626 22.765 L 8.147 22.8258 L 8.1318 22.8878 L 8.117 22.9511 L 8.1027 23.0155 L 8.0831 23.1087 L 8.0737 23.1159 L 8.0777 23.0959 L 8.0768 23.102 L 8.0762 23.1081 L 8.0759 23.1142 L 8.0759 23.1204 L 8.0762 23.1265 L 8.0768 23.1326 L 8.0777 23.1387 L 8.0789 23.1447 L 8.0805 23.1507 L 8.0822 23.1565 L 8.0843 23.1623 L 8.0867 23.168 L 8.0893 23.1735 L 8.0922 23.1789 L 8.0954 23.1842 L 8.0988 23.1893 L 8.1025 23.1942 L 8.1064 23.1989 L 8.111 23.204 L 8.1931 23.2889 L 8.2767 23.3734 L 8.3611 23.4569 L 8.446 23.539 L 8.4511 23.5437 L 8.4558 23.5476 L 8.4608 23.5512 L 8.4659 23.5547 L 8.4711 23.5578 L 8.4765 23.5607 L 8.4821 23.5634 L 8.4878 23.5657 L 8.4935 23.5678 L 8.4994 23.5696 L 8.5054 23.5711 L 8.5114 23.5723 L 8.5174 23.5732 L 8.5236 23.5738 L 8.5297 23.5741 L 8.5358 23.5742 L 8.542 23.5739 L 8.5481 23.5733 L 8.5541 23.5724 L 8.5342 23.5763 L 8.5414 23.567 L 8.6346 23.5473 L 8.699 23.533 L 8.7622 23.5183 L 8.8242 23.5031 L 8.8851 23.4874 L 8.9447 23.4714 L 9.0032 23.455 L 9.0605 23.4382 L 9.1165 23.4211 L 9.1714 23.4038 L 9.2251 23.3861 L 9.2775 23.3682 L 9.3288 23.3501 L 9.3789 23.3317 L 9.4278 23.3132 L 9.4755 23.2946 L 9.522 23.2758 L 9.5673 23.2569 L 9.6115 23.2379 L 9.6545 23.2188 L 9.6963 23.1998 L 9.7369 23.1807 L 9.7764 23.1616 L 9.8578 23.1211 L 10.0238 23.2531 L 10.1536 23.3527 L 10.2852 23.45 L 10.4184 23.545 L 10.5532 23.6378 L 10.73 23.7548 L 10.7167 23.8447 L 10.7107 23.8882 L 10.7051 23.9327 L 10.6999 23.9784 L 10.6951 24.0251 L 10.6907 24.073 L 10.6867 24.1219 L 10.6832 24.172 L 10.6802 24.2231 L 10.6777 24.2754 L 10.6757 24.3287 L 10.6743 24.383 L 10.6735 24.4385 L 10.6733 24.495 L 10.6737 24.5525 L 10.6748 24.6111 L 10.6766 24.6707 L 10.679 24.7314 L 10.6822 24.7931 L 10.6861 24.8558 L 10.6908 24.9195 L 10.6963 24.9842 L 10.7026 25.0499 L 10.7128 25.1446 L 10.7061 25.1543 L 10.7037 25.1341 L 10.7047 25.1402 L 10.706 25.1462 L 10.7077 25.1521 L 10.7096 25.1579 L 10.7117 25.1637 L 10.7142 25.1693 L 10.717 25.1748 L 10.72 25.1801 L 10.7232 25.1853 L 10.7268 25.1903 L 10.7305 25.1952 L 10.7345 25.1999 L 10.7387 25.2043 L 10.7432 25.2086 L 10.7478 25.2126 L 10.7526 25.2164 L 10.7577 25.2199 L 10.7628 25.2232 L 10.7688 25.2266 L 10.8731 25.282 L 10.9787 25.3365 L 11.0848 25.3899 L 11.191 25.4417 L 11.1972 25.4446 L 11.2029 25.4468 L 11.2087 25.4488 L 11.2146 25.4504 L 11.2206 25.4518 L 11.2267 25.4529 L 11.2328 25.4537 L 11.2389 25.4542 L 11.245 25.4544 L 11.2511 25.4543 L 11.2573 25.4539 L 11.2634 25.4532 L 11.2694 25.4522 L 11.2754 25.4509 L 11.2814 25.4493 L 11.2872 25.4474 L 11.2929 25.4452 L 11.2986 25.4428 L 11.3041 25.44 L 11.2863 25.4499 L 11.2902 25.4388 L 11.3728 25.3914 L 11.4297 25.3579 L 11.4852 25.3243 L 11.5395 25.2906 L 11.5926 25.2569 L 11.6443 25.2233 L 11.6949 25.1896 L 11.7441 25.156 L 11.7922 25.1224 L 11.839 25.0889 L 11.8846 25.0555 L 11.929 25.0223 L 11.9721 24.9892 L 12.0141 24.9563 L 12.0549 24.9236 L 12.0945 24.8911 L 12.1329 24.8588 L 12.1702 24.8269 L 12.2063 24.7952 L 12.2413 24.7638 L 12.2752 24.7327 L 12.3079 24.702 L 12.3396 24.6716 L 12.4045 24.608 L 12.6031 24.6822 L 12.7573 24.7368 L 12.9125 24.7887 L 13.0686 24.8379 L 13.2255 24.8844 L 13.4298 24.9411 L 13.4449 25.0308 L 13.4527 25.0739 L 13.4611 25.118 L 13.4703 25.1631 L 13.4801 25.209 L 13.4907 25.2559 L 13.5021 25.3037 L 13.5142 25.3524 L 13.5271 25.4019 L 13.5409 25.4524 L 13.5555 25.5037 L 13.571 25.5558 L 13.5873 25.6088 L 13.6046 25.6626 L 13.6228 25.7172 L 13.6419 25.7726 L 13.662 25.8288 L 13.6831 25.8857 L 13.7052 25.9434 L 13.7283 26.0018 L 13.7525 26.0609 L 13.7777 26.1208 L 13.804 26.1813 L 13.8429 26.2682 L 13.8395 26.2795 L 13.831 26.2611 L 13.8339 26.2665 L 13.837 26.2718 L 13.8403 26.2769 L 13.8439 26.2819 L 13.8478 26.2867 L 13.8519 26.2913 L 13.8562 26.2956 L 13.8607 26.2998 L 13.8654 26.3037 L 13.8703 26.3074 L 13.8754 26.3109 L 13.8806 26.3141 L 13.886 26.317 L 13.8916 26.3197 L 13.8972 26.3221 L 13.903 26.3242 L 13.9089 26.326 L 13.9148 26.3275 L 13.9215 26.3289 L 14.0378 26.3494 L 14.1551 26.3686 L 14.2725 26.3865 L 14.3895 26.4031 L 14.3963 26.4038 L 14.4024 26.4042 L 14.4086 26.4043 L 14.4147 26.404 L 14.4208 26.4035 L 14.4269 26.4027 L 14.4329 26.4015 L 14.4389 26.4001 L 14.4448 26.3984 L 14.4506 26.3964 L 14.4563 26.3941 L 14.4619 26.3916 L 14.4673 26.3887 L 14.4726 26.3856 L 14.4778 26.3823 L 14.4828 26.3787 L 14.4876 26.3748 L 14.4921 26.3708 L 14.4965 26.3665 L 14.4827 26.3814 L 14.483 26.3696 L 14.5469 26.299 L 14.5906 26.2495 L 14.6331 26.2004 L 14.6743 26.1516 L 14.7143 26.1032 L 14.7532 26.0552 L 14.7908 26.0075 L 14.8273 25.9603 L 14.8626 25.9136 L 14.8968 25.8673 L 14.9298 25.8214 L 14.9618 25.7761 L 14.9926 25.7313 L 15.0223 25.687 L 15.051 25.6433 L 15.0786 25.6002 L 15.1052 25.5576 L 15.1308 25.5157 L 15.1553 25.4744 L 15.1789 25.4337 L 15.2015 25.3937 L 15.2232 25.3544 L 15.2439 25.3157 L 15.286 25.2351 L 15.4978 25.2443 L 15.6614 25.2486 L 15.825 25.25 L 15.9887 25.2486 L 16.1523 25.2443 L 16.3641 25.2351 L 16.4061 25.3157 L 16.4269 25.3544 L 16.4485 25.3937 L 16.4711 25.4337 L 16.4947 25.4744 L 16.5193 25.5157 L 16.5448 25.5576 L 16.5714 25.6002 L 16.599 25.6433 L 16.6277 25.687 L 16.6575 25.7313 L 16.6883 25.7761 L 16.7202 25.8214 L 16.7533 25.8673 L 16.7874 25.9136 L 16.8228 25.9603 L 16.8592 26.0075 L 16.8969 26.0552 L 16.9357 26.1032 L 16.9757 26.1516 L 17.017 26.2004 L 17.0595 26.2495 L 17.1032 26.299 L 17.167 26.3696 L 17.1673 26.3814 L 17.1535 26.3665 L 17.1579 26.3708 L 17.1625 26.3748 L 17.1673 26.3787 L 17.1723 26.3823 L 17.1774 26.3856 L 17.1827 26.3887 L 17.1882 26.3916 L 17.1937 26.3941 L 17.1994 26.3964 L 17.2052 26.3984 L 17.2111 26.4001 L 17.2171 26.4015 L 17.2231 26.4027 L 17.2292 26.4035 L 17.2353 26.404 L 17.2415 26.4043 L 17.2476 26.4042 L 17.2537 26.4038 L 17.2606 26.4031 L 17.3775 26.3865 L 17.495 26.3686 L 17.6122 26.3494 L 17.7285 26.3289 L 17.7353 26.3275 L 17.7412 26.326 L 17.7471 26.3242 L 17.7528 26.3221 L 17.7585 26.3197 L 17.764 26.317 L 17.7694 26.3141 L 17.7746 26.3109 L 17.7797 26.3074 L 17.7846 26.3037 L 17.7893 26.2998 L 17.7939 26.2956 L 17.7982 26.2913 L 17.8022 26.2867 L 17.8061 26.2819 L 17.8097 26.2769 L 17.8131 26.2718 L 17.8162 26.2665 L 17.819 26.2611 L 17.8105 26.2795 L 17.8071 26.2682 L 17.8461 26.1813 L 17.8724 26.1208 L 17.8976 26.0609 L 17.9217 26.0018 L 17.9448 25.9434 L 17.9669 25.8857 L 17.988 25.8288 L 18.0081 25.7726 L 18.0272 25.7172 L 18.0454 25.6626 L 18.0627 25.6088 L 18.0791 25.5558 L 18.0945 25.5037 L 18.1091 25.4524 L 18.1229 25.4019 L 18.1358 25.3524 L 18.148 25.3037 L 18.1593 25.2559 L 18.1699 25.209 L 18.1798 25.1631 L 18.1889 25.118 L 18.1974 25.0739 L 18.2051 25.0308 L 18.2203 24.9411 L 18.4245 24.8844 L 18.5814 24.8379 L 18.7375 24.7887 L 18.8927 24.7368 L 19.047 24.6822 L 19.2456 24.608 L 19.3105 24.6716 L 19.3421 24.702 L 19.3749 24.7327 L 19.4087 24.7638 L 19.4437 24.7952 L 19.4799 24.8269 L 19.5171 24.8588 L 19.5556 24.8911 L 19.5952 24.9236 L 19.636 24.9563 L 19.6779 24.9892 L 19.7211 25.0223 L 19.7655 25.0555 L 19.8111 25.0889 L 19.8579 25.1224 L 19.9059 25.156 L 19.9552 25.1896 L 20.0057 25.2233 L 20.0575 25.2569 L 20.1105 25.2906 L 20.1648 25.3243 L 20.2204 25.3579 L 20.2772 25.3914 L 20.3598 25.4388 L 20.3637 25.4499 L 20.346 25.44 L 20.3515 25.4428 L 20.3571 25.4452 L 20.3629 25.4474 L 20.3687 25.4493 L 20.3746 25.4509 L 20.3806 25.4522 L 20.3867 25.4532 L 20.3928 25.4539 L 20.3989 25.4543 L 20.405 25.4544 L 20.4112 25.4542 L 20.4173 25.4537 L 20.4234 25.4529 L 20.4294 25.4518 L 20.4354 25.4504 L 20.4413 25.4488 L 20.4471 25.4468 L 20.4528 25.4446 L 20.4591 25.4417 L 20.5652 25.3899 L 20.6714 25.3365 L 20.7769 25.282 L 20.8813 25.2266 L 20.8872 25.2232 L 20.8924 25.2199 L 20.8974 25.2164 L 20.9022 25.2126 L 20.9069 25.2086 L 20.9113 25.2043 L 20.9155 25.1999 L 20.9195 25.1952 L 20.9233 25.1903 L 20.9268 25.1853 L 20.9301 25.1801 L 20.9331 25.1748 L 20.9358 25.1693 L 20.9383 25.1637 L 20.9405 25.1579 L 20.9424 25.1521 L 20.944 25.1462 L 20.9453 25.1402 L 20.9464 25.1341 L 20.944 25.1543 L 20.9373 25.1446 L 20.9474 25.0499 L 20.9537 24.9842 L 20.9592 24.9195 L 20.9639 24.8558 L 20.9678 24.7931 L 20.971 24.7314 L 20.9735 24.6707 L 20.9752 24.6111 L 20.9763 24.5525 L 20.9767 24.495 L 20.9765 24.4385 L 20.9757 24.383 L 20.9743 24.3287 L 20.9724 24.2754 L 20.9699 24.2231 L 20.9669 24.172 L 20.9634 24.1219 L 20.9594 24.073 L 20.955 24.0251 L 20.9502 23.9784 L 20.9449 23.9327 L 20.9393 23.8882 L 20.9334 23.8447 L 20.9201 23.7548 L 21.0968 23.6378 L 21.2317 23.545 L 21.3649 23.45 L 21.4965 23.3527 L 21.6263 23.2531 L 21.7922 23.1211 L 21.8736 23.1616 L 21.9131 23.1807 L 21.9538 23.1998 L 21.9956 23.2188 L 22.0385 23.2379 L 22.0827 23.2569 L 22.128 23.2758 L 22.1746 23.2946 L 22.2223 23.3132 L 22.2712 23.3317 L 22.3212 23.3501 L 22.3725 23.3682 L 22.425 23.3861 L 22.4787 23.4038 L 22.5335 23.4211 L 22.5896 23.4382 L 22.6468 23.455 L 22.7053 23.4714 L 22.765 23.4874 L 22.8258 23.5031 L 22.8878 23.5183 L 22.9511 23.533 L 23.0155 23.5473 L 23.1087 23.567 L 23.1159 23.5763 L 23.0959 23.5724 L 23.102 23.5733 L 23.1081 23.5739 L 23.1142 23.5742 L 23.1204 23.5741 L 23.1265 23.5738 L 23.1326 23.5732 L 23.1387 23.5723 L 23.1447 23.5711 L 23.1507 23.5696 L 23.1565 23.5678 L 23.1623 23.5657 L 23.168 23.5634 L 23.1735 23.5607 L 23.1789 23.5578 L 23.1842 23.5547 L 23.1893 23.5512 L 23.1942 23.5476 L 23.1989 23.5437 L 23.204 23.539 L 23.2889 23.4569 L 23.3734 23.3734 L 23.4569 23.2889 L 23.539 23.204 L 23.5437 23.1989 L 23.5476 23.1942 L 23.5512 23.1893 L 23.5547 23.1842 L 23.5578 23.1789 L 23.5607 23.1735 L 23.5634 23.168 L 23.5657 23.1623 L 23.5678 23.1565 L 23.5696 23.1507 L 23.5711 23.1447 L 23.5723 23.1387 L 23.5732 23.1326 L 23.5738 23.1265 L 23.5741 23.1204 L 23.5742 23.1142 L 23.5739 23.1081 L 23.5733 23.102 L 23.5724 23.0959 L 23.5763 23.1159 L 23.567 23.1087 L 23.5473 23.0155 L 23.533 22.9511 L 23.5183 22.8878 L 23.5031 22.8258 L 23.4874 22.765 L 23.4714 22.7053 L 23.455 22.6468 L 23.4382 22.5896 L 23.4211 22.5335 L 23.4038 22.4787 L 23.3861 22.425 L 23.3682 22.3725 L 23.3501 22.3212 L 23.3317 22.2712 L 23.3132 22.2223 L 23.2946 22.1746 L 23.2758 22.128 L 23.2569 22.0827 L 23.2379 22.0385 L 23.2188 21.9956 L 23.1998 21.9538 L 23.1807 21.9131 L 23.1616 21.8736 L 23.1211 21.7922 L 23.2531 21.6263 L 23.3527 21.4965 L 23.45 21.3649 L 23.545 21.2317 L 23.6378 21.0968 L 23.7548 20.9201 L 23.8447 20.9334 L 23.8882 20.9393 L 23.9327 20.9449 L 23.9784 20.9502 L 24.0251 20.955 L 24.073 20.9594 L 24.1219 20.9634 L 24.172 20.9669 L 24.2231 20.9699 L 24.2754 20.9724 L 24.3287 20.9743 L 24.383 20.9757 L 24.4385 20.9765 L 24.495 20.9767 L 24.5525 20.9763 L 24.6111 20.9752 L 24.6707 20.9735 L 24.7314 20.971 L 24.7931 20.9678 L 24.8558 20.9639 L 24.9195 20.9592 L 24.9842 20.9537 L 25.0499 20.9474 L 25.1446 20.9373 L 25.1543 20.944 L 25.1341 20.9464 L 25.1402 20.9453 L 25.1462 20.944 L 25.1521 20.9424 L 25.1579 20.9405 L 25.1637 20.9383 L 25.1693 20.9358 L 25.1748 20.9331 L 25.1801 20.9301 L 25.1853 20.9268 L 25.1903 20.9233 L 25.1952 20.9195 L 25.1999 20.9155 L 25.2043 20.9113 L 25.2086 20.9069 L 25.2126 20.9022 L 25.2164 20.8974 L 25.2199 20.8924 L 25.2232 20.8872 L 25.2266 20.8813 L 25.282 20.7769 L 25.3365 20.6714 L 25.3899 20.5652 L 25.4417 20.4591 L 25.4446 20.4528 L 25.4468 20.4471 L 25.4488 20.4413 L 25.4504 20.4354 L 25.4518 20.4294 L 25.4529 20.4234 L 25.4537 20.4173 L 25.4542 20.4112 L 25.4544 20.405 L 25.4543 20.3989 L 25.4539 20.3928 L 25.4532 20.3867 L 25.4522 20.3806 L 25.4509 20.3746 L 25.4493 20.3687 L 25.4474 20.3629 L 25.4452 20.3571 L 25.4428 20.3515 L 25.44 20.346 L 25.4499 20.3637 L 25.4388 20.3598 L 25.3914 20.2772 L 25.3579 20.2204 L 25.3243 20.1648 L 25.2906 20.1105 L 25.2569 20.0575 L 25.2233 20.0057 L 25.1896 19.9552 L 25.156 19.9059 L 25.1224 19.8579 L 25.0889 19.8111 L 25.0555 19.7655 L 25.0223 19.7211 L 24.9892 19.6779 L 24.9563 19.636 L 24.9236 19.5952 L 24.8911 19.5556 L 24.8588 19.5171 L 24.8269 19.4799 L 24.7952 19.4437 L 24.7638 19.4087 L 24.7327 19.3749 L 24.702 19.3421 L 24.6716 19.3105 L 24.608 19.2456 L 24.6822 19.047 L 24.7368 18.8927 L 24.7887 18.7375 L 24.8379 18.5814 L 24.8844 18.4245 L 24.9411 18.2203 L 25.0308 18.2051 L 25.0739 18.1974 L 25.118 18.1889 L 25.1631 18.1798 L 25.209 18.1699 L 25.2559 18.1593 L 25.3037 18.148 L 25.3524 18.1358 L 25.4019 18.1229 L 25.4524 18.1091 L 25.5037 18.0945 L 25.5558 18.0791 L 25.6088 18.0627 L 25.6626 18.0454 L 25.7172 18.0272 L 25.7726 18.0081 L 25.8288 17.988 L 25.8857 17.9669 L 25.9434 17.9448 L 26.0018 17.9217 L 26.0609 17.8976 L 26.1208 17.8724 L 26.1813 17.8461 L 26.2682 17.8071 L 26.2795 17.8105 L 26.2611 17.819 L 26.2665 17.8162 L 26.2718 17.8131 L 26.2769 17.8097 L 26.2819 17.8061 L 26.2867 17.8022 L 26.2913 17.7982 L 26.2956 17.7939 L 26.2998 17.7893 L 26.3037 17.7846 L 26.3074 17.7797 L 26.3109 17.7746 L 26.3141 17.7694 L 26.317 17.764 L 26.3197 17.7585 L 26.3221 17.7528 L 26.3242 17.7471 L 26.326 17.7412 L 26.3275 17.7353 L 26.3289 17.7285 L 26.3494 17.6122 Z"/>
  </g>
  <g id="ENGRAVE" fill="none" stroke="#0000ff" stroke-width="0.1">
    <circle cx="15.825" cy="15.825" r="10"/>
    <text x="15.825" y="23.3875" font-size="2" text-anchor="middle" font-family="monospace" fill="none">SPL HUB 20×1</text>
  </g>
</svg>
