<?xml version="1.0" encoding="UTF-8"?>
<!-- Generated by GearForge — External spur gear -->
<svg xmlns="http://www.w3.org/2000/svg" width="34mm" height="34mm" viewBox="0 0 34 34">
  <g id="CUT" fill="none" stroke="#ff0000" stroke-width="0.1">
    <path d="M 24.4899 13.5411 L 24.4976 13.5376 L 24.4625 13.3845 L 24.4612 13.3434 L 24.4437 13.27 L 24.4373 12.9307 L 24.4522 12.9226 L 24.4531 12.8198 L 24.4678 12.8115 L 24.4707 12.7141 L 24.4853 12.7057 L 24.4885 12.6437 L 24.5031 12.6353 L 24.5073 12.5757 L 24.5219 12.5671 L 24.5271 12.5098 L 24.5416 12.5012 L 24.548 12.4461 L 24.5624 12.4374 L 24.566 12.4107 L 24.5804 12.402 L 24.5884 12.3502 L 24.6028 12.3414 L 24.6072 12.3163 L 24.6215 12.3074 L 24.6311 12.2587 L 24.6454 12.2498 L 24.6506 12.2262 L 24.6649 12.2173 L 24.6704 12.1941 L 24.6847 12.1852 L 24.6963 12.1403 L 24.7106 12.1313 L 24.7168 12.1096 L 24.7311 12.1005 L 24.7375 12.0792 L 24.7518 12.0702 L 24.7655 12.0289 L 24.7797 12.0198 L 24.7869 11.9998 L 24.8011 11.9907 L 24.8086 11.9711 L 24.8227 11.962 L 24.8384 11.924 L 24.8526 11.9148 L 24.8607 11.8964 L 24.8749 11.8872 L 24.8833 11.8692 L 24.8975 11.86 L 24.9061 11.8424 L 24.9202 11.8331 L 24.9291 11.8159 L 24.9432 11.8066 L 24.9616 11.7731 L 24.9758 11.7639 L 24.9853 11.7477 L 24.9994 11.7384 L 25.0092 11.7226 L 25.0233 11.7133 L 25.0332 11.6978 L 25.0473 11.6885 L 25.0575 11.6733 L 25.0716 11.664 L 25.082 11.6491 L 25.0961 11.6398 L 25.1067 11.6253 L 25.1456 11.5924 L 25.1679 11.5649 L 25.1819 11.5556 L 25.1934 11.5423 L 25.2074 11.5329 L 25.2449 11.4979 L 25.3772 11.3921 L 25.5141 11.2934 L 25.6697 11.192 L 25.8454 11.0906 L 25.9967 11.0133 L 26.0444 10.9936 L 26.0585 10.9842 L 26.1068 10.9655 L 26.1209 10.9562 L 26.1383 10.9519 L 26.1523 10.9426 L 26.1699 10.9385 L 26.184 10.9292 L 26.2017 10.9254 L 26.2299 10.9069 L 26.2477 10.9033 L 26.2618 10.894 L 26.2799 10.8908 L 26.294 10.8815 L 26.3122 10.8785 L 26.3263 10.8692 L 26.3447 10.8664 L 26.3588 10.8572 L 26.3773 10.8547 L 26.3914 10.8454 L 26.4101 10.8432 L 26.4242 10.8339 L 26.4431 10.8319 L 26.4572 10.8227 L 26.4762 10.8209 L 26.5045 10.8025 L 26.5237 10.801 L 26.5378 10.7918 L 26.5571 10.7906 L 26.5713 10.7814 L 26.5887 10.7772 L 26.7006 10.6672 L 26.8329 10.5185 L 26.9765 10.3348 L 27.0501 10.2312 L 27.197 10.0042 L 27.269 9.8821 L 27.4074 9.6246 L 27.473 9.4906 L 27.5955 9.2164 L 27.6519 9.0776 L 27.7547 8.8002 L 27.8009 8.663 L 27.883 8.3951 L 27.952 8.1399 L 28.0086 7.9018 L 28.0541 7.685 L 28.1045 7.4069 L 28.1372 7.1937 L 28.1649 6.9827 L 27.9823 6.7829 L 27.7962 6.5865 L 27.6066 6.3934 L 27.4135 6.2038 L 27.2171 6.0177 L 27.0173 5.8351 L 26.8063 5.8628 L 26.5931 5.8955 L 26.315 5.9459 L 26.0982 5.9914 L 25.8601 6.048 L 25.6049 6.117 L 25.337 6.1991 L 25.1998 6.2453 L 24.9224 6.3481 L 24.7836 6.4045 L 24.5094 6.527 L 24.3754 6.5926 L 24.1179 6.731 L 23.9958 6.803 L 23.7688 6.9499 L 23.6652 7.0235 L 23.4815 7.1671 L 23.3328 7.2994 L 23.2228 7.4113 L 23.2186 7.4287 L 23.2094 7.4429 L 23.2082 7.4622 L 23.199 7.4763 L 23.1975 7.4955 L 23.1791 7.5238 L 23.1773 7.5428 L 23.1681 7.5569 L 23.1661 7.5758 L 23.1568 7.5899 L 23.1546 7.6086 L 23.1453 7.6227 L 23.1428 7.6412 L 23.1336 7.6553 L 23.1308 7.6737 L 23.1215 7.6878 L 23.1185 7.706 L 23.1092 7.7201 L 23.106 7.7382 L 23.0967 7.7523 L 23.0931 7.7701 L 23.0746 7.7983 L 23.0708 7.816 L 23.0615 7.8301 L 23.0574 7.8477 L 23.0481 7.8617 L 23.0438 7.8791 L 23.0345 7.8932 L 23.0158 7.9415 L 23.0064 7.9556 L 22.9867 8.0033 L 22.9094 8.1546 L 22.808 8.3303 L 22.7066 8.4859 L 22.6079 8.6228 L 22.5021 8.7551 L 22.4671 8.7926 L 22.4577 8.8066 L 22.4444 8.8181 L 22.4351 8.8321 L 22.4076 8.8544 L 22.3747 8.8933 L 22.3602 8.9039 L 22.3509 8.918 L 22.336 8.9284 L 22.3267 8.9425 L 22.3115 8.9527 L 22.3022 8.9668 L 22.2867 8.9767 L 22.2774 8.9908 L 22.2616 9.0006 L 22.2523 9.0147 L 22.2361 9.0242 L 22.2269 9.0384 L 22.1934 9.0568 L 22.1841 9.0709 L 22.1669 9.0798 L 22.1576 9.0939 L 22.14 9.1025 L 22.1308 9.1167 L 22.1128 9.1251 L 22.1036 9.1393 L 22.0852 9.1474 L 22.076 9.1616 L 22.038 9.1773 L 22.0289 9.1914 L 22.0093 9.1989 L 22.0002 9.2131 L 21.9802 9.2203 L 21.9711 9.2345 L 21.9298 9.2482 L 21.9208 9.2625 L 21.8995 9.2689 L 21.8904 9.2832 L 21.8687 9.2894 L 21.8597 9.3037 L 21.8148 9.3153 L 21.8059 9.3296 L 21.7827 9.3351 L 21.7738 9.3494 L 21.7502 9.3546 L 21.7413 9.3689 L 21.6926 9.3785 L 21.6837 9.3928 L 21.6586 9.3972 L 21.6498 9.4116 L 21.598 9.4196 L 21.5893 9.434 L 21.5626 9.4376 L 21.5539 9.452 L 21.4988 9.4584 L 21.4902 9.4729 L 21.4329 9.4781 L 21.4243 9.4927 L 21.3647 9.4969 L 21.3563 9.5115 L 21.2943 9.5147 L 21.2859 9.5293 L 21.1885 9.5322 L 21.1802 9.5469 L 21.0774 9.5478 L 21.0693 9.5627 L 20.73 9.5563 L 20.6566 9.5388 L 20.6155 9.5375 L 20.4624 9.5024 L 20.4589 9.5101 L 20.1571 9.378 L 19.8504 9.258 L 19.8533 9.2501 L 19.7202 9.1667 L 19.6903 9.1385 L 19.6259 9.099 L 19.3816 8.8636 L 19.3863 8.8474 L 19.3142 8.774 L 19.3188 8.7578 L 19.252 8.6868 L 19.2564 8.6705 L 19.2148 8.6245 L 19.2192 8.6082 L 19.18 8.563 L 19.1842 8.5467 L 19.1474 8.5025 L 19.1516 8.4861 L 19.1172 8.4427 L 19.1212 8.4263 L 19.1049 8.4049 L 19.1089 8.3885 L 19.0779 8.3463 L 19.0818 8.3299 L 19.0672 8.309 L 19.0711 8.2926 L 19.0434 8.2514 L 19.0472 8.235 L 19.0342 8.2146 L 19.038 8.1982 L 19.0255 8.178 L 19.0293 8.1615 L 19.0058 8.1216 L 19.0095 8.1051 L 18.9986 8.0853 L 19.0022 8.0689 L 18.9918 8.0492 L 18.9954 8.0328 L 18.9759 7.9939 L 18.9795 7.9774 L 18.9705 7.9582 L 18.9741 7.9417 L 18.9655 7.9225 L 18.9691 7.906 L 18.9533 7.8681 L 18.9568 7.8516 L 18.9496 7.8328 L 18.9531 7.8163 L 18.9463 7.7976 L 18.9498 7.7811 L 18.9434 7.7625 L 18.9469 7.746 L 18.941 7.7275 L 18.9444 7.711 L 18.9338 7.6743 L 18.9372 7.6578 L 18.9325 7.6396 L 18.9359 7.6231 L 18.9316 7.605 L 18.935 7.5884 L 18.9311 7.5704 L 18.9345 7.5539 L 18.9309 7.5359 L 18.9343 7.5194 L 18.9312 7.5015 L 18.9345 7.485 L 18.9318 7.4672 L 18.9361 7.4164 L 18.9324 7.3812 L 18.9357 7.3647 L 18.9344 7.3472 L 18.9377 7.3307 L 18.9395 7.2794 L 18.9582 7.1111 L 18.9852 6.9444 L 19.0235 6.7628 L 19.0761 6.5667 L 19.1284 6.4051 L 19.1482 6.3574 L 19.1515 6.3409 L 19.1725 6.2935 L 19.1758 6.277 L 19.1851 6.2616 L 19.1884 6.2451 L 19.198 6.2298 L 19.2014 6.2133 L 19.2112 6.1981 L 19.218 6.165 L 19.2281 6.1499 L 19.2315 6.1333 L 19.242 6.1182 L 19.2454 6.1017 L 19.2561 6.0867 L 19.2596 6.0702 L 19.2706 6.0552 L 19.274 6.0387 L 19.2853 6.0238 L 19.2888 6.0073 L 19.3004 5.9925 L 19.3039 5.976 L 19.3158 5.9612 L 19.3192 5.9447 L 19.3314 5.93 L 19.3384 5.897 L 19.3509 5.8824 L 19.3544 5.8659 L 19.3672 5.8514 L 19.3707 5.8349 L 19.3801 5.8196 L 19.3814 5.6626 L 19.3698 5.464 L 19.3414 5.2325 L 19.3202 5.1073 L 19.2636 4.8428 L 19.2281 4.7056 L 19.1439 4.4256 L 19.0956 4.2845 L 18.9883 4.004 L 18.9301 3.866 L 18.8066 3.5971 L 18.7423 3.4675 L 18.6109 3.22 L 18.4792 2.9908 L 18.3509 2.7824 L 18.2297 2.5968 L 18.0687 2.3646 L 17.9411 2.1906 L 17.8115 2.022 L 17.5411 2.0098 L 17.2706 2.0024 L 17 2 L 16.7294 2.0024 L 16.4589 2.0098 L 16.1885 2.022 L 16.0589 2.1906 L 15.9313 2.3646 L 15.7703 2.5968 L 15.6491 2.7824 L 15.5208 2.9908 L 15.3891 3.22 L 15.2577 3.4675 L 15.1934 3.5971 L 15.0699 3.866 L 15.0117 4.004 L 14.9044 4.2845 L 14.8561 4.4256 L 14.7719 4.7056 L 14.7364 4.8428 L 14.6798 5.1073 L 14.6586 5.2325 L 14.6302 5.464 L 14.6186 5.6626 L 14.6199 5.8196 L 14.6293 5.8349 L 14.6328 5.8514 L 14.6456 5.8659 L 14.6491 5.8824 L 14.6616 5.897 L 14.6686 5.93 L 14.6808 5.9447 L 14.6842 5.9612 L 14.6961 5.976 L 14.6996 5.9925 L 14.7112 6.0073 L 14.7147 6.0238 L 14.726 6.0387 L 14.7294 6.0552 L 14.7404 6.0702 L 14.7439 6.0867 L 14.7546 6.1017 L 14.758 6.1182 L 14.7685 6.1333 L 14.7719 6.1499 L 14.782 6.165 L 14.7888 6.1981 L 14.7986 6.2133 L 14.802 6.2298 L 14.8116 6.2451 L 14.8149 6.2616 L 14.8242 6.277 L 14.8275 6.2935 L 14.8485 6.3409 L 14.8518 6.3574 L 14.8716 6.4051 L 14.9239 6.5667 L 14.9765 6.7628 L 15.0148 6.9444 L 15.0418 7.1111 L 15.0605 7.2794 L 15.0623 7.3307 L 15.0656 7.3472 L 15.0643 7.3647 L 15.0676 7.3812 L 15.0639 7.4164 L 15.0682 7.4672 L 15.0655 7.485 L 15.0688 7.5015 L 15.0657 7.5194 L 15.0691 7.5359 L 15.0655 7.5539 L 15.0689 7.5704 L 15.065 7.5884 L 15.0684 7.605 L 15.0641 7.6231 L 15.0675 7.6396 L 15.0628 7.6578 L 15.0662 7.6743 L 15.0556 7.711 L 15.059 7.7275 L 15.0531 7.746 L 15.0566 7.7625 L 15.0502 7.7811 L 15.0537 7.7976 L 15.0469 7.8163 L 15.0504 7.8328 L 15.0432 7.8516 L 15.0467 7.8681 L 15.0309 7.906 L 15.0345 7.9225 L 15.0259 7.9417 L 15.0295 7.9582 L 15.0205 7.9774 L 15.0241 7.9939 L 15.0046 8.0328 L 15.0082 8.0492 L 14.9978 8.0689 L 15.0014 8.0853 L 14.9905 8.1051 L 14.9942 8.1216 L 14.9707 8.1615 L 14.9745 8.178 L 14.962 8.1982 L 14.9658 8.2146 L 14.9528 8.235 L 14.9566 8.2514 L 14.9289 8.2926 L 14.9328 8.309 L 14.9182 8.3299 L 14.9221 8.3463 L 14.8911 8.3885 L 14.8951 8.4049 L 14.8788 8.4263 L 14.8828 8.4427 L 14.8484 8.4861 L 14.8526 8.5025 L 14.8158 8.5467 L 14.82 8.563 L 14.7808 8.6082 L 14.7852 8.6245 L 14.7436 8.6705 L 14.748 8.6868 L 14.6812 8.7578 L 14.6858 8.774 L 14.6137 8.8474 L 14.6184 8.8636 L 14.3741 9.099 L 14.3097 9.1385 L 14.2798 9.1667 L 14.1467 9.2501 L 14.1496 9.258 L 13.8429 9.378 L 13.5411 9.5101 L 13.5376 9.5024 L 13.3845 9.5375 L 13.3434 9.5388 L 13.27 9.5563 L 12.9307 9.5627 L 12.9226 9.5478 L 12.8198 9.5469 L 12.8115 9.5322 L 12.7141 9.5293 L 12.7057 9.5147 L 12.6437 9.5115 L 12.6353 9.4969 L 12.5757 9.4927 L 12.5671 9.4781 L 12.5098 9.4729 L 12.5012 9.4584 L 12.4461 9.452 L 12.4374 9.4376 L 12.4107 9.434 L 12.402 9.4196 L 12.3502 9.4116 L 12.3414 9.3972 L 12.3163 9.3928 L 12.3074 9.3785 L 12.2587 9.3689 L 12.2498 9.3546 L 12.2262 9.3494 L 12.2173 9.3351 L 12.1941 9.3296 L 12.1852 9.3153 L 12.1403 9.3037 L 12.1313 9.2894 L 12.1096 9.2832 L 12.1005 9.2689 L 12.0792 9.2625 L 12.0702 9.2482 L 12.0289 9.2345 L 12.0198 9.2203 L 11.9998 9.2131 L 11.9907 9.1989 L 11.9711 9.1914 L 11.962 9.1773 L 11.924 9.1616 L 11.9148 9.1474 L 11.8964 9.1393 L 11.8872 9.1251 L 11.8692 9.1167 L 11.86 9.1025 L 11.8424 9.0939 L 11.8331 9.0798 L 11.8159 9.0709 L 11.8066 9.0568 L 11.7731 9.0384 L 11.7639 9.0242 L 11.7477 9.0147 L 11.7384 9.0006 L 11.7226 8.9908 L 11.7133 8.9767 L 11.6978 8.9668 L 11.6885 8.9527 L 11.6733 8.9425 L 11.664 8.9284 L 11.6491 8.918 L 11.6398 8.9039 L 11.6253 8.8933 L 11.5924 8.8544 L 11.5649 8.8321 L 11.5556 8.8181 L 11.5423 8.8066 L 11.5329 8.7926 L 11.4979 8.7551 L 11.3921 8.6228 L 11.2934 8.4859 L 11.192 8.3303 L 11.0906 8.1546 L 11.0133 8.0033 L 10.9936 7.9556 L 10.9842 7.9415 L 10.9655 7.8932 L 10.9562 7.8791 L 10.9519 7.8617 L 10.9426 7.8477 L 10.9385 7.8301 L 10.9292 7.816 L 10.9254 7.7983 L 10.9069 7.7701 L 10.9033 7.7523 L 10.894 7.7382 L 10.8908 7.7201 L 10.8815 7.706 L 10.8785 7.6878 L 10.8692 7.6737 L 10.8664 7.6553 L 10.8572 7.6412 L 10.8547 7.6227 L 10.8454 7.6086 L 10.8432 7.5899 L 10.8339 7.5758 L 10.8319 7.5569 L 10.8227 7.5428 L 10.8209 7.5238 L 10.8025 7.4955 L 10.801 7.4763 L 10.7918 7.4622 L 10.7906 7.4429 L 10.7814 7.4287 L 10.7772 7.4113 L 10.6672 7.2994 L 10.5185 7.1671 L 10.3348 7.0235 L 10.2312 6.9499 L 10.0042 6.803 L 9.8821 6.731 L 9.6246 6.5926 L 9.4906 6.527 L 9.2164 6.4045 L 9.0776 6.3481 L 8.8002 6.2453 L 8.663 6.1991 L 8.3951 6.117 L 8.1399 6.048 L 7.9018 5.9914 L 7.685 5.9459 L 7.4069 5.8955 L 7.1937 5.8628 L 6.9827 5.8351 L 6.7829 6.0177 L 6.5865 6.2038 L 6.3934 6.3934 L 6.2038 6.5865 L 6.0177 6.7829 L 5.8351 6.9827 L 5.8628 7.1937 L 5.8955 7.4069 L 5.9459 7.685 L 5.9914 7.9018 L 6.048 8.1399 L 6.117 8.3951 L 6.1991 8.663 L 6.2453 8.8002 L 6.3481 9.0776 L 6.4045 9.2164 L 6.527 9.4906 L 6.5926 9.6246 L 6.731 9.8821 L 6.803 10.0042 L 6.9499 10.2312 L 7.0235 10.3348 L 7.1671 10.5185 L 7.2994 10.6672 L 7.4113 10.7772 L 7.4287 10.7814 L 7.4429 10.7906 L 7.4622 10.7918 L 7.4763 10.801 L 7.4955 10.8025 L 7.5238 10.8209 L 7.5428 10.8227 L 7.5569 10.8319 L 7.5758 10.8339 L 7.5899 10.8432 L 7.6086 10.8454 L 7.6227 10.8547 L 7.6412 10.8572 L 7.6553 10.8664 L 7.6737 10.8692 L 7.6878 10.8785 L 7.706 10.8815 L 7.7201 10.8908 L 7.7382 10.894 L 7.7523 10.9033 L 7.7701 10.9069 L 7.7983 10.9254 L 7.816 10.9292 L 7.8301 10.9385 L 7.8477 10.9426 L 7.8617 10.9519 L 7.8791 10.9562 L 7.8932 10.9655 L 7.9415 10.9842 L 7.9556 10.9936 L 8.0033 11.0133 L 8.1546 11.0906 L 8.3303 11.192 L 8.4859 11.2934 L 8.6228 11.3921 L 8.7551 11.4979 L 8.7926 11.5329 L 8.8066 11.5423 L 8.8181 11.5556 L 8.8321 11.5649 L 8.8544 11.5924 L 8.8933 11.6253 L 8.9039 11.6398 L 8.918 11.6491 L 8.9284 11.664 L 8.9425 11.6733 L 8.9527 11.6885 L 8.9668 11.6978 L 8.9767 11.7133 L 8.9908 11.7226 L 9.0006 11.7384 L 9.0147 11.7477 L 9.0242 11.7639 L 9.0384 11.7731 L 9.0568 11.8066 L 9.0709 11.8159 L 9.0798 11.8331 L 9.0939 11.8424 L 9.1025 11.86 L 9.1167 11.8692 L 9.1251 11.8872 L 9.1393 11.8964 L 9.1474 11.9148 L 9.1616 11.924 L 9.1773 11.962 L 9.1914 11.9711 L 9.1989 11.9907 L 9.2131 11.9998 L 9.2203 12.0198 L 9.2345 12.0289 L 9.2482 12.0702 L 9.2625 12.0792 L 9.2689 12.1005 L 9.2832 12.1096 L 9.2894 12.1313 L 9.3037 12.1403 L 9.3153 12.1852 L 9.3296 12.1941 L 9.3351 12.2173 L 9.3494 12.2262 L 9.3546 12.2498 L 9.3689 12.2587 L 9.3785 12.3074 L 9.3928 12.3163 L 9.3972 12.3414 L 9.4116 12.3502 L 9.4196 12.402 L 9.434 12.4107 L 9.4376 12.4374 L 9.452 12.4461 L 9.4584 12.5012 L 9.4729 12.5098 L 9.4781 12.5671 L 9.4927 12.5757 L 9.4969 12.6353 L 9.5115 12.6437 L 9.5147 12.7057 L 9.5293 12.7141 L 9.5322 12.8115 L 9.5469 12.8198 L 9.5478 12.9226 L 9.5627 12.9307 L 9.5563 13.27 L 9.5388 13.3434 L 9.5375 13.3845 L 9.5024 13.5376 L 9.5101 13.5411 L 9.378 13.8429 L 9.258 14.1496 L 9.2501 14.1467 L 9.1667 14.2798 L 9.1385 14.3097 L 9.099 14.3741 L 8.8636 14.6184 L 8.8474 14.6137 L 8.774 14.6858 L 8.7578 14.6812 L 8.6868 14.748 L 8.6705 14.7436 L 8.6245 14.7852 L 8.6082 14.7808 L 8.563 14.82 L 8.5467 14.8158 L 8.5025 14.8526 L 8.4861 14.8484 L 8.4427 14.8828 L 8.4263 14.8788 L 8.4049 14.8951 L 8.3885 14.8911 L 8.3463 14.9221 L 8.3299 14.9182 L 8.309 14.9328 L 8.2926 14.9289 L 8.2514 14.9566 L 8.235 14.9528 L 8.2146 14.9658 L 8.1982 14.962 L 8.178 14.9745 L 8.1615 14.9707 L 8.1216 14.9942 L 8.1051 14.9905 L 8.0853 15.0014 L 8.0689 14.9978 L 8.0492 15.0082 L 8.0328 15.0046 L 7.9939 15.0241 L 7.9774 15.0205 L 7.9582 15.0295 L 7.9417 15.0259 L 7.9225 15.0345 L 7.906 15.0309 L 7.8681 15.0467 L 7.8516 15.0432 L 7.8328 15.0504 L 7.8163 15.0469 L 7.7976 15.0537 L 7.7811 15.0502 L 7.7625 15.0566 L 7.746 15.0531 L 7.7275 15.059 L 7.711 15.0556 L 7.6743 15.0662 L 7.6578 15.0628 L 7.6396 15.0675 L 7.6231 15.0641 L 7.605 15.0684 L 7.5884 15.065 L 7.5704 15.0689 L 7.5539 15.0655 L 7.5359 15.0691 L 7.5194 15.0657 L 7.5015 15.0688 L 7.485 15.0655 L 7.4672 15.0682 L 7.4164 15.0639 L 7.3812 15.0676 L 7.3647 15.0643 L 7.3472 15.0656 L 7.3307 15.0623 L 7.2794 15.0605 L 7.1111 15.0418 L 6.9444 15.0148 L 6.7628 14.9765 L 6.5667 14.9239 L 6.4051 14.8716 L 6.3574 14.8518 L 6.3409 14.8485 L 6.2935 14.8275 L 6.277 14.8242 L 6.2616 14.8149 L 6.2451 14.8116 L 6.2298 14.802 L 6.2133 14.7986 L 6.1981 14.7888 L 6.165 14.782 L 6.1499 14.7719 L 6.1333 14.7685 L 6.1182 14.758 L 6.1017 14.7546 L 6.0867 14.7439 L 6.0702 14.7404 L 6.0552 14.7294 L 6.0387 14.726 L 6.0238 14.7147 L 6.0073 14.7112 L 5.9925 14.6996 L 5.976 14.6961 L 5.9612 14.6842 L 5.9447 14.6808 L 5.93 14.6686 L 5.897 14.6616 L 5.8824 14.6491 L 5.8659 14.6456 L 5.8514 14.6328 L 5.8349 14.6293 L 5.8196 14.6199 L 5.6626 14.6186 L 5.464 14.6302 L 5.2325 14.6586 L 5.1073 14.6798 L 4.8428 14.7364 L 4.7056 14.7719 L 4.4256 14.8561 L 4.2845 14.9044 L 4.004 15.0117 L 3.866 15.0699 L 3.5971 15.1934 L 3.4675 15.2577 L 3.22 15.3891 L 2.9908 15.5208 L 2.7824 15.6491 L 2.5968 15.7703 L 2.3646 15.9313 L 2.1906 16.0589 L 2.022 16.1885 L 2.0098 16.4589 L 2.0024 16.7294 L 2 17 L 2.0024 17.2706 L 2.0098 17.5411 L 2.022 17.8115 L 2.1906 17.9411 L 2.3646 18.0687 L 2.5968 18.2297 L 2.7824 18.3509 L 2.9908 18.4792 L 3.22 18.6109 L 3.4675 18.7423 L 3.5971 18.8066 L 3.866 18.9301 L 4.004 18.9883 L 4.2845 19.0956 L 4.4256 19.1439 L 4.7056 19.2281 L 4.8428 19.2636 L 5.1073 19.3202 L 5.2325 19.3414 L 5.464 19.3698 L 5.6626 19.3814 L 5.8196 19.3801 L 5.8349 19.3707 L 5.8514 19.3672 L 5.8659 19.3544 L 5.8824 19.3509 L 5.897 19.3384 L 5.93 19.3314 L 5.9447 19.3192 L 5.9612 19.3158 L 5.976 19.3039 L 5.9925 19.3004 L 6.0073 19.2888 L 6.0238 19.2853 L 6.0387 19.274 L 6.0552 19.2706 L 6.0702 19.2596 L 6.0867 19.2561 L 6.1017 19.2454 L 6.1182 19.242 L 6.1333 19.2315 L 6.1499 19.2281 L 6.165 19.218 L 6.1981 19.2112 L 6.2133 19.2014 L 6.2298 19.198 L 6.2451 19.1884 L 6.2616 19.1851 L 6.277 19.1758 L 6.2935 19.1725 L 6.3409 19.1515 L 6.3574 19.1482 L 6.4051 19.1284 L 6.5667 19.0761 L 6.7628 19.0235 L 6.9444 18.9852 L 7.1111 18.9582 L 7.2794 18.9395 L 7.3307 18.9377 L 7.3472 18.9344 L 7.3647 18.9357 L 7.3812 18.9324 L 7.4164 18.9361 L 7.4672 18.9318 L 7.485 18.9345 L 7.5015 18.9312 L 7.5194 18.9343 L 7.5359 18.9309 L 7.5539 18.9345 L 7.5704 18.9311 L 7.5884 18.935 L 7.605 18.9316 L 7.6231 18.9359 L 7.6396 18.9325 L 7.6578 18.9372 L 7.6743 18.9338 L 7.711 18.9444 L 7.7275 18.941 L 7.746 18.9469 L 7.7625 18.9434 L 7.7811 18.9498 L 7.7976 18.9463 L 7.8163 18.9531 L 7.8328 18.9496 L 7.8516 18.9568 L 7.8681 18.9533 L 7.906 18.9691 L 7.9225 18.9655 L 7.9417 18.9741 L 7.9582 18.9705 L 7.9774 18.9795 L 7.9939 18.9759 L 8.0328 18.9954 L 8.0492 18.9918 L 8.0689 19.0022 L 8.0853 18.9986 L 8.1051 19.0095 L 8.1216 19.0058 L 8.1615 19.0293 L 8.178 19.0255 L 8.1982 19.038 L 8.2146 19.0342 L 8.235 19.0472 L 8.2514 19.0434 L 8.2926 19.0711 L 8.309 19.0672 L 8.3299 19.0818 L 8.3463 19.0779 L 8.3885 19.1089 L 8.4049 19.1049 L 8.4263 19.1212 L 8.4427 19.1172 L 8.4861 19.1516 L 8.5025 19.1474 L 8.5467 19.1842 L 8.563 19.18 L 8.6082 19.2192 L 8.6245 19.2148 L 8.6705 19.2564 L 8.6868 19.252 L 8.7578 19.3188 L 8.774 19.3142 L 8.8474 19.3863 L 8.8636 19.3816 L 9.099 19.6259 L 9.1385 19.6903 L 9.1667 19.7202 L 9.2501 19.8533 L 9.258 19.8504 L 9.378 20.1571 L 9.5101 20.4589 L 9.5024 20.4624 L 9.5375 20.6155 L 9.5388 20.6566 L 9.5563 20.73 L 9.5627 21.0693 L 9.5478 21.0774 L 9.5469 21.1802 L 9.5322 21.1885 L 9.5293 21.2859 L 9.5147 21.2943 L 9.5115 21.3563 L 9.4969 21.3647 L 9.4927 21.4243 L 9.4781 21.4329 L 9.4729 21.4902 L 9.4584 21.4988 L 9.452 21.5539 L 9.4376 21.5626 L 9.434 21.5893 L 9.4196 21.598 L 9.4116 21.6498 L 9.3972 21.6586 L 9.3928 21.6837 L 9.3785 21.6926 L 9.3689 21.7413 L 9.3546 21.7502 L 9.3494 21.7738 L 9.3351 21.7827 L 9.3296 21.8059 L 9.3153 21.8148 L 9.3037 21.8597 L 9.2894 21.8687 L 9.2832 21.8904 L 9.2689 21.8995 L 9.2625 21.9208 L 9.2482 21.9298 L 9.2345 21.9711 L 9.2203 21.9802 L 9.2131 22.0002 L 9.1989 22.0093 L 9.1914 22.0289 L 9.1773 22.038 L 9.1616 22.076 L 9.1474 22.0852 L 9.1393 22.1036 L 9.1251 22.1128 L 9.1167 22.1308 L 9.1025 22.14 L 9.0939 22.1576 L 9.0798 22.1669 L 9.0709 22.1841 L 9.0568 22.1934 L 9.0384 22.2269 L 9.0242 22.2361 L 9.0147 22.2523 L 9.0006 22.2616 L 8.9908 22.2774 L 8.9767 22.2867 L 8.9668 22.3022 L 8.9527 22.3115 L 8.9425 22.3267 L 8.9284 22.336 L 8.918 22.3509 L 8.9039 22.3602 L 8.8933 22.3747 L 8.8544 22.4076 L 8.8321 22.4351 L 8.8181 22.4444 L 8.8066 22.4577 L 8.7926 22.4671 L 8.7551 22.5021 L 8.6228 22.6079 L 8.4859 22.7066 L 8.3303 22.808 L 8.1546 22.9094 L 8.0033 22.9867 L 7.9556 23.0064 L 7.9415 23.0158 L 7.8932 23.0345 L 7.8791 23.0438 L 7.8617 23.0481 L 7.8477 23.0574 L 7.8301 23.0615 L 7.816 23.0708 L 7.7983 23.0746 L 7.7701 23.0931 L 7.7523 23.0967 L 7.7382 23.106 L 7.7201 23.1092 L 7.706 23.1185 L 7.6878 23.1215 L 7.6737 23.1308 L 7.6553 23.1336 L 7.6412 23.1428 L 7.6227 23.1453 L 7.6086 23.1546 L 7.5899 23.1568 L 7.5758 23.1661 L 7.5569 23.1681 L 7.5428 23.1773 L 7.5238 23.1791 L 7.4955 23.1975 L 7.4763 23.199 L 7.4622 23.2082 L 7.4429 23.2094 L 7.4287 23.2186 L 7.4113 23.2228 L 7.2994 23.3328 L 7.1671 23.4815 L 7.0235 23.6652 L 6.9499 23.7688 L 6.803 23.9958 L 6.731 24.1179 L 6.5926 24.3754 L 6.527 24.5094 L 6.4045 24.7836 L 6.3481 24.9224 L 6.2453 25.1998 L 6.1991 25.337 L 6.117 25.6049 L 6.048 25.8601 L 5.9914 26.0982 L 5.9459 26.315 L 5.8955 26.5931 L 5.8628 26.8063 L 5.8351 27.0173 L 6.0177 27.2171 L 6.2038 27.4135 L 6.3934 27.6066 L 6.5865 27.7962 L 6.7829 27.9823 L 6.9827 28.1649 L 7.1937 28.1372 L 7.4069 28.1045 L 7.685 28.0541 L 7.9018 28.0086 L 8.1399 27.952 L 8.3951 27.883 L 8.663 27.8009 L 8.8002 27.7547 L 9.0776 27.6519 L 9.2164 27.5955 L 9.4906 27.473 L 9.6246 27.4074 L 9.8821 27.269 L 10.0042 27.197 L 10.2312 27.0501 L 10.3348 26.9765 L 10.5185 26.8329 L 10.6672 26.7006 L 10.7772 26.5887 L 10.7814 26.5713 L 10.7906 26.5571 L 10.7918 26.5378 L 10.801 26.5237 L 10.8025 26.5045 L 10.8209 26.4762 L 10.8227 26.4572 L 10.8319 26.4431 L 10.8339 26.4242 L 10.8432 26.4101 L 10.8454 26.3914 L 10.8547 26.3773 L 10.8572 26.3588 L 10.8664 26.3447 L 10.8692 26.3263 L 10.8785 26.3122 L 10.8815 26.294 L 10.8908 26.2799 L 10.894 26.2618 L 10.9033 26.2477 L 10.9069 26.2299 L 10.9254 26.2017 L 10.9292 26.184 L 10.9385 26.1699 L 10.9426 26.1523 L 10.9519 26.1383 L 10.9562 26.1209 L 10.9655 26.1068 L 10.9842 26.0585 L 10.9936 26.0444 L 11.0133 25.9967 L 11.0906 25.8454 L 11.192 25.6697 L 11.2934 25.5141 L 11.3921 25.3772 L 11.4979 25.2449 L 11.5329 25.2074 L 11.5423 25.1934 L 11.5556 25.1819 L 11.5649 25.1679 L 11.5924 25.1456 L 11.6253 25.1067 L 11.6398 25.0961 L 11.6491 25.082 L 11.664 25.0716 L 11.6733 25.0575 L 11.6885 25.0473 L 11.6978 25.0332 L 11.7133 25.0233 L 11.7226 25.0092 L 11.7384 24.9994 L 11.7477 24.9853 L 11.7639 24.9758 L 11.7731 24.9616 L 11.8066 24.9432 L 11.8159 24.9291 L 11.8331 24.9202 L 11.8424 24.9061 L 11.86 24.8975 L 11.8692 24.8833 L 11.8872 24.8749 L 11.8964 24.8607 L 11.9148 24.8526 L 11.924 24.8384 L 11.962 24.8227 L 11.9711 24.8086 L 11.9907 24.8011 L 11.9998 24.7869 L 12.0198 24.7797 L 12.0289 24.7655 L 12.0702 24.7518 L 12.0792 24.7375 L 12.1005 24.7311 L 12.1096 24.7168 L 12.1313 24.7106 L 12.1403 24.6963 L 12.1852 24.6847 L 12.1941 24.6704 L 12.2173 24.6649 L 12.2262 24.6506 L 12.2498 24.6454 L 12.2587 24.6311 L 12.3074 24.6215 L 12.3163 24.6072 L 12.3414 24.6028 L 12.3502 24.5884 L 12.402 24.5804 L 12.4107 24.566 L 12.4374 24.5624 L 12.4461 24.548 L 12.5012 24.5416 L 12.5098 24.5271 L 12.5671 24.5219 L 12.5757 24.5073 L 12.6353 24.5031 L 12.6437 24.4885 L 12.7057 24.4853 L 12.7141 24.4707 L 12.8115 24.4678 L 12.8198 24.4531 L 12.9226 24.4522 L 12.9307 24.4373 L 13.27 24.4437 L 13.3434 24.4612 L 13.3845 24.4625 L 13.5376 24.4976 L 13.5411 24.4899 L 13.8429 24.622 L 14.1496 24.742 L 14.1467 24.7499 L 14.2798 24.8333 L 14.3097 24.8615 L 14.3741 24.901 L 14.6184 25.1364 L 14.6137 25.1526 L 14.6858 25.226 L 14.6812 25.2422 L 14.748 25.3132 L 14.7436 25.3295 L 14.7852 25.3755 L 14.7808 25.3918 L 14.82 25.437 L 14.8158 25.4533 L 14.8526 25.4975 L 14.8484 25.5139 L 14.8828 25.5573 L 14.8788 25.5737 L 14.8951 25.5951 L 14.8911 25.6115 L 14.9221 25.6537 L 14.9182 25.6701 L 14.9328 25.691 L 14.9289 25.7074 L 14.9566 25.7486 L 14.9528 25.765 L 14.9658 25.7854 L 14.962 25.8018 L 14.9745 25.822 L 14.9707 25.8385 L 14.9942 25.8784 L 14.9905 25.8949 L 15.0014 25.9147 L 14.9978 25.9311 L 15.0082 25.9508 L 15.0046 25.9672 L 15.0241 26.0061 L 15.0205 26.0226 L 15.0295 26.0418 L 15.0259 26.0583 L 15.0345 26.0775 L 15.0309 26.094 L 15.0467 26.1319 L 15.0432 26.1484 L 15.0504 26.1672 L 15.0469 26.1837 L 15.0537 26.2024 L 15.0502 26.2189 L 15.0566 26.2375 L 15.0531 26.254 L 15.059 26.2725 L 15.0556 26.289 L 15.0662 26.3257 L 15.0628 26.3422 L 15.0675 26.3604 L 15.0641 26.3769 L 15.0684 26.395 L 15.065 26.4116 L 15.0689 26.4296 L 15.0655 26.4461 L 15.0691 26.4641 L 15.0657 26.4806 L 15.0688 26.4985 L 15.0655 26.515 L 15.0682 26.5328 L 15.0639 26.5836 L 15.0676 26.6188 L 15.0643 26.6353 L 15.0656 26.6528 L 15.0623 26.6693 L 15.0605 26.7206 L 15.0418 26.8889 L 15.0148 27.0556 L 14.9765 27.2372 L 14.9239 27.4333 L 14.8716 27.5949 L 14.8518 27.6426 L 14.8485 27.6591 L 14.8275 27.7065 L 14.8242 27.723 L 14.8149 27.7384 L 14.8116 27.7549 L 14.802 27.7702 L 14.7986 27.7867 L 14.7888 27.8019 L 14.782 27.835 L 14.7719 27.8501 L 14.7685 27.8667 L 14.758 27.8818 L 14.7546 27.8983 L 14.7439 27.9133 L 14.7404 27.9298 L 14.7294 27.9448 L 14.726 27.9613 L 14.7147 27.9762 L 14.7112 27.9927 L 14.6996 28.0075 L 14.6961 28.024 L 14.6842 28.0388 L 14.6808 28.0553 L 14.6686 28.07 L 14.6616 28.103 L 14.6491 28.1176 L 14.6456 28.1341 L 14.6328 28.1486 L 14.6293 28.1651 L 14.6199 28.1804 L 14.6186 28.3374 L 14.6302 28.536 L 14.6586 28.7675 L 14.6798 28.8927 L 14.7364 29.1572 L 14.7719 29.2944 L 14.8561 29.5744 L 14.9044 29.7155 L 15.0117 29.996 L 15.0699 30.134 L 15.1934 30.4029 L 15.2577 30.5325 L 15.3891 30.78 L 15.5208 31.0092 L 15.6491 31.2176 L 15.7703 31.4032 L 15.9313 31.6354 L 16.0589 31.8094 L 16.1885 31.978 L 16.4589 31.9902 L 16.7294 31.9976 L 17 32 L 17.2706 31.9976 L 17.5411 31.9902 L 17.8115 31.978 L 17.9411 31.8094 L 18.0687 31.6354 L 18.2297 31.4032 L 18.3509 31.2176 L 18.4792 31.0092 L 18.6109 30.78 L 18.7423 30.5325 L 18.8066 30.4029 L 18.9301 30.134 L 18.9883 29.996 L 19.0956 29.7155 L 19.1439 29.5744 L 19.2281 29.2944 L 19.2636 29.1572 L 19.3202 28.8927 L 19.3414 28.7675 L 19.3698 28.536 L 19.3814 28.3374 L 19.3801 28.1804 L 19.3707 28.1651 L 19.3672 28.1486 L 19.3544 28.1341 L 19.3509 28.1176 L 19.3384 28.103 L 19.3314 28.07 L 19.3192 28.0553 L 19.3158 28.0388 L 19.3039 28.024 L 19.3004 28.0075 L 19.2888 27.9927 L 19.2853 27.9762 L 19.274 27.9613 L 19.2706 27.9448 L 19.2596 27.9298 L 19.2561 27.9133 L 19.2454 27.8983 L 19.242 27.8818 L 19.2315 27.8667 L 19.2281 27.8501 L 19.218 27.835 L 19.2112 27.8019 L 19.2014 27.7867 L 19.198 27.7702 L 19.1884 27.7549 L 19.1851 27.7384 L 19.1758 27.723 L 19.1725 27.7065 L 19.1515 27.6591 L 19.1482 27.6426 L 19.1284 27.5949 L 19.0761 27.4333 L 19.0235 27.2372 L 18.9852 27.0556 L 18.9582 26.8889 L 18.9395 26.7206 L 18.9377 26.6693 L 18.9344 26.6528 L 18.9357 26.6353 L 18.9324 26.6188 L 18.9361 26.5836 L 18.9318 26.5328 L 18.9345 26.515 L 18.9312 26.4985 L 18.9343 26.4806 L 18.9309 26.4641 L 18.9345 26.4461 L 18.9311 26.4296 L 18.935 26.4116 L 18.9316 26.395 L 18.9359 26.3769 L 18.9325 26.3604 L 18.9372 26.3422 L 18.9338 26.3257 L 18.9444 26.289 L 18.941 26.2725 L 18.9469 26.254 L 18.9434 26.2375 L 18.9498 26.2189 L 18.9463 26.2024 L 18.9531 26.1837 L 18.9496 26.1672 L 18.9568 26.1484 L 18.9533 26.1319 L 18.9691 26.094 L 18.9655 26.0775 L 18.9741 26.0583 L 18.9705 26.0418 L 18.9795 26.0226 L 18.9759 26.0061 L 18.9954 25.9672 L 18.9918 25.9508 L 19.0022 25.9311 L 18.9986 25.9147 L 19.0095 25.8949 L 19.0058 25.8784 L 19.0293 25.8385 L 19.0255 25.822 L 19.038 25.8018 L 19.0342 25.7854 L 19.0472 25.765 L 19.0434 25.7486 L 19.0711 25.7074 L 19.0672 25.691 L 19.0818 25.6701 L 19.0779 25.6537 L 19.1089 25.6115 L 19.1049 25.5951 L 19.1212 25.5737 L 19.1172 25.5573 L 19.1516 25.5139 L 19.1474 25.4975 L 19.1842 25.4533 L 19.18 25.437 L 19.2192 25.3918 L 19.2148 25.3755 L 19.2564 25.3295 L 19.252 25.3132 L 19.3188 25.2422 L 19.3142 25.226 L 19.3863 25.1526 L 19.3816 25.1364 L 19.6259 24.901 L 19.6903 24.8615 L 19.7202 24.8333 L 19.8533 24.7499 L 19.8504 24.742 L 20.1571 24.622 L 20.4589 24.4899 L 20.4624 24.4976 L 20.6155 24.4625 L 20.6566 24.4612 L 20.73 24.4437 L 21.0693 24.4373 L 21.0774 24.4522 L 21.1802 24.4531 L 21.1885 24.4678 L 21.2859 24.4707 L 21.2943 24.4853 L 21.3563 24.4885 L 21.3647 24.5031 L 21.4243 24.5073 L 21.4329 24.5219 L 21.4902 24.5271 L 21.4988 24.5416 L 21.5539 24.548 L 21.5626 24.5624 L 21.5893 24.566 L 21.598 24.5804 L 21.6498 24.5884 L 21.6586 24.6028 L 21.6837 24.6072 L 21.6926 24.6215 L 21.7413 24.6311 L 21.7502 24.6454 L 21.7738 24.6506 L 21.7827 24.6649 L 21.8059 24.6704 L 21.8148 24.6847 L 21.8597 24.6963 L 21.8687 24.7106 L 21.8904 24.7168 L 21.8995 24.7311 L 21.9208 24.7375 L 21.9298 24.7518 L 21.9711 24.7655 L 21.9802 24.7797 L 22.0002 24.7869 L 22.0093 24.8011 L 22.0289 24.8086 L 22.038 24.8227 L 22.076 24.8384 L 22.0852 24.8526 L 22.1036 24.8607 L 22.1128 24.8749 L 22.1308 24.8833 L 22.14 24.8975 L 22.1576 24.9061 L 22.1669 24.9202 L 22.1841 24.9291 L 22.1934 24.9432 L 22.2269 24.9616 L 22.2361 24.9758 L 22.2523 24.9853 L 22.2616 24.9994 L 22.2774 25.0092 L 22.2867 25.0233 L 22.3022 25.0332 L 22.3115 25.0473 L 22.3267 25.0575 L 22.336 25.0716 L 22.3509 25.082 L 22.3602 25.0961 L 22.3747 25.1067 L 22.4076 25.1456 L 22.4351 25.1679 L 22.4444 25.1819 L 22.4577 25.1934 L 22.4671 25.2074 L 22.5021 25.2449 L 22.6079 25.3772 L 22.7066 25.5141 L 22.808 25.6697 L 22.9094 25.8454 L 22.9867 25.9967 L 23.0064 26.0444 L 23.0158 26.0585 L 23.0345 26.1068 L 23.0438 26.1209 L 23.0481 26.1383 L 23.0574 26.1523 L 23.0615 26.1699 L 23.0708 26.184 L 23.0746 26.2017 L 23.0931 26.2299 L 23.0967 26.2477 L 23.106 26.2618 L 23.1092 26.2799 L 23.1185 26.294 L 23.1215 26.3122 L 23.1308 26.3263 L 23.1336 26.3447 L 23.1428 26.3588 L 23.1453 26.3773 L 23.1546 26.3914 L 23.1568 26.4101 L 23.1661 26.4242 L 23.1681 26.4431 L 23.1773 26.4572 L 23.1791 26.4762 L 23.1975 26.5045 L 23.199 26.5237 L 23.2082 26.5378 L 23.2094 26.5571 L 23.2186 26.5713 L 23.2228 26.5887 L 23.3328 26.7006 L 23.4815 26.8329 L 23.6652 26.9765 L 23.7688 27.0501 L 23.9958 27.197 L 24.1179 27.269 L 24.3754 27.4074 L 24.5094 27.473 L 24.7836 27.5955 L 24.9224 27.6519 L 25.1998 27.7547 L 25.337 27.8009 L 25.6049 27.883 L 25.8601 27.952 L 26.0982 28.0086 L 26.315 28.0541 L 26.5931 28.1045 L 26.8063 28.1372 L 27.0173 28.1649 L 27.2171 27.9823 L 27.4135 27.7962 L 27.6066 27.6066 L 27.7962 27.4135 L 27.9823 27.2171 L 28.1649 27.0173 L 28.1372 26.8063 L 28.1045 26.5931 L 28.0541 26.315 L 28.0086 26.0982 L 27.952 25.8601 L 27.883 25.6049 L 27.8009 25.337 L 27.7547 25.1998 L 27.6519 24.9224 L 27.5955 24.7836 L 27.473 24.5094 L 27.4074 24.3754 L 27.269 24.1179 L 27.197 23.9958 L 27.0501 23.7688 L 26.9765 23.6652 L 26.8329 23.4815 L 26.7006 23.3328 L 26.5887 23.2228 L 26.5713 23.2186 L 26.5571 23.2094 L 26.5378 23.2082 L 26.5237 23.199 L 26.5045 23.1975 L 26.4762 23.1791 L 26.4572 23.1773 L 26.4431 23.1681 L 26.4242 23.1661 L 26.4101 23.1568 L 26.3914 23.1546 L 26.3773 23.1453 L 26.3588 23.1428 L 26.3447 23.1336 L 26.3263 23.1308 L 26.3122 23.1215 L 26.294 23.1185 L 26.2799 23.1092 L 26.2618 23.106 L 26.2477 23.0967 L 26.2299 23.0931 L 26.2017 23.0746 L 26.184 23.0708 L 26.1699 23.0615 L 26.1523 23.0574 L 26.1383 23.0481 L 26.1209 23.0438 L 26.1068 23.0345 L 26.0585 23.0158 L 26.0444 23.0064 L 25.9967 22.9867 L 25.8454 22.9094 L 25.6697 22.808 L 25.5141 22.7066 L 25.3772 22.6079 L 25.2449 22.5021 L 25.2074 22.4671 L 25.1934 22.4577 L 25.1819 22.4444 L 25.1679 22.4351 L 25.1456 22.4076 L 25.1067 22.3747 L 25.0961 22.3602 L 25.082 22.3509 L 25.0716 22.336 L 25.0575 22.3267 L 25.0473 22.3115 L 25.0332 22.3022 L 25.0233 22.2867 L 25.0092 22.2774 L 24.9994 22.2616 L 24.9853 22.2523 L 24.9758 22.2361 L 24.9616 22.2269 L 24.9432 22.1934 L 24.9291 22.1841 L 24.9202 22.1669 L 24.9061 22.1576 L 24.8975 22.14 L 24.8833 22.1308 L 24.8749 22.1128 L 24.8607 22.1036 L 24.8526 22.0852 L 24.8384 22.076 L 24.8227 22.038 L 24.8086 22.0289 L 24.8011 22.0093 L 24.7869 22.0002 L 24.7797 21.9802 L 24.7655 21.9711 L 24.7518 21.9298 L 24.7375 21.9208 L 24.7311 21.8995 L 24.7168 21.8904 L 24.7106 21.8687 L 24.6963 21.8597 L 24.6847 21.8148 L 24.6704 21.8059 L 24.6649 21.7827 L 24.6506 21.7738 L 24.6454 21.7502 L 24.6311 21.7413 L 24.6215 21.6926 L 24.6072 21.6837 L 24.6028 21.6586 L 24.5884 21.6498 L 24.5804 21.598 L 24.566 21.5893 L 24.5624 21.5626 L 24.548 21.5539 L 24.5416 21.4988 L 24.5271 21.4902 L 24.5219 21.4329 L 24.5073 21.4243 L 24.5031 21.3647 L 24.4885 21.3563 L 24.4853 21.2943 L 24.4707 21.2859 L 24.4678 21.1885 L 24.4531 21.1802 L 24.4522 21.0774 L 24.4373 21.0693 L 24.4437 20.73 L 24.4612 20.6566 L 24.4625 20.6155 L 24.4976 20.4624 L 24.4899 20.4589 L 24.622 20.1571 L 24.742 19.8504 L 24.7499 19.8533 L 24.8333 19.7202 L 24.8615 19.6903 L 24.901 19.6259 L 25.1364 19.3816 L 25.1526 19.3863 L 25.226 19.3142 L 25.2422 19.3188 L 25.3132 19.252 L 25.3295 19.2564 L 25.3755 19.2148 L 25.3918 19.2192 L 25.437 19.18 L 25.4533 19.1842 L 25.4975 19.1474 L 25.5139 19.1516 L 25.5573 19.1172 L 25.5737 19.1212 L 25.5951 19.1049 L 25.6115 19.1089 L 25.6537 19.0779 L 25.6701 19.0818 L 25.691 19.0672 L 25.7074 19.0711 L 25.7486 19.0434 L 25.765 19.0472 L 25.7854 19.0342 L 25.8018 19.038 L 25.822 19.0255 L 25.8385 19.0293 L 25.8784 19.0058 L 25.8949 19.0095 L 25.9147 18.9986 L 25.9311 19.0022 L 25.9508 18.9918 L 25.9672 18.9954 L 26.0061 18.9759 L 26.0226 18.9795 L 26.0418 18.9705 L 26.0583 18.9741 L 26.0775 18.9655 L 26.094 18.9691 L 26.1319 18.9533 L 26.1484 18.9568 L 26.1672 18.9496 L 26.1837 18.9531 L 26.2024 18.9463 L 26.2189 18.9498 L 26.2375 18.9434 L 26.254 18.9469 L 26.2725 18.941 L 26.289 18.9444 L 26.3257 18.9338 L 26.3422 18.9372 L 26.3604 18.9325 L 26.3769 18.9359 L 26.395 18.9316 L 26.4116 18.935 L 26.4296 18.9311 L 26.4461 18.9345 L 26.4641 18.9309 L 26.4806 18.9343 L 26.4985 18.9312 L 26.515 18.9345 L 26.5328 18.9318 L 26.5836 18.9361 L 26.6188 18.9324 L 26.6353 18.9357 L 26.6528 18.9344 L 26.6693 18.9377 L 26.7206 18.9395 L 26.8889 18.9582 L 27.0556 18.9852 L 27.2372 19.0235 L 27.4333 19.0761 L 27.5949 19.1284 L 27.6426 19.1482 L 27.6591 19.1515 L 27.7065 19.1725 L 27.723 19.1758 L 27.7384 19.1851 L 27.7549 19.1884 L 27.7702 19.198 L 27.7867 19.2014 L 27.8019 19.2112 L 27.835 19.218 L 27.8501 19.2281 L 27.8667 19.2315 L 27.8818 19.242 L 27.8983 19.2454 L 27.9133 19.2561 L 27.9298 19.2596 L 27.9448 19.2706 L 27.9613 19.274 L 27.9762 19.2853 L 27.9927 19.2888 L 28.0075 19.3004 L 28.024 19.3039 L 28.0388 19.3158 L 28.0553 19.3192 L 28.07 19.3314 L 28.103 19.3384 L 28.1176 19.3509 L 28.1341 19.3544 L 28.1486 19.3672 L 28.1651 19.3707 L 28.1804 19.3801 L 28.3374 19.3814 L 28.536 19.3698 L 28.7675 19.3414 L 28.8927 19.3202 L 29.1572 19.2636 L 29.2944 19.2281 L 29.5744 19.1439 L 29.7155 19.0956 L 29.996 18.9883 L 30.134 18.9301 L 30.4029 18.8066 L 30.5325 18.7423 L 30.78 18.6109 L 31.0092 18.4792 L 31.2176 18.3509 L 31.4032 18.2297 L 31.6354 18.0687 L 31.8094 17.9411 L 31.978 17.8115 L 31.9902 17.5411 L 31.9976 17.2706 L 32 17 L 31.9976 16.7294 L 31.9902 16.4589 L 31.978 16.1885 L 31.8094 16.0589 L 31.6354 15.9313 L 31.4032 15.7703 L 31.2176 15.6491 L 31.0092 15.5208 L 30.78 15.3891 L 30.5325 15.2577 L 30.4029 15.1934 L 30.134 15.0699 L 29.996 15.0117 L 29.7155 14.9044 L 29.5744 14.8561 L 29.2944 14.7719 L 29.1572 14.7364 L 28.8927 14.6798 L 28.7675 14.6586 L 28.536 14.6302 L 28.3374 14.6186 L 28.1804 14.6199 L 28.1651 14.6293 L 28.1486 14.6328 L 28.1341 14.6456 L 28.1176 14.6491 L 28.103 14.6616 L 28.07 14.6686 L 28.0553 14.6808 L 28.0388 14.6842 L 28.024 14.6961 L 28.0075 14.6996 L 27.9927 14.7112 L 27.9762 14.7147 L 27.9613 14.726 L 27.9448 14.7294 L 27.9298 14.7404 L 27.9133 14.7439 L 27.8983 14.7546 L 27.8818 14.758 L 27.8667 14.7685 L 27.8501 14.7719 L 27.835 14.782 L 27.8019 14.7888 L 27.7867 14.7986 L 27.7702 14.802 L 27.7549 14.8116 L 27.7384 14.8149 L 27.723 14.8242 L 27.7065 14.8275 L 27.6591 14.8485 L 27.6426 14.8518 L 27.5949 14.8716 L 27.4333 14.9239 L 27.2372 14.9765 L 27.0556 15.0148 L 26.8889 15.0418 L 26.7206 15.0605 L 26.6693 15.0623 L 26.6528 15.0656 L 26.6353 15.0643 L 26.6188 15.0676 L 26.5836 15.0639 L 26.5328 15.0682 L 26.515 15.0655 L 26.4985 15.0688 L 26.4806 15.0657 L 26.4641 15.0691 L 26.4461 15.0655 L 26.4296 15.0689 L 26.4116 15.065 L 26.395 15.0684 L 26.3769 15.0641 L 26.3604 15.0675 L 26.3422 15.0628 L 26.3257 15.0662 L 26.289 15.0556 L 26.2725 15.059 L 26.254 15.0531 L 26.2375 15.0566 L 26.2189 15.0502 L 26.2024 15.0537 L 26.1837 15.0469 L 26.1672 15.0504 L 26.1484 15.0432 L 26.1319 15.0467 L 26.094 15.0309 L 26.0775 15.0345 L 26.0583 15.0259 L 26.0418 15.0295 L 26.0226 15.0205 L 26.0061 15.0241 L 25.9672 15.0046 L 25.9508 15.0082 L 25.9311 14.9978 L 25.9147 15.0014 L 25.8949 14.9905 L 25.8784 14.9942 L 25.8385 14.9707 L 25.822 14.9745 L 25.8018 14.962 L 25.7854 14.9658 L 25.765 14.9528 L 25.7486 14.9566 L 25.7074 14.9289 L 25.691 14.9328 L 25.6701 14.9182 L 25.6537 14.9221 L 25.6115 14.8911 L 25.5951 14.8951 L 25.5737 14.8788 L 25.5573 14.8828 L 25.5139 14.8484 L 25.4975 14.8526 L 25.4533 14.8158 L 25.437 14.82 L 25.3918 14.7808 L 25.3755 14.7852 L 25.3295 14.7436 L 25.3132 14.748 L 25.2422 14.6812 L 25.226 14.6858 L 25.1526 14.6137 L 25.1364 14.6184 L 24.901 14.3741 L 24.8615 14.3097 L 24.8333 14.2798 L 24.7499 14.1467 L 24.742 14.1496 L 24.622 13.8429 Z"/>
  </g>
  <g id="ENGRAVE" fill="none" stroke="#0000ff" stroke-width="0.1">
    <circle cx="17" cy="17" r="12"/>
    <path d="M 15.56 17 L 18.44 17"/>
    <path d="M 17 18.44 L 17 15.56"/>
    <text x="17" y="19.88" font-size="2" text-anchor="middle" font-family="monospace" fill="none">m3 z8 α20° x0</text>
  </g>
</svg>
